<svg xmlns="http://www.w3.org/2000/svg" xmlns:xlink="http://www.w3.org/1999/xlink" viewBox="0 0 535.32 530.73"><defs><style>.cls-1{fill:none;}.cls-2{clip-path:url(#clip-path);}.cls-3{fill:#d6af92;}.cls-4{fill:#51c19a;}.cls-5{fill:#d09537;}.cls-6{fill:#37545b;}.cls-7{fill:#fedb80;}.cls-8{fill:#fddb81;}.cls-9{fill:#23434b;}.cls-10{fill:#feda80;}.cls-11{fill:#ff8587;}.cls-12{fill:#f8b4b5;}.cls-13{fill:#f8d67e;}.cls-14{fill:#24244e;}.cls-15{fill:#e8c473;}.cls-16{fill:#855839;}.cls-17{fill:#996e52;}.cls-18{fill:#da6c2d;}.cls-19{fill:#ffe3c9;}.cls-20{fill:#ffdc80;}.cls-21{fill:#ffdb80;}.cls-22{fill:#fedb81;}.cls-23{fill:#6d2868;}.cls-24{fill:#ff6365;}.cls-25{fill:#fdda7f;}.cls-26{fill:#fe6365;}.cls-27{fill:#9a6f53;}.cls-28{fill:#de322d;}.cls-29{fill:#de332f;}.cls-30{fill:#fdf8f8;}.cls-31{fill:#f2ce79;}</style><clipPath id="clip-path"><rect class="cls-1" width="535.32" height="530.73"/></clipPath></defs><g id="ILUSTRACIONES_2"><g class="cls-2"><path class="cls-3" d="M100,400.77c2.88-.13,4.38-2.36,5.7-4.32,3.94-5.86,6-12.51,7-19.45a5.28,5.28,0,0,0-.16-1.42c-4.59,1-8.65,3.47-13.31,3.79-6.33.63-12.64,1.5-18.94-.43A9.33,9.33,0,0,1,75,375.61c-9.25-12.88-21.83-21.85-35.19-29.88-4.36-2.63-8.58-5.46-12.8-8.32-8.24-5.6-10.43-14-11.16-23.08-.83-10.47,1.13-20.77,2.62-31.06,1-6.81,1.54-13.64,2.23-20.47a44,44,0,0,0-1.62-16.19c-3.7-13.24-1.66-26.12,2.16-38.82,4.27-14.17,8.87-28.24,12.31-42.65A8.7,8.7,0,0,1,37,159.91c7.54-3.23,15-6.72,23.31-7.62,5.78-1.79,11.7-2.41,17.73-2.94,14.67-1.28,28.6,1.81,42.43,6a45.09,45.09,0,0,0,5.86,1.31c8.15,1.95,16.16,4.11,23.82,7.79,8.86,4.25,16.54,10,24.14,16,12.23,9.74,20.13,22.76,27.85,35.95a225.34,225.34,0,0,1,13.54,27.71c1.58,3.83,4.48,7,5.58,11.05a15.22,15.22,0,0,0,.79,4.51c5.54,12.87,3.25,25.48-1.39,38-4.18,11.28-13.37,17.36-23.46,22.49a7.61,7.61,0,0,0-2.7.78,31.62,31.62,0,0,1-17.81,3c-3.76-.45-3.92-.2-4.94,3.32-1.73,6-4.24,11.75-5.33,17.94-2.08,11.74-2.3,23.41,1.47,34.9,2.16,6.59,6.34,11.79,11.38,16.39a2.71,2.71,0,0,0,1.63.59c.32,2.12-1.32,2.95-2.71,3.68-10.7,5.58-17.59,14.63-23.78,24.68-6.51,10.56-12.29,21.59-19.6,31.67a145.39,145.39,0,0,1-12.6,14.41,17.2,17.2,0,0,1-17.78,5.08c-10.46-2.68-19.39-8-27.45-15a8.56,8.56,0,0,1-3.09-8.49c1.67-10.77,3.88-21.42,6.26-32a34.72,34.72,0,0,1,8.28-15.5,10.4,10.4,0,0,1,4.45-2.79C95.19,402,97.67,401.71,100,400.77Z"/><path class="cls-4" d="M186.76,515.78c-.88-4.43-2.3-8.65-5.41-12.1-1.94-.44-2,1.27-2.55,2.3-2.21,4.34-3.24,9.13-5.15,13.59-1.29,3-2.16,3.35-4.55,1.09-5-4.71-10.22-9.29-13.68-15.27-3.82-6.63-6.09-13.64-4-21.6C156,466.25,164,450.19,172,434.1a103.23,103.23,0,0,1,15.42-23.28c3.41-3.79,4.21-4,8.77-2.44,2.22.76,4.45,2.55,7,.8a10.27,10.27,0,0,1-.68-.8c-2.11-3-5-5.2-7.58-7.69-3.75-3.66-8.48-6.08-14.09-3.53-.78,1.58-2.22,2.38-3.67,3.21a53.31,53.31,0,0,0-16.56,14.19,224.73,224.73,0,0,0-15.16,24,161.13,161.13,0,0,1-24.33,33,17.49,17.49,0,0,1-14.92,4.54,58.82,58.82,0,0,1-9.8-3c-7.6-3-14.07-7.7-20-13.26-1.33-1.26-2.5-2.74-2-4.67s.53-4.21,1-6.3c1.39-6.82,2.55-13.68,4-20.49.91-4.39,1.58-8.88,3.62-12.93,3.07-6.1,6.38-12,14.26-12.85a8.92,8.92,0,0,0,2-.61c.54-.19.53-.73.63-1.18a18.14,18.14,0,0,0-6.51-1.47c-6.22-.31-11.66,1.22-15.14,7-.91,1.5-2,2.89-3,4.33a7.9,7.9,0,0,0-3,3.7c-6.93,19-14.69,37.65-20.84,56.91C46.77,481,46,491.48,45.75,502a114,114,0,0,1-1.9,20.79c-1.07,5.2-1.71,10.46-2.49,15.71,45.59,0,91.05.14,136.52.72,2.41-6.19,5-12.32,7.8-18.33A8.13,8.13,0,0,0,186.76,515.78Z"/><path class="cls-3" d="M241.25,483.54c-10.06-18.88-16.71-39-22.36-59.58-.69-2.5-1.19-5-1.86-7.56-.33-1.25-.75-2.7-2.27-2.88-4.22-.51-7.67-3-11.54-4.34a17.05,17.05,0,0,0-8.09-2.25c-2.69-1.59-4.42-.67-6.16,1.15a81.59,81.59,0,0,0-13.14,17.07c-6.09,11.09-11.7,22.41-16.73,34a170.24,170.24,0,0,0-9.54,28.12,6.63,6.63,0,0,0,.07,3.77,32.51,32.51,0,0,1,1.28,5.5c.54,4.25,2.56,7.76,5,11.19,3.71,5.26,8.37,9.62,13,14a7.47,7.47,0,0,0,1.73,1.21c1.9,1,2.41.79,3.21-1.13.28-.65.45-1.35.72-2,2.22-5.32,3.4-11.05,6.32-16.1,2.5-4.45,3.57-9.43,5.2-14.2,1.54-4.51,2.95-9.07,4.58-13.85a8.57,8.57,0,0,1,2,2.33c13.46,20.48,26,41.56,39.33,62.1q17.88.39,35.77.9c-4.33-10.3-8.74-20.56-13.75-30.56C249.5,501.61,245.92,492.31,241.25,483.54Z"/><path class="cls-5" d="M60.16,153.25a11.24,11.24,0,0,1-4.49.8,7,7,0,0,0-3.41.74c-4.94,1.91-9.9,3.77-14.86,5.64-.79-1.1-.1-2,.42-2.93,7-12.28,13.7-24.81,22.34-36.14,5.37-7,12.38-12.27,18.86-18.1a5.41,5.41,0,0,1,2.19-1.14c7.85-2.13,15.31-5.57,23.43-6.85,7.35-1.16,14.44-3.66,21.83-4.65,12.17-1.64,24.19-.55,36.1,2.22,23.17,7.36,42.58,20.24,57.69,39.42A33.88,33.88,0,0,0,226,138.5c2.84,2.18,4.63,5.37,6.48,8.38,5.52,9,10.83,18.06,14.72,27.9a85,85,0,0,1,5.34,20.54,18.92,18.92,0,0,0,1.07,4.81,9.34,9.34,0,0,1,0,6.26,85.48,85.48,0,0,1-11.57,23.84c-2.4,3.52-4.85,7-7.27,10.52-.73,1.06-1.64,2.06-1.43,3.51-2.66,5.33-6.66,9.09-12.47,10.78-.3-.19-.74-.3-.87-.57-2.88-5.64-5.79-11.27-8.36-17.07A206.7,206.7,0,0,0,183.92,191a73.62,73.62,0,0,0-11.06-10.47c-5.38-4.43-10.81-8.84-17-12.09-7-3.68-14.09-7.19-21.85-9.07-2.37-.57-5,0-7-1.91-1-1.15-.4-2.19.34-3.08a14.54,14.54,0,0,0,2.63-5.56c1.66-4.68,2.69-9.56,4.27-14.26,1.31-3.89.89-7.68-.15-11.49a7.43,7.43,0,0,1-.65-2.74c0-.44,1-1.44-.63-.77-1.29.53-1.75-.59-2.25-1.62-1.47-3.08-3.83-4.41-7.39-4.16-13.32.94-26.57,2.34-39.57,5.58a13.48,13.48,0,0,0-6.42,4.08A57,57,0,0,0,66,140.11a4.58,4.58,0,0,0-1.26,3C63.34,146.54,63.52,150.7,60.16,153.25Z"/><path class="cls-6" d="M220.88,255c1.51-1.09,2.84-2.47,4.73-2.91,1-.23,1.48-1.06,2.1-1.74,1.87-2,3.76-4.09,5.64-6.13a169.19,169.19,0,0,1,10.26,16.1c5.75,10.31,11.6,20.57,17.24,30.94a21.93,21.93,0,0,1,1.45,17.79,9.68,9.68,0,0,1-3.32,4.49,44.45,44.45,0,0,1-15.36,8.53A106.39,106.39,0,0,1,227.83,326c-6.94,1-13.62-.39-20.21-2.46-3.49-1.1-7-2.22-10.45-3.33.22-1.08,1.17-1.4,2-1.9,2.4-1.53,4.72-3.17,7.17-4.6,8.29-4.86,12.58-12.59,15.32-21.38a65.47,65.47,0,0,0,2.62-16.76,31.43,31.43,0,0,0-3.36-15.75A5.5,5.5,0,0,1,220.88,255Z"/><path class="cls-7" d="M162.57,92.84c-1.71.41-3.25-.47-4.89-.64A194.57,194.57,0,0,0,133,90.83c-6,.14-11.87,1.79-17.73,3.08-4.25.94-8.45,2.06-12.77,2.76A44.37,44.37,0,0,0,94,99c-3.86,1.44-7.85,2.55-11.79,3.79a9.3,9.3,0,0,0-3.72,1.94c-4.17,3.84-8.41,7.61-12.6,11.43-3.45,3.13-5.7,7.22-8.48,10.88-6.1,8-10.83,16.9-15.63,25.72-1.41,2.58-3.34,4.87-4.33,7.68a12.2,12.2,0,0,0-3.24,6.43c-2.28,10.49-5.66,20.68-8.68,31C23.65,204,21.29,210.08,20,216.47c-1.4,7.1-2.33,14.24-1.68,21.44.35,3.83,1.68,7.57,2.36,11.39,1,5.69,1.61,11.38.59,17.21-.54,3.1-.57,6.33-.84,9.49-.38,4.59-1.21,9.1-1.88,13.63-1.31,8.89-2.39,17.81-1.63,26.77a38.3,38.3,0,0,0,3.81,13.2,15.77,15.77,0,0,0,4.43,5,87,87,0,0,0,14.93,10.09A106,106,0,0,1,59.2,358.08c2.33,2,4.86,3.75,7.13,5.8a53.25,53.25,0,0,1,9.37,11.05,7.22,7.22,0,0,0,4.54,3c6.25,1.86,12.64,1.28,19,1.42-1.52,1.21-3.42.76-5.11,1a54.54,54.54,0,0,1-12.69,1A17.65,17.65,0,0,1,68.2,374c-5-6.73-11.59-11.37-18.8-15.31-8-4.39-15-10.28-21.94-16.14-7.13-6-11.2-14-13.22-23-1-4.47-.53-9.2,0-13.8.81-7.38,1.73-14.75,2.63-22.12.55-4.57,1-9.14,1.75-13.68a14.86,14.86,0,0,0-.22-5.94c-1.4-5.73-2-11.6-3-17.42a59.72,59.72,0,0,0-1.25-6.23,31,31,0,0,1,0-16.12c4-15.18,8-30.34,12.69-45.32a89.24,89.24,0,0,1,5.05-13.23c1.12-2.27,1.35-4.76,1.9-7.16a101.64,101.64,0,0,1,5.6-16.4c1.28-3,2-6.44,3.7-9.18s4.58-4.56,6.67-7.12c2.25-2.75,4.16-5.74,6.55-8.38A81.73,81.73,0,0,1,86.19,96.43a92.23,92.23,0,0,1,27.05-6.55,134.39,134.39,0,0,1,13.44-.58c4.38.07,8.7-.81,13.09-.66A89.37,89.37,0,0,1,161,92.07,2.82,2.82,0,0,1,162.57,92.84Z"/><path class="cls-3" d="M41.3,530.54c1.68-9,3.59-18,2.91-27.3a42.82,42.82,0,0,1,1-10.52c.71-4.15,0-8.17-1.1-12.16-2.22-.65-2.09,1.37-2.55,2.43-2.45,5.69-3.36,11.73-4.39,17.81-2.08,12.34-6.86,23.83-12.29,35.05-.43.87-.87,1.75-1.29,2.64H38.7a14.74,14.74,0,0,1,1.86-6A4.59,4.59,0,0,0,41.3,530.54Z"/><path class="cls-8" d="M36,510.69c1.25-4.16,2.67-8.41,2.77-12.69.16-6.47,2.84-12,5.12-17.77l.44-.33c2.74-5.14,3.64-11,6.46-16.09,4.66-8.36,5.56-17.42,5.33-26.67-.14-5.24,2-9,5.89-12.2a81.58,81.58,0,0,0,11.19-10.72,12.54,12.54,0,0,0,2.13-3.59,72.84,72.84,0,0,0-16.18,7.08,15.17,15.17,0,0,0-6.89,9.1,46.13,46.13,0,0,0-1.85,12.57,58.57,58.57,0,0,1-2.19,15.32C42.73,473.89,37.46,493.13,31,512c-2.8,8.15-5.33,16.45-10.21,23.71a6.31,6.31,0,0,0-1,2.78h5c.14-.33.28-.65.44-1A165.18,165.18,0,0,0,36,510.69Z"/><path class="cls-8" d="M46.47,512.22c.22-6.25.17-12.5.81-18.74s1-12.38,3.67-18.16A42,42,0,0,0,52.4,471c-.55-1.7-.77-1.82-2.19-.69-3.24,2.6-4.71,6.37-6.39,10l0,0a30,30,0,0,0,.54,7.37,11,11,0,0,1-.11,4.55,48.48,48.48,0,0,0-1.18,8.68c.06,7.27.46,14.56-1.35,21.74-.85,3.37-1.36,6.84-2,10.26a18.62,18.62,0,0,0-1.21,5c0,.2-.07.41-.1.61h4c.59-4.36,1.19-8.71,2-13S46.31,516.66,46.47,512.22Z"/><path class="cls-9" d="M130.65,149c-.34,2.11-.64,4.22-2.62,5.57-1,.69-1.06,1.78-1.07,2.86-2.3.3-4.43-.39-6.59-1-10.08-3-20.2-5.79-30.8-6.13-9.7-.31-19.35-.18-28.7,2.93a2.72,2.72,0,0,1-.7.05c1.36-2.07,1.89-4.47,2.7-6.76.46-1.3.61-2.73,1.57-3.82,1.83-1.93,4.35-2.34,6.75-2.82a92.22,92.22,0,0,1,37.62.16,20.57,20.57,0,0,1,5.32,1.94c3.21,1.67,5,4.09,4.24,7.92,1.31-3-.47-5.13-2.09-7.28-.51-1.7.58-1.91,1.72-1.55,2.12.68,4.15,1.47,5.19,3.83,1,2.2,2.27,4.23,5.37,2.65C129.74,146.92,130.58,147.62,130.65,149Z"/><path class="cls-10" d="M54.48,260.91a28.32,28.32,0,0,1-5,16.6c-3,4.51-6.54,8.67-8.8,13.64-2.65,5.81-3.39,12-3.22,18.26a2.74,2.74,0,0,0,1.31,2.34c2.89,2,5,5.08,8.22,6.65.54.26,1.07.76.75,1.4s-1,.51-1.55.25c-4.5-2.14-8.87-4.47-12.09-8.42a7.64,7.64,0,0,1-1.61-4.94,63.11,63.11,0,0,1,.06-8.14c.39-3.2.71-6.63,4.32-8.26a2.37,2.37,0,0,0,.85-1.09c2.76-5.37,6.7-9.95,9.82-15.1a24.48,24.48,0,0,0,3.33-9.21c.41-2.73,1.44-5.52.16-8.35a2.81,2.81,0,0,1,.1-1.73,1.28,1.28,0,0,1,2.21-.62,3,3,0,0,1,1.17,2.47C54.47,258.08,54.48,259.49,54.48,260.91Z"/><path class="cls-11" d="M151.83,296.94c-1.7-1-1.93-2.71-2.23-4.5a54.13,54.13,0,0,0-2-9.75c2.11-4.13,6-6.12,9.82-8.23a2.39,2.39,0,0,1,2.95.42c3.25,4.6,3.49,9.65,2.18,14.92C161.31,293.65,155.06,297.82,151.83,296.94Z"/><path class="cls-12" d="M160.35,274.88a6.66,6.66,0,0,0-4.58,1.34,94.59,94.59,0,0,0-8.19,6.47c-1.69-3.53-2-7.46-3.33-11.11-.59-1.61.88-3.84,2.69-4.4a7.19,7.19,0,0,0,2.82-1.27c3.1-2.62,5.75-2,7.55,1.64a4.18,4.18,0,0,1,.65,2C157.73,271.82,160.2,272.82,160.35,274.88Z"/><path class="cls-12" d="M151.83,296.94a4.77,4.77,0,0,0,4.06-1.57c2-2.11,5.1-2.9,6.64-5.57a20,20,0,0,1-.61,13.09,6.19,6.19,0,0,1-1.43,2c-1.39,1.37-3,2.6-5,1.56a5.61,5.61,0,0,1-3.41-5C152.13,299.89,151.75,298.44,151.83,296.94Z"/><path class="cls-3" d="M52.4,471c-.14-.54-.26-1.36-1-.69a17.21,17.21,0,0,0-3.31,3.6c-1.37,2.16-2.83,4.26-4.25,6.39a104,104,0,0,1,4.54-13.32c2.09-5,4.39-9.9,6-15.07.29-.9.92-2,.67-2.7-1.43-4.25.64-8.41.14-12.61-.57-4.8,1.47-8.59,5.1-11.4,4-3.1,7.16-7.17,11.35-10.06a3.82,3.82,0,0,1,1.5-.88c-1.49,5.86-4.29,11.23-6.27,16.91-.74,2.12-1.47,4.25-2.34,6.31-3.83,9.11-6.09,18.83-10.67,27.65a3.43,3.43,0,0,0-.46,2.67A3.4,3.4,0,0,1,52.4,471Z"/><path class="cls-3" d="M130.65,149c-.78-.26-1.5-2.54-2.34,0a1,1,0,0,1-1.08.7,8.49,8.49,0,0,1-3.33-1.88c-1-.74-2.38-1.35-1.5-3,.32-.62-.2-.94-.54-1.08-1.75-.72-3.27-2.18-5.38-1.82a1.28,1.28,0,0,1-1.33.22c-10.59-4.73-21.84-4.18-33-3.94-4.69.1-9.32,1.26-13.91,2.31-1,.23-2,.63-3.08.07,2.07-5.44,4.43-10.7,8.8-14.77a7.79,7.79,0,0,0,1.68-1.82c2.08-4,5.76-5.28,9.81-6.08,7.38-1.44,14.76-2.92,22.27-3.67,6.22-.62,12.43-1.17,18.68-1.29,1.32,0,2.68-.12,2.81,1.8.05.71.67.9,1.28,1,1.25.14,1.61.82,1.21,2-.19.56-.49,1.16.32,1.46s1.07-.27,1.45-.74c.21-.26.5-.46,1.22-1.12a8.53,8.53,0,0,0,.41,5.6c.87,2.53,1.71,5.55.95,8.32C134.39,137.12,133.17,143.26,130.65,149Z"/><path class="cls-13" d="M65.15,140.5c3.7-1.64,7.73-1.93,11.64-2.68,5.82-1.11,11.73-.79,17.62-.82,5.56,0,10.93,1.3,16.37,2.14,2.16.33,3.73,1.94,5.7,2.7a7,7,0,0,1,3.24,7.95,4.62,4.62,0,0,1-1,2.22c-.5.54-1.1,1-1.84.47s-.28-1-.07-1.56c1.65-4.31.93-6.24-3.2-8.22-4.89-2.34-10.25-2.87-15.51-3.45a83.28,83.28,0,0,0-26.48,1.47c-2.41.5-4.76,1.29-7.13,1.95C63.75,141.64,63.94,140.9,65.15,140.5Z"/><path class="cls-14" d="M112.82,391.43c-2.91,0-3.8-1.06-3.18-3.31a80.8,80.8,0,0,0,2.56-11.05,3.66,3.66,0,0,1,2.28-2.89c14.48-7.69,26.4-18.67,38-30,6.55-6.35,12.5-13.25,16.85-21.38.48-.89.7-2.5,2.49-1.62,1.52.74,1.51,1.89,1.12,3.27-4.55,16-12.07,30.26-23.92,42.09-7.3,7.28-14.79,14.33-23.64,19.74a39.88,39.88,0,0,1-10.33,4.6C114.18,391.16,113.26,391.33,112.82,391.43Z"/><path class="cls-14" d="M181.51,397.31c-.36,1.39-1.34,1.68-2.13,2.12-11.43,6.3-19.75,15.62-26.2,26.8-3,5.12-6,10.18-9,15.26a223.83,223.83,0,0,1-22.76,31.21,11.79,11.79,0,0,1-7.88,4.16c-12.44,1.6-22.64-3.23-32.09-10.51A5.34,5.34,0,0,1,80,464.81c-1.67-3-4.23-5-7.07-6.77-2.41-1.52-2.37-1.78-.33-3.83A5.23,5.23,0,0,0,73.81,451c2.08-12.34,3.91-24.74,8.45-36.52,1.44-3.75,2.81-7.55,5.32-10.77a24.21,24.21,0,0,1,2.82-3.16,6.9,6.9,0,0,1,9.14-.43c.91.68.73,1.5-.25,1.9a18.65,18.65,0,0,1-4.36,1.41c-3.44.49-5.61,2.3-7.56,5.17-4.3,6.35-6.15,13.54-7.75,20.78-1.71,7.71-3.4,15.46-4.36,23.32-.1.82-.17,1.65-.27,2.47a2.84,2.84,0,0,0,1.51,3.26,9.91,9.91,0,0,1,3.86,4.05,8.45,8.45,0,0,0,1.81,2.18c9.71,8.08,20.63,12.3,33.45,10.22a5.43,5.43,0,0,0,3.45-2c12.45-14.23,22.64-30,32-46.38,4.89-8.61,10.78-16.39,18.54-22.66C172.53,401.49,178.24,398.2,181.51,397.31Z"/><path class="cls-14" d="M180.88,503.49c.51,2.87-1.9,5.2-1.52,8.15a34,34,0,0,0,1.95,8.23c1.88-.07,2.33-2.13,3.9-2.39,1,.69.12,1.22-.2,1.72-2,3.19-10.66,5.59-14.64,3.59a30.61,30.61,0,0,1-9.84-8c-1.06-1.28-2-2.65-3-4-7.73-10-8.81-21.2-5.82-33a175.74,175.74,0,0,1,28.61-60.2,92.89,92.89,0,0,1,9.26-10.75,16.89,16.89,0,0,1,3.59-2.88,5.52,5.52,0,0,1,7.09,1.05c.65.68,1.25,1.42,1.85,2.15s1.3,1.89,1.3,1.89-10.95-2.6-12.17-1.39a92.12,92.12,0,0,0-11.6,13.88,248,248,0,0,0-12.93,21.21,159.72,159.72,0,0,0-14.4,38.8A32,32,0,0,0,155.76,505,56.16,56.16,0,0,0,164,516.11a20.4,20.4,0,0,0,6.56,4.77c2.55,1.14,2.55,1.16,3.34-1.46a143.34,143.34,0,0,1,5.42-14.63C179.58,504.13,179.76,503.42,180.88,503.49Z"/><path class="cls-14" d="M44.56,491.17c-.09-5.23.7-10.1,3.32-14.63.47-.82.92-1.65,1.4-2.45,3.33-5.59,6.75-11.15,8.92-17.31,5.39-15.25,10.27-30.7,16.94-45.47.19-.42.33-.88-.57-1.38-6.84,12.5-10.24,26.39-15.76,39.56-1-.8-.74-2.31-2.13-2.54a2.8,2.8,0,0,0,.23,2.32c1.24,2.69.73,5.23-.39,7.81a126.28,126.28,0,0,1-8.07,15.37c-3.64,6-6.19,12.19-5.48,19.41a38.84,38.84,0,0,1-.27,6.72c-.65,9.09-2,18.09-3.22,27.09-.6,4.27-1.13,8.55-1.71,12.82h1.74c.66-4.84,1.26-9.7,1.91-14.54C42.88,513.06,44.75,502.19,44.56,491.17Z"/><path class="cls-14" d="M180.84,468.57c1.86-.09,2.68,1.72,4.77,1.78-1.62-2.32-3.07-4.38-4.49-6.44-.32-.46-.94-1-.41-1.54.73-.72,1.33,0,1.7.54,2.67,3.89,5.3,7.82,7.94,11.74a2.58,2.58,0,0,1,.15,2.37,169.44,169.44,0,0,1-5.63,16.54c-1.4-4.56-.35-8.84-1.25-13S181.18,472.75,180.84,468.57Z"/><path class="cls-14" d="M191,303.4c2.88-1.09,5.18-3.22,8.25-2.19-.1.2-.15.53-.3.58a39.86,39.86,0,0,0-14.2,9.13c-.39.38-.8,1-1.48.6s-.48-1-.42-1.59a18.15,18.15,0,0,1,1.06-4.83,43.3,43.3,0,0,1,13.78-18.56,20,20,0,0,1,8-3.66c1.37-.32,2.93-.84,4.26.22-.2,1.23-1,1-1.66,1.08-6.27.7-10.93,4.18-14.89,8.78C191.73,294.9,190.88,298.92,191,303.4Z"/><path class="cls-14" d="M141.54,420.78c-.62,1.41-2,1.58-3.16,2.06-3.17,1.27-6.35,2.53-9.52,3.81-4.14,1.69-8.26,3.35-11.63,6.51-1.85,1.74-4.15,2.79-6.8,1.5-.41-.2-.85-.44-.85-1a.56.56,0,0,1,.75-.47c2.72.76,4.78-.49,6.78-2.09,6.86-5.52,15.14-7.91,23.35-10.42A3,3,0,0,1,141.54,420.78Z"/><path class="cls-14" d="M101.07,429.67c-4.76-.9-7.41-3.77-10.44-6.65C93.12,423.39,98.39,426.7,101.07,429.67Z"/><path class="cls-14" d="M145.13,153a11,11,0,0,1-8-1.72A8.42,8.42,0,0,1,145.13,153Z"/><path class="cls-14" d="M207.74,212.27a11.93,11.93,0,0,1-4.56-6.79A9.91,9.91,0,0,1,207.74,212.27Z"/><path class="cls-14" d="M177.48,175.18c3.23,1,3.92,1.64,5.53,4.57C180,179.25,179,177,177.48,175.18Z"/><path class="cls-14" d="M221.4,243.77c-2.08-2.1-2.7-4.34-3-7.5C220.61,238.64,221.8,240.65,221.4,243.77Z"/><path class="cls-14" d="M212.57,222c2.32,2,2.94,3.17,3.17,6C213.58,226.59,212.79,225.08,212.57,222Z"/><path class="cls-14" d="M157.83,159.07c-3.09,0-5-1.27-7-3.41C153.92,155.62,155.75,157,157.83,159.07Z"/><path class="cls-14" d="M169.56,167.24c-3.2-.5-3.2-.5-4.93-3C167,164,167.74,165.65,169.56,167.24Z"/><path class="cls-14" d="M191.46,189.11a10.74,10.74,0,0,1,4.45,4.95C193.34,193.16,193,192.78,191.46,189.11Z"/><path class="cls-14" d="M46.34,151.66c-.65.05-.91-.17-1-.53a.72.72,0,0,1,.12-.62,5.19,5.19,0,0,1,1.48-.91c.71-.22,1.7-.95,2.14.1.32.78-.75,1.06-1.32,1.4A7.74,7.74,0,0,1,46.34,151.66Z"/><path class="cls-14" d="M58.94,146.45c0,.23,0,.37,0,.44a2.59,2.59,0,0,1-3.45,1.17c-.12-.05-.23-.5-.15-.58A3.2,3.2,0,0,1,58.94,146.45Z"/><path class="cls-14" d="M235.91,246.78a15.38,15.38,0,0,1-1.32-1.67c-1.63-2.14-1.68-2.18-3.35.13a27.61,27.61,0,0,1-11.05,8.86c-.93-.5-.94-1.3-1.16-1.94-5.91-16.69-14.17-32.24-23-47.52a56.23,56.23,0,0,0-8.45-11.38c-12.54-12.77-26.42-23.64-43-30.79a127.92,127.92,0,0,0-16.26-5.88c1.86-5.09,3.7-9.94,5.4-14.84,2-5.71,3.61-11.51,3.48-17.65-.13-5.86-2.69-9.38-8.32-10.8a13,13,0,0,1-7.7-4.62c-1.38-1.78-1.93-1.58-3,.38-.43.8-.38,1.91-1.46,2.37-1.37-.49-2.16-1.73-3.23-2.63-1.28-1.09-2-1-2.06.55-.14,2.2-1.18,2.33-3,2.2a50.79,50.79,0,0,0-18.29,1.61,8.79,8.79,0,0,1-5.45.24,8.28,8.28,0,0,0-2.42-.53c-1.2,0-2.62-1.53-3.53,0-.77,1.31.83,2,1.52,2.87s.86,1.45-.16,2.34c-2.06,1.79-4,3.78-7.08,2.62a2.88,2.88,0,0,0-1.06,0c-1.84.1-2.23.69-1,2.09,1.66,1.82,1.2,3.12,0,4.93a69.17,69.17,0,0,0-10.07,22.53c-.35,1.36-.8,2-2.17,2.28a73.81,73.81,0,0,0-16.78,5.57c-2.34,1.09-4.74,2.05-7.16,3.09-.53-1.62.09-2.95.36-4.32.51-2.59.35-2.79-2.38-3-.47,0-.95,0-1.42,0-4.86-.1-4.87-.1-3.95,4.84.2,1,.29,1.82-1.17,1.9s-1.75,1-1.42,2.27c.18.68.42,1.35.74,2.36a6.56,6.56,0,0,1-1.31.14c-.71-.1-1.55-.37-2,.26-.59.82.07,1.61.58,2.22,2.3,2.8,4.31,6,8.56,6.13a7.59,7.59,0,0,1,2.36.73,92,92,0,0,0,17.1,4.58,13.14,13.14,0,0,0,6.29-.29,268.64,268.64,0,0,1,46.08-9.73c7.87-.87,15.72-2,23.68-1.77a9.45,9.45,0,0,1,5,1.47c3.49,2.23,6.74,4.8,10.07,7.27,9.12,6.74,16.65,15.07,23.9,23.69a6.09,6.09,0,0,1,1.66,5.5c-.6,2.89-.8,5.85-1.21,8.78-1.14,8.32-3.44,16.42-5,24.67a4.67,4.67,0,0,0,1.43,4.75c2.67,2.51,5.32,5.06,8,7.56a6.42,6.42,0,0,1,2.3,4.21c.93,8.34,2.14,16.65,2.45,25,0,.56,0,1.18,1,1.43,1.2-2.35,2.3-4.82,3.67-7.13,7.48-12.58,18.47-19,33.22-18.34,7.3.35,6.94.88,8.68,7,2.39,8.43,1.85,16.95-.37,25.27-2.39,9-6,17.48-13.51,23.63a61.09,61.09,0,0,1-9.2,6c-.78.43-1.86.57-2.13,2,3.63.89,7.46,1.26,10.75,3.25,2,1.2,3.58.87,5.36-.64a86.21,86.21,0,0,0,15.33-16.2c7.56-10.88,14.12-22.16,14.82-35.92C243.56,261.89,242.56,253.52,235.91,246.78Zm-125-94.36c-10.83-3-21.93-3-33-2.78a75.18,75.18,0,0,0-15.51,1.75,51.32,51.32,0,0,1,2.9-9.29,3.37,3.37,0,0,1,2.45-2.24c14-3.53,28-4.18,42-.65a21.18,21.18,0,0,1,6.82,2.88c2.85,1.93,3.76,4.83,2.64,7.68a3.94,3.94,0,0,1-3.37,2.75A13,13,0,0,1,110.9,152.42Zm9.57,2.71c-.77-.24-1.54-.5-2.74-.89,3.35-2.67,4.39-5.91,3-10.16,3.42.95,5.91,2.79,8.8,4.47l-1.17,2.93C126.19,156.87,126.19,156.87,120.47,155.13Z"/><path class="cls-14" d="M165.75,277.89a1.31,1.31,0,0,0-.09-.31c-1.25-.78-1.83,1.38-2.88.85-1.87-2.19,0-3.37,1.17-4.64-1.09-.77-1.65.51-2.62.21-1.87-4.16-3.11-9-8.75-10.67.18,1.59,1.21,1.87,1.88,2.46a15.42,15.42,0,0,1,4.3,6.4c.26.7.44,1.43-.4,1.84a36.07,36.07,0,0,0-10.61,7.62,31.54,31.54,0,0,1-2.55-8.57A5.49,5.49,0,0,1,147,268c1.31-1.16,2.62-2.34,4.32-3.86-6.24,1.67-8.61,5.37-7.52,10.82a69.18,69.18,0,0,0,2.74,8.78c.43,1.26.66,2.24-.92,2.85a4.94,4.94,0,0,0-1.66,1.31c-.49.54-1.62,1.08-.68,2,.69.66,1.27-.18,1.7-.67.69-.8,1.28-1.69,1.93-2.56,2.37,2.25.65,3-.54,3.88-.54.42-1.35.93-.81,1.68s1.21,0,1.75-.36.72-.89,1.52-.82c.11.41.25.85.36,1.29.46,1.91-2.67,1.53-2.21,3.5.5.36.84-.08,1.23-.27s.76-1,1.54-.37c.19,1.33.37,2.73.61,4.12a30.32,30.32,0,0,0,.83,4.16c1.14,3.54,3.69,4.77,7.21,3.57s4.86-3.83,5.58-7.15c1.11-5.09.12-10.14-.34-15.16C163.38,281.94,162.65,279.43,165.75,277.89Zm-17.3,6.19c-.34-.76,0-1.28.58-1.82a39.63,39.63,0,0,1,10.69-7,45.82,45.82,0,0,1,2.63,13.58c.05.65.15,1.28-.7,1.76-3.17,1.78-6.27,3.69-9.64,5.69C150.8,292.1,150.16,287.92,148.45,284.08Zm13.84,15.7c-.59,2.77-1.87,5.12-5,5.75-2.36.47-3.61-.18-4.41-2.41-.35-1-.39-2.08-.71-3.09-.41-1.28.13-1.93,1.2-2.54a61.26,61.26,0,0,0,9.09-6.42A32.77,32.77,0,0,1,162.29,299.78Z"/><path class="cls-14" d="M111.88,148a2.83,2.83,0,0,1-2.57-2.38c0-1.07,1.35-2.11,2.76-2.12a1.88,1.88,0,0,1,2.05,1.88A2.51,2.51,0,0,1,111.88,148Z"/><path class="cls-14" d="M95.14,143.33c0,1.36-.94,1.89-2.08,2a2.28,2.28,0,0,1-2.52-1.95,2.23,2.23,0,0,1,2.47-2A2,2,0,0,1,95.14,143.33Z"/><path class="cls-14" d="M76.22,144a2.42,2.42,0,0,1-2.38,2.19,1.77,1.77,0,0,1-2.11-1.83c.06-1.37,1.16-1.92,2.5-1.88C75.27,142.52,76.05,142.89,76.22,144Z"/><path class="cls-14" d="M82.71,144.93c-1.17-.07-2.07-.55-2.16-1.82-.07-1,1.4-2,2.55-1.82s2,.8,1.92,2.07S83.84,144.93,82.71,144.93Z"/><path class="cls-14" d="M101.73,142.36c1.08.12,1.89.52,1.87,1.7s-1,1.84-2.11,1.83A1.85,1.85,0,0,1,99.43,144C99.5,142.61,100.77,142.59,101.73,142.36Z"/><path class="cls-14" d="M120.56,265.37c-1.59-1.77-2.13-3.7-2.87-5.49a32.18,32.18,0,0,0-6.26-10.22c-.31-.33-.64-.65-1-.95a13,13,0,0,0-3-2.06c-1.11-.54-4.83-1.66-7.55-.82a13.37,13.37,0,0,0-7,5,9.86,9.86,0,0,0-1.75,3,43.89,43.89,0,0,0-1.54,5.8c-.49,1.76,0,3.76-1.62,6.06-.37-7.68,1-14,5.91-19.2,2.62-2.79,6.17-3.34,9.84-2.75a15.91,15.91,0,0,1,9.65,5.49c3.68,4.19,5.54,9.3,7.64,14.31C121.26,264,121.15,264.5,120.56,265.37Z"/><path class="cls-14" d="M29.84,245.91a6.5,6.5,0,0,0-4.24,2.7,14.77,14.77,0,0,0-2.57,5c-.09.28-.17.57-.24.85a23.31,23.31,0,0,0-.55,3c-.07.5-.12,1-.16,1.51,0,.17-.66,3.48-.7,3.45-1.34-.91-.9-2.22-.81-3.3a26.09,26.09,0,0,1,2.72-9.82c3.29-6.49,10.31-7.21,15-1.56a19.84,19.84,0,0,1,3.66,8c.77,3,.58,6.1,1.07,9.12.08.44,0,.94-.88,1.28-1.47-1.37-1-3.35-1.17-5.06-.31-4.18-1.18-8.15-3.61-11.66-.07-.09-1.17-1.08-2.45-2.18A5.28,5.28,0,0,0,29.84,245.91Z"/><path class="cls-14" d="M103.6,216.61a79.1,79.1,0,0,1,19.09,3.22c4.37,1.38,5.36,4,5.73,7.59.19,1.87.7,3.73.37,5.64-.42,2.5-1,3.3-3.6,3.56-3.17.32-6.37.48-9.55.56-10.91.27-21.66,1.46-32.06,5-4.12,1.41-5.15.77-6.6-3.32-1.61-4.56-1-9.08.39-13.55.66-2.07,2.38-3.17,4.18-4.12,4.14-2.19,8.67-3.07,13.21-3.81C97.78,216.91,100.87,216.84,103.6,216.61Z"/><path class="cls-14" d="M47.55,228.58c.13,3.83-1,7.47-1.66,11.18-.3,1.7-1.37,2.31-3,2.34a31.31,31.31,0,0,1-6.34-.59c-6.27-1.18-12.68-1.12-19-2-4.53-.65-5.83-2.42-5.32-7a61.39,61.39,0,0,1,1-7.71,3.47,3.47,0,0,1,3.59-3c3.54-.2,7.07-.49,10.6-.61,4.25-.15,8.5-.15,12.75-.21A17.42,17.42,0,0,1,42,221c4.71.4,5.61,1.41,5.58,6.21Z"/><path class="cls-14" d="M79.31,307.81c3.09,1.36,3.64,2.28,3.09,4.34-1,3.65-3.63,5.67-7,6.83a20.43,20.43,0,0,1-3.84.67,9.66,9.66,0,0,0-5.5,2.12c-2.09,1.85-4.83,1.88-7.42,1.79-7.39-.26-14-2.75-20.29-6.65-5.4-3.35-7.31-7.73-6.6-14,.67-6,2.06-11.56,5.54-16.59a131.42,131.42,0,0,1,8-10.84c4.07-4.76,5.55-10.31,5.57-16.42a18.45,18.45,0,0,1,.35-5.68c1.87,7.9,1.24,14.7-3,20.91-2.93,4.3-6.27,8.31-9.31,12.54-4.32,6-5.45,12.72-5.62,19.79a7.08,7.08,0,0,0,2.39,6c7,5.91,15,9.3,24.35,9.15a9.18,9.18,0,0,0,3.48-.53c1.13-.48,2-.8,1.23-2.51s.74-2.83,2.23-3.38a10.37,10.37,0,0,1,8.62.16c1.74.91,2.61.4,3.56-.8C80.71,312.8,81.74,310.75,79.31,307.81Z"/><path class="cls-14" d="M111.79,263.81c-.09.5-.2,1-.33,1.48a16.27,16.27,0,0,1-1.08,2.87,16.63,16.63,0,0,1-1.67,2.7,17.08,17.08,0,0,1-2,2.17c-5.26,4.82-11.81,3.55-14.72-3-1.55-3.49-1.48-7.15-1-10.8a28.78,28.78,0,0,1,1.16-5c.52-1.56,2.46-7.72,9.51-7.73a8.11,8.11,0,0,1,5.7,2.56,15.45,15.45,0,0,1,1.78,2.17,17,17,0,0,1,1.38,2.51,16.41,16.41,0,0,1,.94,2.74,16.74,16.74,0,0,1,.49,2.9,17.33,17.33,0,0,1,0,3A14.62,14.62,0,0,1,111.79,263.81Z"/><ellipse class="cls-15" cx="96.39" cy="256.42" rx="2.4" ry="3.05"/><path class="cls-14" d="M36.69,250a19.37,19.37,0,0,1,1.37,15.09c-1.26,4.18-4.06,6.71-7.26,6.78-3,.06-5.57-2.3-6.9-6.6-.32-1-.56-2.07-.78-3.12-.12-.57-.23-1.15-.35-1.72-.3-1.46-1-13.05,7.63-14.32C30.61,246.07,35,245,36.69,250Z"/><ellipse class="cls-15" cx="26.38" cy="255.02" rx="2.06" ry="2.77"/><path class="cls-16" d="M74.72,348.06c-6.09,0-9.18-2.47-9.9-6.88-.25-1.56.23-2.21,1.73-2.34,15.52-1.37,30.26-6,45-10.76,5.17-1.69,10.32-3.35,15.35-5.43a17.45,17.45,0,0,1,2.35-.77,1.26,1.26,0,0,1,1.31.33c.5.55.21,1.08,0,1.61a1.23,1.23,0,0,1-.17.32c-3.13,3.72-6.3,7.66-10.72,9.63-3.55,1.58-6.8,3.68-10.37,5.17-7.89,3.29-16.31,4.67-24.48,7A49.54,49.54,0,0,1,74.72,348.06Z"/><path class="cls-15" d="M72.3,341.94c.69.09,2.69,2.73,2.55,3.47a1.23,1.23,0,0,1-.6.8c-1.53.61-2-.67-2.63-1.61-.49-.76-1-1.67,0-2.45A2.19,2.19,0,0,1,72.3,341.94Z"/><path class="cls-14" d="M59.33,335.93c5.83,2.3,11.44,1.22,17,.36,11.35-1.76,22.28-5.24,33.27-8.47,5.77-1.69,11.5-3.57,17.23-5.39a17.62,17.62,0,0,0,2.94-1.24c2.57-1.36,2.59-1.53.46-3.76-.37-.39-.57-.8-.3-1.21a1.22,1.22,0,0,1,.91-.38,6,6,0,0,1,5.45,5.18,2.34,2.34,0,0,1-.7,1.92c-1.61,1.58-5,2.39-7.07,1.35-1-.48-1.55-.06-2.3.18-12.59,4-25.27,7.79-38.09,11-7.33,1.87-14.73,3.4-22.37,3.34a15,15,0,0,1-4.88-.76A2,2,0,0,1,59.33,335.93Z"/><path class="cls-14" d="M124.59,330.41a19.57,19.57,0,0,1-8.29,6.26q-5.39,2.28-10.94,4.09c-7.52,2.43-15.09,4.73-22.65,7a25.59,25.59,0,0,1-9,1.45,11.46,11.46,0,0,1-9-4.83c.89-1,1.44-.23,1.91.18a12.55,12.55,0,0,0,12,2.47A360.53,360.53,0,0,0,115,335.42a30,30,0,0,0,6.38-3.78C122.29,331,123.1,330.05,124.59,330.41Z"/><path class="cls-17" d="M279.75,171.58a107.73,107.73,0,0,1,15.11-27.93c5.07-6.87,12.1-11.52,19.3-15.88,9.63-5.84,20.32-8.7,31.21-11A156.26,156.26,0,0,1,383.06,114a3.73,3.73,0,0,1,2.37,1.45c2.4,2.57,5.42,3.22,8.75,2.84,1.6-.18,3.14-.09,4.31,1.09,2,2,4.56,2.83,7,4,12.86,5.88,25.3,12.41,35.07,23a73.15,73.15,0,0,1,6.17,8.22c3.5,5.07,7.61,5.61,12.2,1.63.85-.74,1.55-2,3-1A109.66,109.66,0,0,1,475,187.94c2,9.37,2.12,18.76,1.47,28.24a61.86,61.86,0,0,1-6.06,22.46,8.1,8.1,0,0,1-1.8,3c-3.19,2.45-4,6.3-6.05,9.45-.82,1.29-.08,2.23.36,3.29a38.29,38.29,0,0,1,2.24,19.86c-1,7.35-4.69,13.36-10,18.32a40.47,40.47,0,0,1-27.63,11.12,35.84,35.84,0,0,1-10.81-1.78c-1.86-.55-2.79-.11-3.65,1.56a89.62,89.62,0,0,1-9.77,15.6c-1.65,2.06-2.07,4.94-3,7.44-4,11.17-7,22.57-6.74,34.6a75.92,75.92,0,0,0,2.6,17.5,20.68,20.68,0,0,0,5.94,9.92c3.25,3.09,6.67,6,10,9,.65,1.72-.5,2.93-1.27,4.22-3,5.07-6.36,10-9.05,15.25a64.7,64.7,0,0,0-6.41,18.71c-.7,4.13-2,5.14-6,4.57a88.55,88.55,0,0,0-12.39-.5c-17.49,0-35-1.52-52.43-1.36a233,233,0,0,0-27.92,1.81l-1.05.14c-5.57.58-6.14-.18-5.53-5.72,1-9.11,2.57-18,7.09-26.17a10.79,10.79,0,0,1,1.45-2.42,3.1,3.1,0,0,1,1.16-.77c13.16-3.92,25.27-10.33,37.76-15.85,1.4-.62,2.84-1.16,4.27-1.71,5.21-2,7.24-5.52,6.52-11.2a21.25,21.25,0,0,1-.23-6,20.3,20.3,0,0,1,.34-2.82,4.51,4.51,0,0,0-1.35-4.51l-.48-.51-.43-.44a14.14,14.14,0,0,1-1.37-1.62c-.42-.56-.81-1.15-1.21-1.73l-2.22-3.3c-.09-.13-.17-.26-.26-.38s-.17-.29-.31-.28l-.92.07c-1,.1-2.07.23-3.11.36l-3.28.44c-.6.08-1.2.17-1.81.24a13.81,13.81,0,0,1-3.45-.25,38.4,38.4,0,0,1-7.84-1.86,59.3,59.3,0,0,1-7.32-3.18c-2.39-1.22-4.72-2.56-7-3.91-1.34-.78-2.67-1.57-4-2.34-7.09-4.11-12.3-10.32-17.89-16.05A101.88,101.88,0,0,1,261,292.73c-2.59-7-3.4-13.67-.19-20.62a46.14,46.14,0,0,0,2.34-7.43c.32-1.21.37-2.65,1.82-3.25,2.31.07,3.62,2,5.48,2.95,3.51,1.77,6.2,1.83,7.35,0,1.28-2,.2-4.89-2.69-7.25a11.58,11.58,0,0,0-4.77-2.14c-1.36-.31-2.81-.48-3.55-1.95a3.54,3.54,0,0,1-.18-2.1c2.4-9.29.27-18.3-1.92-27.23A18,18,0,0,1,265,213c4.09-11.72,8-23.48,15-33.93C281.79,176.39,280,174.07,279.75,171.58Z"/><path class="cls-17" d="M457.78,501.4c-.65-12.17-1.51-24.33-2.41-36.49-.72-9.91-1.71-19.8-2.55-29.7-.75-8.94-3-17.09-8-24.65-4.66-7.12-10.48-12.12-19.14-13.22-2.13-.65-3.3.61-4.38,2.15a46.2,46.2,0,0,0-7,15.79,83.39,83.39,0,0,1-3.83,11.4c-3.4,8.33-3.62,17-4,25.73a11.51,11.51,0,0,1,.3,4.21c-1.34,7,.07,13.61,2.55,20.11,2.19,5.35,5.51,10.18,7.16,15.78.74,2.54.59,5.31,2.07,7.65,3.29,14.63,6.91,29.19,9.77,43.92.2,1,.42,2,.63,3,10.65.59,21.33,1,32,1.19A103.54,103.54,0,0,1,459,533C458.58,522.46,458.35,511.92,457.78,501.4Z"/><path class="cls-18" d="M417.19,492.08a19.73,19.73,0,0,1,1.34,8.08,3.83,3.83,0,0,0-1.32,2.39q-2.52,7.88-5,15.76c-1.5,1.08-3.11.81-4.77.47a408.63,408.63,0,0,0-56.53-7.27c-10.37-.64-20.75-1.47-31.12-1.23-16,.37-32.12.52-48,3.18a12.22,12.22,0,0,1-4.59,0,3,3,0,0,1-2.28-3.54c.54-5.62,1.22-11.22,2-16.82a2.53,2.53,0,0,1,.95-1.46c7.62-2.68,15.61-3.69,23.54-4.82a345.58,345.58,0,0,1,64-2.86,387.13,387.13,0,0,1,57,6.22C414.06,490.54,415.85,490.71,417.19,492.08Z"/><path class="cls-19" d="M329.82,534.08A368.85,368.85,0,0,1,397,538.29c4.39.7,8.9,1.06,13.08,2.83-.21-2,.7-3.88.75-5.86.11-4.77,1.15-9.48.71-14.27a6.22,6.22,0,0,1,.71-2.68,12.57,12.57,0,0,1-2.46-.11,342.35,342.35,0,0,0-35.58-5.77c-9.61-1.17-19.26-1.92-28.9-2.54-8.95-.57-17.94-.45-26.91-.58-2.24,0-4.48.1-6.72.16-6.49.18-13,.09-19.46.61-8.34.66-16.64,1.82-25,2.76-2.64.42-3,2.57-3,4.53,0,6.84-1.27,13.62-.83,20.46a14.33,14.33,0,0,0,.2,2.38l8.15.18c8.71-1.63,17.49-2.79,26.3-3.84C308.6,535.29,319.19,534.35,329.82,534.08Z"/><path class="cls-18" d="M407.19,452.12a5.35,5.35,0,0,1,.68,4.41c-1.47,6.31-.26,12.31,1.76,18.25.22.66.31,1.36.47,2-1.82,1.19-3.69.45-5.47,0a333.31,333.31,0,0,0-39.72-7.4,270.94,270.94,0,0,0-53-1.33,222.38,222.38,0,0,0-36,5.83c-1.92.45-3.92,1.2-5.72-.42,1.45-5.62,1.52-11.46,2.76-17.12a17.59,17.59,0,0,0,.67-3.41c.13-1.45,0-3,1.79-3.7,6.81-2.1,13.9-2.79,20.92-3.59a299.15,299.15,0,0,1,39.91-2.32c22.34.43,44.55,2.32,66.47,6.92C404.3,450.61,406,450.85,407.19,452.12Z"/><path class="cls-19" d="M270.16,473.49c2.43.35,4.68-.5,7-1A242.52,242.52,0,0,1,311,467a267.47,267.47,0,0,1,35.47-.37A281.37,281.37,0,0,1,390,472.46c6.7,1.39,13.38,2.9,20.07,4.36,2.31,4.5,4.63,9,6.89,13.52a5.14,5.14,0,0,1,.2,1.74q-7.15-1.17-14.31-2.32c-7.81-1.24-15.67-2.07-23.53-2.87-14.6-1.49-29.22-2-43.88-2.06-8.52,0-17,.74-25.47,1.19-13.84.74-27.4,3.26-40.94,6a7.38,7.38,0,0,1-1.06.05c-1.14-1.35-.68-2.86-.43-4.36.34-2.06,1.2-4.07.5-6.21A42.32,42.32,0,0,1,270.16,473.49Z"/><path class="cls-19" d="M407.19,452.12c-5.63-.68-11.11-2.15-16.72-3-9.35-1.4-18.7-2.73-28.14-3.4-10.38-.74-20.77-1.49-31.18-1.28-10.17.21-20.31.76-30.44,1.84-8.59.93-17.08,2.37-25.59,3.7-1.56-3.09.14-6.27-.26-9.39,2.46-12.16,7.83-23,15.1-33,3-1.07,6-2.68,9.42-1.51-2.55,5.7-5.66,11.22-6.72,17.45-.9,5.29-1.4,10.65-2.12,16.27,9-1.08,17.6-1.88,26.19-2.15,7.79-.25,15.58-.79,23.35.24a21.36,21.36,0,0,0,3.19.2c13.82-.33,27.62,1,41.45.73a42,42,0,0,1,6.69.64c1.67.24,2.38-.43,2.59-2s.51-3,.83-4.52a68.49,68.49,0,0,1,8.7-21.2c2.42-4.06,5-8,7.5-12a5.9,5.9,0,0,0,1.11-2.19,30.58,30.58,0,0,1,13.56-.19,3.13,3.13,0,0,0-2.86,1.7c-3.71,5.26-6.59,10.89-7.71,17.28-.37,2.15-1.45,4-2.26,5.92C408.92,431.82,407.65,441.89,407.19,452.12Z"/><path class="cls-19" d="M461.94,155.15c-1.27-.33-1.53.81-2.12,1.48-3.92,4.51-10.18,4.37-13.21-.7-6.29-10.49-15.38-17.83-25.77-23.82a112.1,112.1,0,0,0-19.11-9.3,8,8,0,0,1-3.72-2.63,2.6,2.6,0,0,0-2.74-1.16c-5.2,1-9.29-.6-12.21-5.06-1.75-7.08,1.15-12.49,7.53-14.5a6.66,6.66,0,0,1,6,1.13c1.85,1.27,3.72,1.28,5.72,1.28A66.12,66.12,0,0,1,433,109c.73.37,1.57.6,2,1.39a3.46,3.46,0,0,1-2.63.82c-7.58.27-10.81,4.24-9.46,11.65,1.46,5.07,2.69,5.81,8.46,5.12a8.46,8.46,0,0,0,3.67-1,13.8,13.8,0,0,0,1.16-.85c.92-.73.61-1.67.44-2.59a3.16,3.16,0,0,1,1-3.22c3-2.2,1.65-4.1-.22-6a2.32,2.32,0,0,1-.55-2.41,4.92,4.92,0,0,1,3.26,1.18c7.9,5.2,15.52,10.76,22,17.73,2.63,2.84,5.12,5.9,6.29,9.68a7.62,7.62,0,0,1-4.26,9.34C460.79,151.39,460.73,151.54,461.94,155.15Z"/><path class="cls-20" d="M265.06,261.73c-1.64,5-3.18,10.1-4.94,15.09s-.38,9.58,1.23,14.16a95,95,0,0,0,19.78,32.85c3.91,4.27,7.79,8.57,12,12.52,9.85,9.21,21.49,15.24,34.42,18.9,1.36.39,2.86-.05,4.09.84a66,66,0,0,1-20-2,28.81,28.81,0,0,1-9-4.09,95,95,0,0,1-19.16-17.27q-5.59-6.4-11.56-12.48a67.29,67.29,0,0,1-14.22-21.4,36,36,0,0,1-2.63-11.66c-.64-9.29,1.28-18.1,4.64-26.63,2.19-5.6,2.18-11.28,1.36-17.07a6.26,6.26,0,0,1-.12-1.05c.16-7.92-1.15-15.79-.88-23.72a18.25,18.25,0,0,1,.75-4.87,130.19,130.19,0,0,1,11.59-27.33c2.78-4.79,4.89-9.95,7.3-14.95,3.08,4.22,3.08,4.87.32,9.12-5.64,8.72-8.91,18.49-12.63,28.08-2.34,6-3.3,11.81-1,18.12,1.63,4.42,1.59,9.29,2.08,14a22.44,22.44,0,0,1-.75,9.14,8.54,8.54,0,0,0-.53,3.12A13.06,13.06,0,0,1,265.06,261.73Z"/><path class="cls-21" d="M265.19,517.46c.06-1.76.31-3.54,2-4.62-1.41-.28-1.41-1.34-1.31-2.43a91,91,0,0,1,1-10.08c.55-2.76-.17-5.66,1.12-8.28a24.24,24.24,0,0,1,.45-5.55c.4-1.61.79-3.44-.38-5-.62,3.72-1.26,7.43-1.85,11.14A265.77,265.77,0,0,0,263,521c-.3,6.12-.5,12.25-1.19,18.36,0,.26,0,.52-.08.78l2.71.06C264.15,532.62,265,525.05,265.19,517.46Z"/><path class="cls-22" d="M299.38,406.11l-9.6,2.14c-3.4,2.44-7.1,4.26-9.8,7.86-3.68,4.9-4.4,10.34-4.54,16-.07,2.63.26,5.32.3,8a40.08,40.08,0,0,1-.62,9.9c-1.1.69-.39,2.31-1.53,3a34.78,34.78,0,0,1-2.45-10.21c-1.35-10.32-.39-20.31,5.27-29.35a20.23,20.23,0,0,1,11.75-8.64c6.18-1.79,12.24-4,18.54-5.36,5.33-1.16,10.28-3.4,15.23-5.65,6.76-3.06,13.56-6.08,20.43-8.89a5.69,5.69,0,0,0,3.69-4.67c.65-3.22,1.34-6.42,2-9.63a25.78,25.78,0,0,0,.61,2.77,15.6,15.6,0,0,1-1.24,12.29c-.42.83-.74,1.62-1.85,1.93-9,2.53-17.15,7.24-25.66,11C313.24,401.52,306.53,404.41,299.38,406.11Z"/><path class="cls-23" d="M422.23,123.42c-1.28-3.9-.76-7.49,2.08-10.52,1.89-2,4-3.62,7.13-2.68a14.71,14.71,0,0,0,3.53.21l1.83,1.46c.3.67.61,1.34.91,2a1.28,1.28,0,0,1-.49.49c-5.26,2.37-5.23,2.36-2.61,7.67.77,1.55,1.9,3,1.8,4.87l-.83.57c-1.57,0-1.75-1.36-2.3-2.31-.94-1.64-1.73-3.34-2.72-5-1.27-2.08-2.51-2-4.22-.43C425,121,424.43,123.18,422.23,123.42Z"/><path class="cls-24" d="M357.78,270.3a20.06,20.06,0,0,1-9.81-1.63c-3.69-1.48-4.16-3.78-1.56-6.83A18.45,18.45,0,0,1,353,257.1a45.17,45.17,0,0,1,17.46-3.84,15.07,15.07,0,0,1,5.18,1c4.52,1.5,5.4,5.63,2.12,9.1-4.31,4.55-9.83,6.3-15.82,6.95A37.24,37.24,0,0,1,357.78,270.3Z"/><path class="cls-25" d="M301.73,229.85c-2.09,8.33-4.07,16.39-7.72,24a106.46,106.46,0,0,0-7.53,21,13.3,13.3,0,0,0,.59,9c.86,1.94,1.67,3.9,2.54,5.91a1.84,1.84,0,0,1-2.8-.34c-2.92-3.25-4.78-6.74-4.47-11.46.43-6.64,2.71-12.7,5.15-18.68,3.58-8.82,6.25-18,11.22-26.27A6.4,6.4,0,0,1,301.73,229.85Z"/><path class="cls-26" d="M265.06,261.73a29,29,0,0,1,2.21-8.58,8.57,8.57,0,0,0,3,.85,12,12,0,0,1,7.47,4.35,6.5,6.5,0,0,1,1.64,3.83c.14,3.1-1.73,4.93-4.78,4.54a13.86,13.86,0,0,1-6.45-2.69Z"/><path class="cls-25" d="M348.25,231.09a3.43,3.43,0,0,1,3.44,3.62,4.1,4.1,0,0,1-4,3.69,3.45,3.45,0,0,1-3.61-3.48A4,4,0,0,1,348.25,231.09Z"/><path class="cls-25" d="M281.24,233.21a3.78,3.78,0,0,1-3.53,3.68,3.94,3.94,0,0,1-4-3.64,3.34,3.34,0,0,1,3.45-3.59A3.94,3.94,0,0,1,281.24,233.21Z"/><path class="cls-27" d="M275.74,440.09c-1.15-2-1-4.32-1.2-6.46-.48-4.35-.17-9,1.62-12.81,2.73-5.79,6.21-11.52,13.62-12.57a15.55,15.55,0,0,1-2.52,5,16,16,0,0,0-3.38,6.49,3.4,3.4,0,0,1-.7,1.58c-3,2.95-3.86,6.89-5.05,10.67C277.28,434.68,276.53,437.39,275.74,440.09Z"/><path class="cls-28" d="M422.23,123.42a34,34,0,0,1,4.41-5c2.19-1.79,2.57-1.81,4,.56,1.72,2.8,3.28,5.7,4.91,8.55-2.7,2.22-6,2.11-9,1.62C423.9,128.7,422.22,126.43,422.23,123.42Z"/><path class="cls-29" d="M436.41,126.94c-2.09-2.88-3.17-6.33-5.14-9.28a1.34,1.34,0,0,1,.67-2.26,12.63,12.63,0,0,1,5.77-1.49,6.72,6.72,0,0,1,2.53,2.83c.58,1.38.93,2.46-1,3.33-2.17,1-2.75,2.24-1.71,3.83C438.74,125.77,437.85,126.32,436.41,126.94Z"/><path class="cls-30" d="M428.62,124.12c-1.18-.12-1.62-.69-1.59-1.65a1.6,1.6,0,0,1,1.8-1.66c1,0,1.4.75,1.38,1.64A1.54,1.54,0,0,1,428.62,124.12Z"/><path class="cls-14" d="M407.67,442c2-14.18,6-27.35,12.74-39.61,1.11-2,2.16-4.09,4.23-5.39.53.79.1,1.27-.22,1.75-5.84,8.77-9.47,18.47-12.2,28.58a128.43,128.43,0,0,0-4.08,36.49c.19,8.6,3.35,16.41,8.35,23.39,2.08,3.34,2.19,13.59,2.19,13.59a21,21,0,0,1-2.15,5.94c-1.16,2.22-2.18,2.27-3.56.14a49.31,49.31,0,0,1-7-16.22,100.27,100.27,0,0,1-.12-43c.27-1.25.69-2.47,1.07-3.84a35.74,35.74,0,0,0-10-2.17c-7.4-.89-14.83-1.56-22.26-2.19a415.77,415.77,0,0,0-59.58-.72c-12.86.76-27.27,2-39.45,6.9-.44.17-1.29,7.16-1.75,7.27-1,.25.29-7.24.41-8.37a16.77,16.77,0,0,1,.4-2.44c3-12.45,8.5-23.8,15.25-34.58,1.45-2.32,1.59-2.37,4-3.93-.83,3.25-3.22,5.12-4.47,7.63s-2.85,5.18-4.21,7.8-2.76,5.24-3.91,8-2,5.56-3,8.35a60.63,60.63,0,0,0-2.54,8.85c4.85-1.6,9.26-3.47,14.14-4.25a57.1,57.1,0,0,1,.86-12.09c1.43-9.71,5.73-18.21,10.83-26.39a10.45,10.45,0,0,1,.81-1.16c.3-.36.67-.71,1.15-.25a.76.76,0,0,1,.12,1c-.41.72-.79,1.45-1.24,2.14a65.14,65.14,0,0,0-10.84,30.08c-.68,7.67-.85,6.57,5.68,5.61a208.69,208.69,0,0,1,26.88-2.15c11.12-.2,22.25-.24,33.37,0,7.44.18,14.86,1,22.29,1.61,3.3.26,6.59.61,9.89.93,2.41.23,2.5.67,3.15-2.48a90.19,90.19,0,0,1,10.24-26.72,74.22,74.22,0,0,1,6.79-10,10,10,0,0,1,3.94-3.43c.9.86.09,1.29-.33,1.76-10.11,11.19-15.94,24.47-19.21,39-.36,1.63-.1,2.39,1.72,2.51C400,440.27,403.79,441.35,407.67,442Z"/><path class="cls-14" d="M278.34,327l9.87,10.65a3.48,3.48,0,0,1,.89,2.26c.48,8.21-.05,16.3-2.82,24.13a14.71,14.71,0,0,1-1,2.25c-3.42,6.21-6.82,7.44-13.44,4.95-1.88-.7-3.78-1.34-5.68-2-7.12-2.45-9.76-6.63-8.75-14.09a19.17,19.17,0,0,1,3.1-8.22c.63-.93,1.35-1.8,2.59-1.19s.81,1.61.55,2.5a14.11,14.11,0,0,0-.09,8c1,3.34,2.82,4.62,6.28,4.4a8.45,8.45,0,0,0,7.87-6.92,28.89,28.89,0,0,0,.32-5.66c-.17-6.37.16-12.77-.53-19.13A1.92,1.92,0,0,1,278.34,327Z"/><path class="cls-14" d="M393.57,330.73c.71,3-.22,4.83-1,6.65-4.2,9.58-11,17-19.45,23a36,36,0,0,1-19.2,6.45c-3.17.19-5.8-.58-7.49-3.55-1.51-2.64-3.76-4.82-5.3-8,9.95-1.34,19.19-4.29,28.29-7.78S386.12,338,393.57,330.73Z"/><path class="cls-14" d="M434.82,281.07c2.52-.7,4.56-1.29,6.69-1.12,1.13.09,2.63.09,2.67,1.69.06,1.77-1,2.73-2.77,2.76-.43-1.17.76-1.52.89-2.36-.19-.16-.35-.4-.51-.4-5.75-.16-10.41,2.54-14.89,5.7-1.3.91-2.49,2-4,3.23a5.09,5.09,0,0,1,1.07-3.76c4.73-7.56,10.83-13.66,19-17.54a17,17,0,0,1,6.08-1.76,5,5,0,0,1,4.43,1.72,3.09,3.09,0,0,1,.57,3.3.93.93,0,0,1-1.12.64c-.35-.07-.41-.39-.47-.77-.45-2.92-1.29-3.62-4-3.17a23.36,23.36,0,0,0-11,5.3C435.53,276,435.13,278.32,434.82,281.07Z"/><path class="cls-14" d="M351.34,270.18a6.07,6.07,0,0,1-5.62-1.25,4.65,4.65,0,0,1-1.24-6.54c1.54-2.59,3.5-4.65,6.84-4.72-1.62,1.43-3.51,2.52-4.75,4.37-2.06,3.07-1.43,5.25,2,6.63C349.5,269.05,350.72,268.86,351.34,270.18Z"/><path class="cls-14" d="M278.32,259.44a4.85,4.85,0,0,1,.72.83c1.07,1.91,1.9,4,.53,6s-3.64,1.47-5.55,1.14a12.28,12.28,0,0,1-7.83-4.61c1.7-.63,2.53.42,3.43,1a13,13,0,0,0,5.56,2.12c2.86.35,3.65-.49,3.42-3.32C278.52,261.56,277.73,260.61,278.32,259.44Z"/><path class="cls-14" d="M376.59,254.87c2.67.53,4.11,2,4.28,4.21.21,2.7-1,4.68-3.88,6.49.46-2.59,2.45-3.87,2.37-5.91S378,256.23,376.59,254.87Z"/><path class="cls-14" d="M265.53,253.5c1.88-1,1.88-1,4.41.17C268.2,254.36,268.2,254.36,265.53,253.5Z"/><path class="cls-14" d="M550.69,95.34c-5.05-10.63-17.57-16.63-29.08-14.3-4.07.82-5.13.76-9-.53-.33-.11-.67-.18-.68-.81,1.23-2.63,2.66-5.36,3.82-8.19a32.17,32.17,0,0,0-.06-24.91c-6-15-17-25.11-31.12-32.14a37.86,37.86,0,0,0-14.68-3.76,68.43,68.43,0,0,0-29.57,4.7c-11.44,4.53-21.39,11.2-27,22.81a54.5,54.5,0,0,0-3.43,8.55c-.77,2.66-.85,2.77-3.66,2.26-8.26-1.52-15.42.9-21.95,5.82a57.89,57.89,0,0,0-5.62,4.89,24.3,24.3,0,0,0-7.09,12.85c-1.65,8-.71,15.77,1.76,23.45a8.07,8.07,0,0,1,.82,3.35c-1.08-.59-1.91-1-2.74-1.48a43.11,43.11,0,0,0-21.07-5.34c-11.85.24-20.22,6.92-22.71,18.48-.27,1.24-.23,2.58-1.15,3.69a15.85,15.85,0,0,0-6.71-.67c-12,1.35-21.18,6.71-25.48,18.47-1.12,3.08-2.69,4.38-5.81,4.19a8.47,8.47,0,0,0-2.08.39c-10,2.11-17.46,8.15-23.6,16-4.19,5.34-5.27,11.5-4.07,18.13,1.71,9.46,11.29,15,19.63,12.57a20.19,20.19,0,0,0,9.68-6.23,57.33,57.33,0,0,0,9.75-14.76c.81-1.83,1.76-3.61,2.74-5.36a6.85,6.85,0,0,1,6.35-3.69c10.36-.36,18.12-6.22,21.71-16,.44-1.2.53-2.57,1.74-3.86,3.34,12.05,9.69,21.51,20,28.25a32.13,32.13,0,0,0,18.35,5.61c2.36,0,4.73.06,7.1.12a6.59,6.59,0,0,1,5.22,2.56,68.55,68.55,0,0,0,13.85,13.15c1.73,1.24,3.42,2.56,5.22,3.68,7.6,4.77,12.23,11.67,14.74,20.15a11.07,11.07,0,0,1,.41,5.22,235.39,235.39,0,0,1-6.16,25.86c-2.11,7.26-5.29,14.19-6.51,21.73-.84,5.25-2,10.46-2.83,15.71a237.33,237.33,0,0,0-3.07,45.27c.39,14.45,5.23,27.53,10.85,40.51,2.53,5.85,6.55,9.16,13.05,9.82,5.12.52,9-1,11.37-5.63a18.29,18.29,0,0,0,1.66-11.69,7.61,7.61,0,0,0-1.2-3.3A2,2,0,0,0,430,350a1.66,1.66,0,0,0-1,2.32,9.24,9.24,0,0,1,.34,3.51,8,8,0,0,1-2.69,5.62c-2.14,1.95-4,1.65-5.44-.88a38.55,38.55,0,0,1-1.87-3.82,88.65,88.65,0,0,1-5.76-20.45,144.26,144.26,0,0,1-1.26-38.93,116.92,116.92,0,0,1,8.3-33.64,23.7,23.7,0,0,1,9.85-11.7c6.78-4.08,14.06-6.13,22-4.65,6.35,1.18,10.53,4.59,11.36,11.31.2,1.63,1.08,2,2.45,1.5a7.94,7.94,0,0,0,2.35-1.48c7.15-6.15,10.9-14.26,12.93-23.16,2.21-9.66.15-18.8-4.79-27.28a2.66,2.66,0,0,1-.1-2.91,43,43,0,0,0,4.2-19.51c.91-.34,1.45.26,2,.57,11.89,6.19,27.26,1.85,35.12-7,3.2-3.6,5.29-7.79,3.9-12.67-.63-2.25,0-3.09,1.68-4.17a98.49,98.49,0,0,0,22.54-19.38,34,34,0,0,0,5.61-9C557.31,121.08,556.73,108.06,550.69,95.34ZM438.05,115.61c1.58,3.31,2.17,6.56-.23,9.76h0c-1,.76-2,1.21-2.67-.45a53.17,53.17,0,0,0-2.59-5.31c-2.29-4-2.33-4,2.16-5.4.1,0,.18-.15.26-.22h0A2.62,2.62,0,0,1,438.05,115.61Zm-6.8-5.06c2.12,0,3,.38,4.75,2.36l-1.73.43c-1.36-1.38-2.61-.29-3.89.16-3.11,1.11-5.08,3.83-7.67,5.89-.23-1.57,1-2.78,0-4h0A9.43,9.43,0,0,1,431.25,110.55Zm-37.49,3.93c-3.38-.53-5.63-1.75-7-5.1a44.09,44.09,0,0,1,15.68-.85c6.66.67,12.82,3.07,19,5.48h0c-.3,2.7-1.65,5.26-.93,8.11.13.53-.76.18-1.14.35h0A88.68,88.68,0,0,0,393.76,114.48Zm28.93,10.14h0c1-3.55,3.46-5.88,6.46-8a93.13,93.13,0,0,1,5.19,10.53c-1.76,1.6-3.86.86-5.78,1.13A11.73,11.73,0,0,1,422.69,124.62Zm16.84,8.84a25.58,25.58,0,0,0-5.86-3.25c-.11-.59-.13-1,.63-1.32a8.08,8.08,0,0,0,4.24-2.82,2.08,2.08,0,0,1,1.92.65A81.39,81.39,0,0,1,452,139.59C447.42,137.4,443.16,136.14,439.53,133.46Z"/><path class="cls-14" d="M384.53,209a7.21,7.21,0,0,1-2.66,8.32c-1.82,1.22-3.58.89-5.34-.07A35.14,35.14,0,0,1,369,211.4c-2.39-2.3-4.73-4.65-7.16-6.91a25.28,25.28,0,0,0-7.7-5c-6.56-2.64-12.06.18-13.5,6-.14.55-.13,1.2-1.12,1.58a10.68,10.68,0,0,1-3.64-4.34c-.88-1.89-1.31-3.65.08-5.91,1.58-2.58,2.89-5.4,4.29-8.14a4.37,4.37,0,0,1,3.2-2.45,14.23,14.23,0,0,1,5.28-.21c8.31,1.18,15.53,4.82,22.07,9.92,2.77,2.15,4.41,5.21,6,8.28a29.87,29.87,0,0,0,2.65,4.6C381.43,211.47,382.58,211.43,384.53,209Z"/><path class="cls-14" d="M352.22,226.07l-.17.05a10.23,10.23,0,0,0-1.89.9,26.61,26.61,0,0,0-2.37,1.53,12.07,12.07,0,0,0-1.63,1.32,16.25,16.25,0,0,0-1.69,2.09l-.15.2a20,20,0,0,0-1.2,1.84,3.67,3.67,0,0,0-.25.48c0,.05,0,.11-.05.16a.65.65,0,0,1-.13.23,10.61,10.61,0,0,0-1,2.09c-.16.36-.31.72-.5,1.07a5.64,5.64,0,0,1-.31.53c0,.05-.33.42-.32.43-.87-1.26-.17-2.27.17-3.12a22.65,22.65,0,0,1,5.46-8.21,11.49,11.49,0,0,1,16.53.32c1.69,1.72,2.82,4.05,5.83,4.09,1.23,0,.87,1.32.08,1.73-1.36.72-1.45,1.61-1,2.92s1.36,1.36,2.45,1.58c1.85.36,1.93.72.82,2.27a2,2,0,0,1-.24.26c-.76.65-.92,2.21-2.24,1.91-1.08-.25-.84-1.57-1.16-2.43a51.64,51.64,0,0,0-3.29-8.22c-2.15-3.72-5.18-6.1-9.65-6.25h-.12a9.77,9.77,0,0,0-1.08.06A4.92,4.92,0,0,0,352.22,226.07Z"/><path class="cls-14" d="M263.82,203.37c2.95,2.3,4.58,2.23,6.78-.72s4.16-6.29,6.3-9.4c3.52-5.12,8.8-7.07,14.46-5.55a3.69,3.69,0,0,1,3.08,3c.38,2.32.68,4.66.83,7a9.57,9.57,0,0,1-1.27,5.43c-2.16,3.79-2.25,3.82-5.75,1.1-4.48-3.47-9-3.05-12.78,1.28a22.8,22.8,0,0,1-3.88,4.09c-1.56,1.08-3.17,2.36-5.17,1.36a5.93,5.93,0,0,1-3.34-5.44A2.17,2.17,0,0,1,263.82,203.37Z"/><path class="cls-14" d="M282,225.09c-.86,0-4.9-.27-8.16,4.65-1,1.51-1.18,3.92-1.88,5.79a.31.31,0,0,1-.14.18.42.42,0,0,1-.25,0,4.38,4.38,0,0,1-1.46-.38,4.44,4.44,0,0,1-.84-.5l-.19-.16a.14.14,0,0,1-.07-.08s0,0,0-.07a.66.66,0,0,1,.06-.2c.25-.48.91-.3,1.33-.45,1.64-.61,2.22-2.6,1.42-4.6-.9-2.23-.86-2.43,1.4-2,1.39.29,1.67-.68,2.21-1.26a8.41,8.41,0,0,1,7.33-2.75,5.21,5.21,0,0,1,3.45,1.59c3.72,4,4.54,8.77,4,13.94a.84.84,0,0,0-.08-.2l-.09-.24c-.07-.17-.13-.35-.19-.52-.11-.34-.22-.69-.31-1-.2-.69-.37-1.39-.54-2.09a35,35,0,0,0-1.19-4.18,14.46,14.46,0,0,0-2.24-3.78,6.65,6.65,0,0,0-1.39-1.18,2.86,2.86,0,0,0-.42-.24,3.32,3.32,0,0,0-.93-.27A3.63,3.63,0,0,0,282,225.09Z"/><path class="cls-14" d="M297.65,235.8c-.08,1.78-1,3.15-1.68,4.62-5,11.09-9.54,22.37-11.91,34.38a18.71,18.71,0,0,0,.12,8.77,11.94,11.94,0,0,0,5.43,7.18,27.84,27.84,0,0,0,16.16,4.33c1-.05,2.11-.33,3.1.28-.18,1.1-1,1.17-1.87,1.24a27.9,27.9,0,0,1-19.11-5A13.45,13.45,0,0,1,282,280.4c-.13-4.82,1-9.37,2.28-13.92A123,123,0,0,1,297.65,235.8Z"/><path class="cls-14" d="M325.42,279c1.55-.41,2.33.71,3,1.73,2.76,3.94.79,10.94-3.83,12.07a16.92,16.92,0,0,1-9.33-.1c-1.95-.66-2.92-2.25-2.58-3.72s2-2.4,4-2.24c2.47.2,4.66,1.08,5.64,3.58.67,1.74,1.57,1.35,2.68.6a6.8,6.8,0,0,0,1.41-10.14C326,280.3,325.14,280.08,325.42,279Z"/><path class="cls-14" d="M287.36,238.61c-2.43,23.71-20.11,8-14-7.69a8.38,8.38,0,0,1,9.78-5.43C287.37,227.77,287.51,234.29,287.36,238.61Z"/><ellipse class="cls-20" cx="275.35" cy="232.83" rx="1.11" ry="1.54"/><path class="cls-14" d="M354.48,227.45c12.6,5.8,2.72,36.54-9.72,22.34C339.81,242.89,343.58,222.3,354.48,227.45Z"/><ellipse class="cls-20" cx="346.38" cy="234.74" rx="1.11" ry="1.54"/><path class="cls-16" d="M320.47,331.39c-3.12.89-6-1.19-8.93-2.52s-4.11-6.68-2.3-9.62a2.58,2.58,0,0,1,3-1.19c9.7,1.65,19-.19,28-3.66,3.54-1.36,5.76-4.41,8.06-7.26.36-.46.55-1.06.92-1.51a1.23,1.23,0,0,1,.94-.35.93.93,0,0,1,.87.94,5.13,5.13,0,0,1,0,1.41c-2.27,9.95-8.8,19.42-19.42,21.7-2.53.55-5,1.44-7.51,2A18.68,18.68,0,0,1,320.47,331.39Z"/><path class="cls-31" d="M310.67,324.55a19.57,19.57,0,0,1,.48-1.94c.25-.69.72-1.21,1.56-1s.82.77.81,1.36a6.07,6.07,0,0,0,.25,2.74,1.3,1.3,0,0,1-.78,2c-1.24.48-1.65-.56-2.05-1.33A5.73,5.73,0,0,1,310.67,324.55Z"/><path class="cls-14" d="M303.66,313c.71-.47,1.1-.07,1.43.16,6.09,4.4,13,5.52,20.25,4.8a34,34,0,0,0,19.36-8,17.56,17.56,0,0,0,4.17-5.24c.83-1.57,1.71-3.06-.26-4.68-1.07-.87-.52-1.95.93-2.13a6.92,6.92,0,0,1,6,2.37,2.1,2.1,0,0,1-.43,3.36,8.14,8.14,0,0,1-2.52,1.25,6.16,6.16,0,0,0-3.11,2.24c-5.94,7.47-13.89,11.07-23.17,12.3A31.41,31.41,0,0,1,309,317.13C306.94,316.2,304.81,315.18,303.66,313Z"/><path class="cls-14" d="M308.82,319.42c.53,1.1-.29,2-.36,3.06-.2,2.88.69,4.77,3.29,6.08a11.78,11.78,0,0,0,3.67,1.23c8.19,1.06,16,.11,23.12-4.49,3.59-2.32,6-5.6,8.31-9.06.62-.93.94-2.13,2.35-2.88.36,1.91-.65,3.1-1.36,4.3-4.71,8-11.92,12.18-20.85,13.78a36.65,36.65,0,0,1-11.64,0,11.73,11.73,0,0,1-5.82-2.4C306.4,326.47,306.14,322.79,308.82,319.42Z"/></g></g></svg>