<?xml version="1.0" encoding="utf-8"?>
<!-- Generator: Adobe Illustrator 25.1.0, SVG Export Plug-In . SVG Version: 6.00 Build 0)  -->
<svg version="1.1" id="Capa_1" xmlns="http://www.w3.org/2000/svg" xmlns:xlink="http://www.w3.org/1999/xlink" x="0px" y="0px"
	 viewBox="0 0 541.2 551.7" style="enable-background:new 0 0 541.2 551.7;" xml:space="preserve">
<style type="text/css">
	.st0{clip-path:url(#SVGID_2_);}
	.st1{fill:#B68969;}
	.st2{fill:#1570D1;}
	.st3{fill:#FFDC80;}
	.st4{fill:#C2926C;}
	.st5{fill:#C2976D;}
	.st6{fill:#C3986D;}
	.st7{fill:#C18C6A;}
	.st8{fill:#D1AA66;}
	.st9{fill:#24244E;}
	.st10{fill:#FDDA80;}
	.st11{fill:#845839;}
	.st12{fill:#94233F;}
	.st13{fill:#F4D07A;}
	.st14{fill:#FFFFFF;}
</style>
<g>
	<g id="ILUSTRACIONES_2">
		<g>
			<defs>
				<rect id="SVGID_1_" width="541.2" height="551.7"/>
			</defs>
			<clipPath id="SVGID_2_">
				<use xlink:href="#SVGID_1_"  style="overflow:visible;"/>
			</clipPath>
			<g class="st0">
				<path class="st1" d="M424.8,557.8l-1.4-0.2c0.2-1.2,0.3-2.5,0.3-3.8c0-1.1,0-2.2,0.1-3.3c0.2-2.5,0.4-5.1,0.5-7.6
					c0.5-7.6,3.5-12.9,9.5-16.5c6.4-3.8,10.9-8.1,10.2-16.4c-0.3-3.5,1-7.5,5.8-8c3.7-0.2,6.2,2,8.6,4.5c1.6,1.8,3.2,3.6,5.7,4.2
					c5.6,1.3,10.8,4,16.1,6c2.1,0.9,4.3,1.3,6.5,1.3c8.1-0.5,16.2,0.3,24.3,1.1c1.6,0,3.2,0.6,4.4,1.7c2.1,2.2,4.2,4.9,3.8,8
					c-0.5,3.3-4,2.3-6.3,3.1c-2.6,0.8-6.7,0.8-6.1,4.6s4.5,3,7.2,2.6c3.7-0.8,7.5,0.5,9.9,3.4c2.3,2.6,4.3,5.4,6.1,8.4
					c0.5,0.8,0.9,1.5,1.3,2.3c0.1,0.3,0.3,0.6,0.5,0.8c0.2,0.1,0.3,0.3,0.5,0.4c0.4,0.9,0.3,1.9-0.4,2.6c-1,0.7-2.2,1.1-3.5,1.1
					C494.1,561.1,459.2,561.5,424.8,557.8z"/>
				<path class="st1" d="M120.5,531.8c9.8-0.8,19.7-2.5,29.4,1c3,1.1,5.5-0.3,6.2-3.5c0.6-2.8,2.2-4.9,3.6-7.2
					c6.2-9.8,14.6-18.3,17.9-29.8c0.5-1.3,1.3-2.6,2.3-3.7c2.4-3.4,5.4-5.2,9.8-4.4c3.1,0.6,6.6,1.1,9.2-1.4c3.1-3,6.4-2.6,10.2-1.9
					c10.3,1.6,20.6,4.1,31,4.3c0.4-1-0.1-2.2-1-2.8c-7.7-6.2-16.8-10.3-24.2-17.1c-4.3-3.9-10-6.7-14.2-11.1l-3.1-3.1
					c-2-2-3.9-4-5.9-5.9l-5.9-5.9l-5.9-5.9l-5.9-5.8l-6-5.9l-5.9-5.9l-5.9-5.9c-2-2-3.9-4-5.9-6l-1.5-1.5c-0.4-0.3-0.7-0.8-0.8-1.3
					c-0.2-1,0.1-2.1,0.8-2.8c1-0.9,2.1-1.5,3.4-1.9c4.1-1.7,7.8-4,11.1-7c0.2-0.2,0.4-0.4,0.6-0.5c0.5-0.3,0.9-0.7,1.3-1.1
					c0.6-0.5,1.1-1,1.7-1.6c2.3-2.2,4.6-4.5,6.7-6.9c4.3-4.7,8.2-9.7,12.4-14.6c1-1.1,1.5-2.5,1.4-3.9c-0.1-6.2,0.7-12.4,0.7-18.7
					c0-10.1-0.7-20.1-0.7-30.2c-0.1-10.5,0.2-21.1-0.4-31.7c-0.9-19.3-3.1-38.6-6.4-57.6c-1.2-6.6-1-6.6-7.5-7.8
					c-5.4-1-10.7-2.6-14.3-7.1c-3.1-3.9-5.8-8-8.1-12.4c-5.4-10.5-7.9-21.9-10.2-33.3c-0.5-3,0-6.1,1.4-8.9c1.7-3.6,3.6-4.4,7.3-2.9
					c1,0.4,2.1,0.9,3.1,1.4c0.8,0.3,1.6,0.7,2.3,1.3c0.7,0.8,1.6,2.4,2.3,0.7c0.5-1.4,1-2.8,1.2-4.3c0.5-2.9,0.9-5.9,1-8.8
					c0.8-12.7,0.3-25.5,2.6-38s7.6-25.1,17.7-32.8c3.6-2.6,7.5-4.8,11.6-6.6c4.3-2,8.8-3.7,13.3-5.2c1.9-0.7,3.8-1.3,5.8-1.8
					c1.7-0.5,3.6-1.3,5.4-1.3c0.6,0.1,1.2,0.1,1.9,0c4.9-0.8,9.8-1.2,14.7-1.4c10-0.1,20,1,29.8,3.2c9.5,2.1,19.1,5,27,10.7
					c3.8,2.8,7.1,6,10.1,9.7c2.3,2.8,4.4,5.7,6.4,8.7c1,1.5,2,3,3,4.6c0.3,0.5,1.3,1.6,1.2,2.2s-0.8,1.1-1,1.6
					c-0.6,1.7,0.3,3.5,0.9,5c3,8.1,5.8,16.3,9.4,24.2c2.3,5.5,3.5,11.3,3.4,17.2c0.1,8.7-0.5,17.6,2.3,26.1c2.3,7,4.1,14.1,6.3,21.1
					c1.1,2.9,1.6,5.9,1.6,8.9c-0.8,17.7-1.4,35.4-1.9,53.2c-0.2,8.2,0.2,16.7-3.1,24.6c-2,1.9-4.3,3.3-6.9,4.2
					c-5.7,2.5-11.5,4.6-17.5,6.2c-4.2,1-7.2,2.9-9,6.8c-1.2,1-2.2,2.3-2.9,3.8c-4.6,10.2-9.8,20.1-12.8,31c-0.9,3.4-2.4,6.7-2,10.3
					c1.1,8.7,2.7,17.4,4.9,25.9c0.4,2.1,1.8,3.8,3.8,4.6c15.3,6.9,30.4,14.1,45.2,22c2.1,1.1,4.6,1.4,6.9,0.8c0.5,0,1,0.2,1.4,0.5
					c1.7,1.4,2.3,3.4,3,5.3c3.7,9.5,7,19.2,10.8,28.7c1.9,4.8,4,9.4,4.7,14.5c1.4,10.8,2.6,21.5,2.2,32.4c-0.3,11-3.8,21.2-12.4,28
					c-11.3,9-24.8,13.9-39.3,12c-15.2-2.1-29.9-6.5-43.3-14.4c-1.5-1.2-2.5-2.9-3.6-4.4c-1.4-1.8-3.2-4.1-5.4-2.5
					c-1.9,1.3,0.2,3.4,1,5.1c5.1,10.9,12.3,20.6,17.9,31.2c0.1,0.2,0.1,0.3,0.2,0.4c2.5,4.7,5.2,9.2,8.1,13.8
					c1.4,2.2,2.9,4.4,4.4,6.6c0.8,1.1,1.5,2.2,2.3,3.2c0.6,0.8,1.4,1.5,2,2.3c0.7,1.1,1.7,2.1,2.8,2.8c0.6,0.3,1.2,0.7,1.7,1
					c1.2,0.8,2.3,1.6,3.4,2.5c1.1,0.7,1.9,1.8,2.4,3c0.5,1.3-0.1,2.7-1.3,3.3c-0.6,0.1-1.1,0.2-1.7,0.1c-1.4-0.2-2.8-0.3-4.1-0.4
					c-1-0.1-1.8,0.2-2.8,0.2c-2.8-0.1-5.6-0.3-8.5-0.5c-5.6-0.3-11.3-0.6-16.9-0.8c-11.3-0.4-22.6-0.7-33.9-0.8
					c-11.3-0.1-22.6-0.2-33.9-0.1s-22.6,0.2-33.9,0.3c-3,0-6,0.1-9,0.1c-5.2,0.1-10.4,0.2-15.6-0.2c-3.9-0.2-8.4-0.3-11.2-3.4
					c-0.9-1.1-1.6-2.4-2.1-3.7c-3.9-7-7.6-14.2-11.3-21.3C115.8,531.7,118.6,532,120.5,531.8z"/>
				<path class="st2" d="M115.4,534.8c1.1-1.2,2.7-1.8,4.3-1.8c8.4,0,16.8-2.6,25.2-0.2c1.7,0.5,3.4,0.9,5,1.4
					c3.7,1,7.1-0.6,7.5-4.4c0.3-2.6,1.7-4.3,2.9-6.3c3.5-6.3,8.6-11.5,12.4-17.5c2.1-3.6,3.8-7.4,5.1-11.3c0.9-2.4,2.3-4.6,3.9-6.5
					c1.7-2.4,4.7-3.5,7.5-2.8c4.2,0.8,8.9,1.6,12.2-3c0.9-1.3,2.6-1.4,4.4-0.9c8.9,2.5,18.2,2.6,27.1,4.9c2.3,0.6,4.9-0.8,7.3,0.7
					c0.9,0.5,1.7-0.6,2.2-1.4c0.4-0.7,0.3-1.6-0.4-2.2c-0.8-1-1.7-1.9-2.8-2.6c-3.7-2.1-7.6-4.1-10.4-7.6c-0.8-0.9-2-0.8-3.1-1
					c-2.8-0.4-5.1-1.5-6-4.6c-0.5-1.9-2-3.4-3.9-3.9c-5-1.3-8.6-4.7-12.1-8.2c-12.9-12.8-25.8-25.7-38.6-38.6
					c-2.2-2.3-4.6-4.4-7.2-6.3c-3.1-2.2-5.2-5.6-7.6-8.5c-3.1-3.8-7-6.9-10.2-10.6c-5.4,1.5-10.3,4.4-14.3,8.2
					c-2.5,2.5-5.7,4.1-9.1,4.9c-11.8,2.5-20.2,9.7-27.6,19.2c-5.7,7.3-7.6,14.8-7.4,23.8c0.2,16.9,2.5,33.7,7,50.1
					c2.9,10.3,5,20.8,8.4,30.9c0.6,2,1.4,3.9,2.4,5.7c1.3,2.3,3.6,3.3,5.7,1.9C108.5,534.1,112,534.9,115.4,534.8z"/>
				<path class="st3" d="M450.1,503c3.5,0.1,6.1,2.1,7.9,4.7c2,2.7,5,4.5,8.4,4.9c4.3,0.8,8,3.1,12,4.7c3.7,1.5,7.6,2.1,11.6,1.8
					c5.2-0.3,10.4,0.4,15.7,0.7c0.9,0.2,1.9,0.3,2.8,0.4c5.4-1,7.9,2.1,9.5,6.5c0.2,0.6,0.5,1.2,0.7,1.8c0,0.4,0,0.7-0.1,1.1
					c-2.6,0.4-5.2,0.8-7.8,1.3c-1.1,0.2-2.2,0.5-3.1,1c-2,1.1-3.2,2.8-2.6,5.1c0.4,2,2.1,3.4,4.2,3.4c2.1,0.1,4.3,0.4,6.2-0.2
					c2.4-0.8,4,0,5.7,1.3c1.3,0.9,2.5,2,3.6,3.2c1.5,1.7,2.9,3.5,4,5.5c0.3,0.5,0.5,1,0.8,1.5c0.2,0.2,0.3,0.5,0.3,0.8
					c0,0.2,0,0.5,0,0.7c0.2,1,0.9,1.9,1.8,2.4c1.2,0.5,2.4,0.7,3.7,0.6c0.4,0,0.8-0.1,1.1-0.3c0.6-0.5,0.7-1.3,0.2-1.8c0,0,0,0,0,0
					c-1.8-2.3-2.7-5.1-2.5-8c0.2-2.2-2-4.2-2.9-6.4c-3-6.9-6.2-13.7-9.4-20.4c-1.4-3-3.2-5.6-7.2-5.3c-1.3,0.1-1.9-0.7-2.2-2
					c-1.5-6.2-6.1-8.5-11.8-9.5c-4.4-0.8-8.9-1-13.3-0.9c-2.3,0.1-4.2-0.3-5.7-2.5s-3.8-2.7-6.4-2c-2.1,0.6-4.4,1-6.5,1.6
					c-1.8,0.6-2.9,0-4-1.5c-5.5-7.3-11-14.5-16.5-21.7c-1.6-2.2-3.3-4.3-5.1-6.3c-2.4-2.3-4.1-5.3-4.8-8.6
					c-2.6-11.6-7.5-22.4-12.3-33.2c-1.5-3.4-2.8-6.8-4.1-10.2c-1-2.6-2.5-4.4-5.6-4.3c-1-0.1-1.9-0.4-2.7-0.9
					c-18.2-9.5-37.7-15.5-57.1-22c-5-1.7-10.2-2.7-14.9-5.2c-1.8-0.9-3.7-0.6-5.6-0.5c-0.3,0.4-0.3,0.9,0,1.3
					c25.5,12.9,51,25.7,76.6,38.3c4.5,2,8.1,5.7,9.9,10.3c6.1,14.2,12.6,28.2,16.8,43.2c2.4,8.5,10,13.3,17.3,17.8
					c0.9,0.6,2.2,0.5,2.9,2c-1.4,2.2-4.1,1.9-6.2,2.7C451.8,500.2,449.1,499.9,450.1,503z"/>
				<path class="st3" d="M310.1,92.4c-4,0-4.5,0.4-3.3,3.8c3.2,9.3,6.7,18.6,10.6,27.7c2.3,4.9,3.4,10.3,3.2,15.8
					c-0.2,3.8,1,7.8,0.5,11.4c-0.9,7.3,1.5,13.8,3.3,20.5c2,7,4,14.1,6.1,21.1c0.5,1.4,0.7,2.8,0.4,4.2c-1.2,5.2-0.7,10.5-0.8,15.7
					c-0.2,13.4-1.2,26.8-1.1,40.1c0,7.3-1.1,14.6-1.8,21.9c2.8-1.3,3.6-3.8,3.8-6.7c1-13,2-26.1,3.7-39c1.3-10.1,2.1-20.3,3.2-30.4
					c0.1-1.3,0.5-2.5,0.7-3.8c0.4-1.9,0.3-3.8-0.4-5.6c-4-10.1-6.6-20.7-12.1-30.2c-0.6-1.3-0.9-2.7-0.7-4.2
					c0-6.6-0.1-13.1-0.2-19.7c0-1.4-0.2-2.9-0.6-4.2c-2.8-11.2-7-22-12.3-32.2C311.3,96.7,309.8,94.9,310.1,92.4z"/>
				<path class="st3" d="M294,291.9c-2.1,0-3.3,1.3-4,2.9c-4.7,11.3-10.4,22.1-13.7,34.1c-1.8,6.5-0.7,12.6,0.4,18.8
					c1,5.6,2.5,11.2,3.6,16.8c0.3,1.7,1.5,3.2,3.2,3.8c11.1,5.1,22.3,10.2,33.4,15.5c5.2,2.5,10.2,5.2,15.2,8
					c2.1,1.1,3.6,0.9,4.9-0.9c0.5-0.5,0.6-1.2,0.4-1.8c-0.2-0.4-0.5-0.7-0.8-1c-2.2-1.7-4.7-3-7.3-3.9c-1.9,0-3.8-0.4-5.5-1.3
					c-10.7-6.4-21.8-11.9-33.3-16.6c-3.2-1.3-4.8-3.3-5.2-6.6c-1.2-10.8-2.5-21.5-3.8-32.2c-0.3-2.5,0.1-5.1,1.1-7.5
					c3.4-7.7,6.6-15.5,9.9-23.3C293.1,294.9,294,293.5,294,291.9z"/>
				<path class="st4" d="M329.3,384c2.4,2,4.7,3.9,7.7,4.9c1.3-1.7,0-2.8-0.9-4.1L336,384C333.8,383.7,331.5,383.7,329.3,384z"/>
				<path class="st2" d="M336.1,384.8c0.3,1.4,0.6,2.7,0.9,4.1v-0.1c0.7,0.5,0.4,1.4,1,1.9c2.7,5.1,4.4,10.6,6.4,16
					c3.1,8.4,6.2,16.8,9.6,25c2.1,5,2.5,10.6,2.9,15.9c0.4,5.5,1.2,11.1,1.3,16.7c0,6.7-0.7,13.4-2.2,19.9c-0.3,1.1-0.7,2.1-1.2,3.1
					c-0.2,0.4-0.6,0.7-0.8,1.2c-6.6,13.5-19.2,17.8-32.4,21.3c-8.5,2.2-16.8,0.8-25-1.6c-10.9-3.1-21.9-6-31.7-11.9
					c0,5.7,4,9.2,7.2,13.2c6.6,4.2,9.5,11.2,13.3,17.5c5.4,6.8,9.6,14.5,14,21.9c1.2,1.7,2.1,3.6,2.9,5.6c0.3,1.4,1,2.7,1.9,3.8
					c3.2,3.4,8.2,5.4,12.6,6.5c5.7,1.4,11.6,1.6,17.4,1.7c29.4,0.7,59.1,1.2,87.8-5.3c1-0.2,2.6-0.9,2.7-2.1c0-0.3-0.1-0.5-0.2-0.7
					c-0.1-0.9-0.1-1.9,0-2.8c0.1-3.7,0.6-7.4,1.4-11c0.2-0.9,0.3-1.9,0.2-2.8c-0.6-4.8,1.3-8.3,4.9-11.3c2.4-2.1,4.9-4,7.7-5.6
					c1.6-1,3.2-2.1,4.6-3.4c1.7-1.1,2.4-3.1,1.9-5.1c-0.8-3.3,0.3-6.2,0.8-9.3c0.4-2.5,1.8-3.5,4.1-3.9c0.4-2.8,3.1-2.2,4.6-2.4
					c2.8-0.3,5.4-1.7,7.2-3.8c-0.3-1-1-1.8-2-2.1c-7.9-2.1-12.8-8.1-17.8-13.9c-2.7-3.2-2.9-7.7-4-11.7c-2.1-8.1-5.5-15.6-9-23.2
					c-2.5-5.4-5.1-10.6-7.1-16.2c-0.8-2.3-2.5-4.1-4.7-5.1c-25.6-12.7-51.2-25.5-76.7-38.3C339.1,385.6,337.6,385,336.1,384.8z"/>
				<path class="st3" d="M272.5,508.8c-2.8-4-5.6-8-7.6-12.5c-1.1-1.4-2.1-2.8-3-4.3c-1.5-3-4.2-3.6-7-4.2c-1.6-0.3-2.6,0.6-2.2,2.2
					c0.3,1.6,0.9,3.1,1.6,4.5c5.2,10.3,11.3,20,17.2,29.9c4.5,7.5,8.4,15.4,13.5,22.6c0.4,0,2.1,3,2.4,3.4c0.6,0.9,1.4,1.8,2.2,2.5
					c1.8,1.5,2.7,3.5,3.8,5.5c0.2,0.5,0.6,0.9,1,1.3c0.4,0.2,0.8,0.4,1.2,0.4c3.1,0.6,6.4,0.7,9.6,0.4c0.7,0,1.4-0.3,2-0.7
					c0.4-0.4,0.5-1.1,0.1-1.6c-0.2-0.2-0.4-0.2-0.6-0.3c-0.5-0.5-1-1-1.3-1.6c-4.5-6.4-8.4-13.1-11.9-20c-1.9-3.8-5.4-6.3-7.4-9.9
					C281.6,520.4,277.8,514,272.5,508.8z"/>
				<path class="st4" d="M337.9,390.8c0.1-0.8-0.3-1.6-1-1.9c0,0.6,0,1.3,0.1,1.9H337.9z"/>
				<path class="st5" d="M487.4,510.5c-2.3-0.7-4.7-0.7-7,0.1C482.9,513,485,509.4,487.4,510.5z"/>
				<path class="st6" d="M500.1,511.3c-2.5-0.7-5.2-0.7-7.8-0.1C494.9,511.8,497.5,511.9,500.1,511.3z"/>
				<path class="st7" d="M272.5,508.8c1,3,3,5.2,5,7.5c2.8,3.4,5.2,7.2,8.7,10c-2.5-5.9-6.4-10.9-10.4-15.8
					C275.1,509.4,273.8,508.8,272.5,508.8z"/>
				<polygon class="st8" points="301,236.9 301.1,236.6 300.9,236.6 				"/>
				<path class="st9" d="M178.5,133.6c2.7-2,5-3.6,7.3-5.4c1.7-1.2,2.8-3.2,2.7-5.3c0-6.1,0.1-12.1,0.2-18.2
					c0.1-6.2,0.2-12.5,0.6-18.7c0.2-1.7,1-3.3,2.1-4.6c10.9-13.7,24.7-21,42.6-21.2c15.7,0,31.2,3,45.8,8.8
					c7.3,2.8,14,7.6,20.6,12.1c2.4,1.7,3.8,5,5.5,7.7c2.5,4,3.4,4.2,6.7,0.9c6.5-6.6,11.2-14.3,15.4-22.5c1.4-2.7,1-4.8-0.6-6.1
					s-3.6-1-6,0.9s-3,2.1-7.6,1.9c1.1-1.7,2-3.1,3-4.5c5.7-7.8,10-16.4,12.7-25.7c1.9-6.6-1-10.7-7.8-10.8c-6.6-0.1-12.6,2-18.6,4.4
					c-5.2,2.1-10.2,4.6-15.6,7c-3.6-5.7-7.2-11.8-15.5-9.1c-1.1-3.5-1.9-6.8-3.2-9.8s-3.6-4.4-7.4-4.8c-13.3-1.6-24,3.9-34.1,11.3
					c-4.6,3.4-8.9,7.3-13.3,11c-1.6,1.3-3.2,2.6-5,4.1c-1-2.5-2.2-4.8-3.5-7.2c-2.4-3.8-4.1-3.9-8.3-2.5
					C180.7,33,170.5,44.8,163.8,60c-3.3,7.5-8.2,14.5-9.2,22.9c-0.5,4.1-0.5,8.2-0.6,12.4c-0.1,1,0.2,1.9,0.8,2.7
					c2.6,2.5,2,5.6,1.8,8.5c-0.4,5-0.8,9.9-1.3,14.8c-1.1,10.1-0.4,20.1,0.9,30.1c0.4,1.5,1.2,2.8,2.4,3.8c3.4,3.3,7.2,6.3,10.6,9.7
					c2,2.1,4.1,2.2,6.5,1.7c2.6-0.6,2.8-2.9,2.8-5C178.6,152.4,178.5,143.1,178.5,133.6z"/>
				<path class="st9" d="M248.9,496.6c-1.4-2.8-4.7-4-7.6-3c-5.9,1.9-11.3,0.1-16.9-1.2c-9.6-2.4-19.3-4.3-29-6.4
					c-0.9-0.2-1.8-0.4-2.7-0.6c-0.6-18.1-17.9-43.9-31.2-46c0.4,1.2,0.9,2.3,1.6,3.4c3.2,3.8,6.4,7.5,9.7,11.3
					c1.3,1.5,2.6,3.1,3.9,4.7l-0.7,0.7c-2.3-2.1-4.6-4.4-7-6.4s-5.1-4.3-7.9-6.3c-2.7-2-5.6-3.8-8.5-5.4c-2.8-1.5-5.2-3.9-8.4-4.6
					l-0.7,1.1c1.8,1.2,3.4,2.5,5.3,3.5c15.7,8.5,28.8,21,38.2,36.2c1.1,1.8,2.1,3.6,3.1,5.4c0.2,0.5,0.3,1,0.3,1.5
					c-0.4,0.2-0.9,0.7-1.2,0.6c-4.3-1-6.9,0.9-8.8,4.7s-4.1,7.2-5.9,11c-1.9,4.4-4.3,8.5-7.1,12.4c-4.8,6.3-10.1,12.4-12,20.9
					c-13.8-2.1-27.4-3.5-41-0.9l14,25.8c7.4-8.3,16.5-14.8,26.7-19.1c1.6,5,3,9.5,4.4,14.1l1-0.2c0.1-1,0.1-1.9,0-2.9
					c-0.6-2.5-1.2-5-2.1-7.4c-2.4-6.8-0.6-13,3.1-18.7s7.8-11.3,11.6-17c1.2-1.8,2.1-3.9,3.2-5.9c2.2-4.1,4.5-8.1,6.7-12.2
					c0.8-2,3-3,5.1-2.5c9.9,1.8,19.8,3.5,29.7,5.3c3.1,0.6,6.2,1.5,9.2,2.5c4.4,1.5,9.1,1.7,13.6,0.6
					C243.1,495.2,246,496.3,248.9,496.6z"/>
				<path class="st9" d="M325.5,384.7c2.6,2.6,5.6,4.9,8.9,6.7c3.6,2,5.6,4.9,7.1,8.6c8.1,19.3,13.9,39.1,15.5,60
					c0.4,5.7,0.1,11.5-0.8,17.1c-2.3,16.5-17,31.4-37.8,31.7c-10.4,0.1-20.2-2.3-30.1-5.1c-4.7-1.5-9.5-2.7-14.4-3.7
					c0.6,0.5,1.3,0.9,2,1.2c10.3,4.1,20.8,7.5,31.7,8.8c5.7,0.8,11.5,0.8,17.1,0c19.4-3.1,32.2-17.3,34.1-37.2
					c1.2-12.5-0.7-24.9-3.7-37c-3.9-16-8.6-31.8-16.9-46.2C334.5,383.1,334,382.9,325.5,384.7z"/>
				<path class="st9" d="M237.8,479.7c-3-2.3-5.9-4.8-9.1-6.9c-17.5-11.3-32.5-25.3-46.7-40.3c-3.9-4.2-8.3-8-12.4-12
					c-6.2-6.1-12.4-12.3-19.3-19.1l9.8-9.6h-20.1c1.4,2,2.9,3.9,4.6,5.8c8.3,8.6,16.7,17.2,25.2,25.7c8.2,8.3,16.5,16.5,24.8,24.7
					c12.2,12.3,26.4,22.2,40.8,31.7c0.5,0.3,1.1,0.6,1.7,0.8L237.8,479.7z"/>
				<path class="st9" d="M283.9,439.4c-2.5-3.8-5.6-5.2-8.6-6.4c-3.2-1.2-4.7-3.4-6-6.2c-11.8-26.1-23.2-52.2-30.2-80.1
					c-0.4-1.6-1.1-3.2-2-4.6c2.6,15.7,7.1,30.9,13.3,45.5c6,14.6,12.2,29.1,18.6,44.1l-10.7-1.2c2.7,3.1,5.8,2.1,8.2,3.1
					c2.7,1.2,5.4,2.5,8.2,3.4C277.3,438,280,438.5,283.9,439.4z"/>
				<path class="st9" d="M168.4,541.5c1.5-1.3,2.9-2.7,4.2-4.2c4.2-5.2,8.3-10.5,12.3-15.8c1.5-2,3-3.3,5.8-3.6
					c7.9-0.8,15.8-2.6,23.2-5.4c2.4-0.9,5.1-1.3,7.6-2.8c-0.6-0.3-1.3-0.4-2-0.5c-1.9,0.2-3.8,0.6-5.6,1.1
					c-8.1,2.9-16.5,4.9-25.1,5.9c-1.7,0.1-3.4,1-4.4,2.4c-5.5,7.4-11.2,14.7-16.8,22.1L168.4,541.5z"/>
				<path class="st9" d="M358.7,417.6c5.7,18.8,8.6,38.2,12,57.6c0.3-0.9,0.5-1.8,0.6-2.8c-0.5-4.9-1.3-9.8-1.9-14.7
					c-1.6-12.2-4.2-24.2-7.7-36c-0.5-1.5-1.1-2.9-1.6-4.4L358.7,417.6z"/>
				<path class="st9" d="M148.5,174c4.1-1.9,6.3,0.7,8.6,3.1c4.1,4.3,7.2,9.5,9.1,15.2c-2.8-0.7-4.2-4.6-7.6-2.8
					c1.8,1.6,3.4,2.9,5,4.4s1.4,4.5,5,4c0.2-1.5,0.1-2.9-0.1-4.4c-2-8.1-6.6-15.4-13.1-20.7c-1.3-1-2.7-1.6-4.3-1.8
					C149.6,170.8,148.5,171.6,148.5,174z"/>
				<path class="st9" d="M160.2,506c-12-13.7-27.3-19.7-44.4-22.2l-0.5,0.9c0.6,0.5,1.3,0.9,2,1.2c1.7,0.5,3.4,0.8,5.1,1.1
					c12.7,2.6,24.5,8.6,34.1,17.4c0.8,0.7,1.7,1.4,2.6,2C159.3,506.4,159.5,506.3,160.2,506z"/>
				<path class="st9" d="M236.1,277.6c-11.6-7.1-21.4-16.4-32.2-26.1C206.9,259,228.3,276,236.1,277.6z"/>
				<path class="st9" d="M190.4,540.4c5.6,0.4,25.6-7.2,33.4-12.3c-2.5-0.4-2.5-0.4-8,2.1c-2.8,1.2-5.5,2.5-8.3,3.6s-5.7,2-8.6,3
					S193.3,538.1,190.4,540.4z"/>
				<path class="st9" d="M296,286c-13.3,2.1-25.5,1.4-37.7-0.1C265,290.2,289,290.5,296,286z"/>
				<path class="st9" d="M284,363.5c1.4,11.8,2.3,22.8,6.5,33c0.7,0.1,0.9,0.1,1,0.1c0.1-0.1,0.2-0.3,0.2-0.4c-2-10.5-4-20.9-6-31.4
					C285.7,364.6,285.3,364.5,284,363.5z"/>
				<path class="st9" d="M509.4,533.3c2.5-0.3,5.1-0.6,7.6-1.1c6.9-1.2,6.8-1.3,10.2,5c1.1,2.2,2.5,4.3,4.1,6.1
					c-0.9-5-3.3-9.7-6.8-13.4c-0.6-0.5-1.4-0.8-2.2-0.7c-4.4,0.8-8.8,1.8-13.2,2.7L509.4,533.3z"/>
				<path class="st9" d="M161.8,558.9c0.4,0.1,0.7,0,1-0.3c0.4-0.4,0.6-0.8,0.7-1.3c0.3-1.2,0.6-2.4,1-3.6c0.2-0.3,0.3-0.7,0.5-1
					c0.2-0.8,0.4-1.6,0.5-2.5c0.2-1.5,0.4-3,0.5-4.4l-1-0.3l-2.1,7.2c-0.3,1.2-0.6,2.4-1,3.6c-0.1,0.4-0.4,0.6-0.6,1
					s-0.2,1.2,0.1,1.5C161.5,558.9,161.6,558.9,161.8,558.9z"/>
				<path class="st9" d="M482.5,512.4l27.2,1.2c-8.8-2.5-18.1-3.3-27.2-2.4L482.5,512.4z"/>
				<path class="st9" d="M228.9,507.5c1.2-0.2,2.4-0.5,3.6-0.6c2.5-0.4,5.1,0.2,7.1,1.8c3.1,2.3,6.6,4.2,9.9,6.3l0.7-0.7
					c-0.3-0.7-0.8-1.3-1.4-1.9c-3.2-2.4-6.5-4.5-9.9-6.5c-3.4-1.9-6.9-1.2-10.2,0.7L228.9,507.5z"/>
				<path class="st9" d="M440.6,467.8c0.6,7.3,1.7,14.5,3.5,21.6C445.4,485.7,443.2,471.9,440.6,467.8z"/>
				<path class="st9" d="M294.9,435.9l10.5-13C300.6,424.6,295.2,431.1,294.9,435.9z"/>
				<path class="st9" d="M481,501.9c-3.6-2-6.8-1.2-9.9,0.2l0.1,1.1L481,501.9z"/>
				<path class="st9" d="M141.4,502.6l8.2,2.4l0.3-1l-8.1-2.8L141.4,502.6z"/>
				<path class="st9" d="M180.6,555.8h-2.9c3.1-4.2,6.3-8.4,9.4-12.5c0.1-0.2,0.5-0.1,1.1-0.2c-0.1,3-1.9,5.1-3.5,7.2
					C183.5,552.1,182.1,553.9,180.6,555.8z"/>
				<path class="st9" d="M302.9,555.8c-0.8-1.2-1.5-2.3-2.2-3.5c-9.4-15.2-19.2-30.2-29.1-45.1c-3.4-5.1-7.1-10.1-10.9-14.9
					c-1.4-1.5-3.1-2.6-5.1-3.3c-2-0.7-4.1-0.9-6.1-0.8c-8.2,0.6-16.2-1.4-24.3-1.8c-8.6-0.5-17-4.4-26-2.3c1.1-1.1,2.5-1.8,4-2.1
					c2.5-0.2,5.1-0.1,7.6,0.2c8.2,1.1,16.4,2.2,24.6,3.4c6.9,1,14-0.2,20.9,1.6c2.5,0.7,4.5,1.6,5.9,3.6
					c7.3,10.5,14.9,20.8,21.9,31.5c7.3,11,14.3,22.2,21.1,33.4L302.9,555.8z"/>
				<path class="st9" d="M458.1,500.7c-8.3,1.5-11.5,7.1-12.5,14.7c-0.1,0.6-0.3,1.2-0.4,1.9c-2.6,13.2-7,25.8-11.2,38.5h-2.1
					c3.2-10.1,7-20.2,9.4-31.4c-3.6,3-6.2,5.3-8.9,7.4c-2.8,2.1-4.5,5.4-4.6,9c-0.3,5-0.8,10-1.2,15h-11.9c-0.9-9.4-1.9-18.7-3-28.1
					c-1.4-11.7-3.1-23.4-4.7-35.1c-0.4-2.6-0.8-5.2-1.2-7.8l0.9-0.1c5.4,17.3,6.2,35.4,8.6,53.3c0.8-3.1,1.3-6.2,1.5-9.4
					c0.3-3,0.6-6,1-9.1c0.4-3.2,0.6-6.4,1.2-9.5c0.5-2.9-0.5-6.1,1.3-8.8c0.4,4.3,0.5,8.5,0.2,12.8c-1,11.6-2.3,23.2-3.4,34.8
					c0,2,0.1,4.1,0.3,6.1c4.5-4.4,7.5-10.2,8.5-16.4c0.5-3.2,2.2-6,4.8-8c2.5-2,4.9-4.1,7.4-6.1c3.1-2.5,5.2-5.4,5.7-9.5
					c0.3-2.7,1.4-5.2,2.1-7.9c0.6-2.7,2.6-4.9,5.3-5.7c3.1-1.2,6.2-2.5,9.4-3.6c0.8-0.2,1.6-0.2,2.4-0.2
					C461.7,499.1,460,500.2,458.1,500.7z"/>
				<path class="st10" d="M289.5,151.4l0.2,0.4c0.2,0.4,0.4,0.8,0.7,1.2c0.2,0.3,0.5,0.5,0.7,0.8c1.2,1.7,2.4,3.4,3.7,5.1l0.1,0.1
					c1.4,1.9,2.4,4.1,2,6.2c-0.5,3.1,0.7,5.6,1.9,8.1c1.3,2.8,1.9,5.8,1.8,8.8c-0.2,1,0.3,2,1.1,2.5c1,0.5,1.8-0.2,2.5-0.8
					c3.1-2.8,5.2-5.8,2.3-10.5c-0.3-0.5-0.6-1-0.9-1.5c-0.1-0.2-0.2-0.3-0.3-0.4c-0.1-0.2-0.3-0.4-0.4-0.6l-0.8-1.3
					c-0.5-0.8-1-1.7-1.4-2.6c-0.8-1.5-1.5-3.1-2-4.7c-0.3-1-0.6-2-1-3c-0.4-0.8-0.9-1.5-1.5-2.2c-1.9-2.5-4-4.8-6.3-7
					c-0.8-0.8-1.6-1.5-2.6-2c-0.1-0.1-0.3-0.1-0.4-0.1c-0.4,0-0.5,0.7-0.4,1.1C289,150,289.2,150.7,289.5,151.4z"/>
				<path class="st9" d="M297.5,196.2c4.4,1.1,8.1,1.9,10.9-1.6c0.7-0.8,1.4-1.7,2-2.7c1.5-2.7,1.1-3.6-2-5.4
					c0.3-1.7,0.7-3.4,0.9-5.1c0.3-2.7-0.3-5.4-1.8-7.7c-1.9-3.3-3.6-6.7-4.9-10.3c-2.4-7.1-6.1-13-13.4-15.9c-2.5-1-3.7-2.9-4.6-5.2
					c-1.5-4-2.9-8.1-4.7-12c0.8,5.8,1.7,11.6,4.9,16.6c1,1.2,2.3,2.2,3.9,2.7c6,2.4,9.3,7.1,11.3,12.9c1.6,4.7,3.3,9.2,6.1,13.5
					c1.1,1.7,1.2,4.6,0.9,6.8c-0.6,4.5-2.9,8.6-6.4,11.4C299.5,194.9,298.5,195.5,297.5,196.2z"/>
				<path class="st9" d="M264.3,188.9c0.2,2.5,2.4,3.1,4,4.2c2.6,1.7,6,1.9,7.9,4.9c0.7,1.1,4.8,0.2,5.6-1c1-1.5,0.1-2.8-1-3.7
					c-3.8-3.4-8.7-5.4-13.8-5.8c-0.6,0-1.2,0.1-1.8,0.4C264.9,188,264.7,188.5,264.3,188.9z"/>
				<path class="st9" d="M258.6,193c-2.5-4.3-4.6-8.6-2-13.9c-2.9,1.8-3.3,2.4-3.1,5.2C253.8,188,254.5,191.5,258.6,193z"/>
				<path class="st9" d="M312,195.1c6.4-2.5,8.2-7,5.4-12.9c-0.3,2.6-0.2,5-1,7S313.8,192.7,312,195.1z"/>
				<path class="st9" d="M208.1,135.4c11.7-10.2,25-13.9,40.6-9.8c0.4-1,1.1-2.1,1.2-3.2c0-1.9-0.2-3.8-0.7-5.7
					c-0.9-3.5-2.8-5.6-6.8-6.2c-7.4-1.3-15-1-22.3,0.9c-1.7,0.4-3.2,1.3-4.4,2.5c-3.5,3.5-6.8,7.2-9.8,11.1
					C202.9,129.2,203.4,130.8,208.1,135.4z"/>
				<path class="st9" d="M324,130c-0.5-3.8-1.4-6.7-3.3-9.4c-3.9-5.8-9.9-9.8-16.7-11.1c-6.2-1.2-12.4-2.4-19.1-0.8
					c0.7,3,1.2,5.7,2,8.3c1.1,3.6,1.5,3.9,5.4,4c7.5,0,15,1.4,22,4.2c2.3,1,4.5,2.4,6.8,3.5C321.7,129,322.5,129.3,324,130z"/>
				<path class="st11" d="M276.1,257.8c9.8,2.1,19.5,1,29-2.3c1-0.3,2-0.7,3-1.1c1-0.5,1.9-1.2,2.6-2c0.4-0.4,0.7-0.8,0.9-1.3
					c0.1-0.2,0.2-0.5,0.3-0.7c0.1-0.2,0.2-0.5,0.2-0.7c0-0.1,0-0.2,0-0.3c0-0.3,0-0.6,0-0.9c0.1-1.3,0.1-2.7,0-4
					c-0.1-1.3-0.4-2.6-0.9-3.8c-0.3-0.6-0.6-1.2-1-1.7c-0.2-0.3-0.5-0.6-0.7-0.9c-0.1-0.1-0.2-0.2-0.4-0.4c0,0,0-0.1,0-0.1
					c0,0-0.1-0.1-0.1-0.1l-0.3-0.3c-0.6-0.6-1.4-1-2.2-1.2l-0.4-0.1c0,0-0.1,0-0.1,0c-0.1,0.1,0,0.2,0,0.2c0.3,0.4,0.6,0.8,0.7,1.3
					c0.1,0.3,0.1,0.6,0.1,0.9c-0.1,0.3-0.1,0.5-0.3,0.8c-0.2,0.4-0.5,0.9-0.8,1.3c-0.3,0.4-0.6,0.8-0.9,1.1
					c-0.3,0.3-0.7,0.7-1.1,0.9c-0.4,0.3-0.8,0.5-1.3,0.7c-0.4,0.2-0.9,0.3-1.3,0.4c-21.8,7.2-43.6,0.7-57.9-17.4
					c-0.2-0.2-0.3-0.4-0.5-0.6l-0.3-0.3c-0.2-0.2-0.4-0.5-0.6-0.7c-0.4-0.5-0.7-1-1-1.5c-0.3-0.5-0.6-1.1-0.9-1.6s-0.5-1.1-0.8-1.7
					s-0.4-0.9-0.6-1.4c-0.2,0.2-0.3,0.4-0.3,0.7c-0.2,0.8-0.3,1.7-0.3,2.5c0,0.1,0,0.2,0,0.3v0.1v0.3c0,0.3,0.1,0.7,0.1,1
					c0.1,0.7,0.2,1.4,0.4,2c0,0.2,0.1,0.3,0.1,0.5c0,0.1,0,0.1,0,0.2c0,0.1,0,0.1,0.1,0.2c0.1,0.2,0.2,0.5,0.3,0.7
					c0.2,0.5,0.4,0.9,0.6,1.4s0.4,0.9,0.7,1.4s0.4,0.9,0.7,1.4s0.5,0.9,0.7,1.3s0.5,0.9,0.7,1.3s0.5,0.9,0.8,1.3s0.5,0.8,0.8,1.2
					s0.5,0.8,0.8,1.2l0.8,1.2c0.3,0.4,0.6,0.8,0.9,1.1s0.6,0.8,0.9,1.1s0.6,0.7,0.9,1.1s0.6,0.7,1,1.1s0.6,0.7,1,1l1,1l1,1l1.1,0.9
					l1.1,0.9c0.4,0.3,0.7,0.6,1.1,0.9s0.8,0.6,1.1,0.8s0.8,0.5,1.2,0.8s0.8,0.5,1.2,0.8l1.2,0.7l1.2,0.7l1.3,0.7l1.3,0.6
					c0.4,0.2,0.9,0.4,1.3,0.6s0.9,0.4,1.4,0.6l1.4,0.5c0.5,0.2,0.9,0.3,1.4,0.5s1,0.3,1.5,0.5s1,0.3,1.5,0.4s1,0.3,1.5,0.4l1.5,0.4
					L276.1,257.8z"/>
				<path class="st12" d="M298.1,237.7c-3.8-8.5-11.9-11.6-19.6-14.7c-11.6-4.8-24.4-5.4-36.4-1.7c-1.1,2.1,0.2,3.7,1.3,5.2
					c5.6,7.7,12.4,13.1,22.4,13.6c1.7,0.2,3.4,0.5,5,0.9c6.3,0.5,12.6,1.4,19,0.7c1.8-0.6,3.8-0.6,5.6-1.4
					C296.5,239.8,298.1,239.6,298.1,237.7z"/>
				<path class="st13" d="M309.3,250.5c0.1-0.2,0.3-0.3,0.3-0.5c0.1-0.4,0.2-0.8,0.1-1.2c0-0.1,0-0.2,0-0.2c0-0.4,0-0.8-0.1-1.1
					c-0.2-0.9-0.5-1.7-1-2.5c-0.4-0.9-1.4-1.3-2.3-0.9c-0.9,0.4-0.6,1.3-0.3,2c0.4,0.9,0.6,1.8,0.7,2.7c0.1,0.2,0.1,0.5,0.2,0.7
					c0.1,0.2,0.2,0.4,0.3,0.6c0.2,0.5,0.8,0.8,1.3,0.8C308.9,250.8,309.2,250.7,309.3,250.5z"/>
				<path class="st9" d="M301.9,244.6c2.7-1.3,5.4-2.5,5.4-6.1c-0.1-0.1-0.1-0.2-0.1-0.4c0-0.2,0-0.3-0.1-0.4c0-0.2-0.1-0.3-0.1-0.4
					c-0.1-0.1-0.1-0.3-0.2-0.4l-0.1-0.2c0,0-0.1-0.2-0.1-0.2c0.2,0,0.5,0.1,0.6,0.3l0.1,0.1c0.3,0.2,0.5,0.4,0.8,0.6l0.4,0.3
					c0.1,0.1,0.1,0.1,0.2,0.2c0.1,0.2,0.3,0.3,0.4,0.4c0.2,0.3,0.5,0.6,0.7,0.9c0.4,0.6,0.7,1.2,1,1.8c0.5,1.2,0.8,2.5,0.8,3.9
					c0,0.7,0.1,1.3,0,2v1c0,0.1,0,0.2,0,0.3c-0.1,0.3-0.1,0.5-0.1,0.8c-0.2,0.8-0.5,1.5-0.9,2.1c-0.3,0.5-0.8,1-1.2,1.4
					c-0.2,0.2-0.5,0.4-0.7,0.6s-0.5,0.2-0.6,0.4c-1,0.7-2.1,1.2-3.2,1.6c-1.1,0.4-2.3,0.7-3.5,0.9c-1.2,0.2-2.4,0.4-3.5,0.6
					l-0.4,0.1c-19.8,3.7-36.5-1.6-49.5-17.4c-2-2.4-3.8-5-5.4-7.8c-0.8-1.4-1.6-2.7-2.3-4.1c-0.2-0.4-0.4-0.7-0.5-1.1
					c-0.2-0.4-0.4-0.9-0.6-1.3c-0.2-0.7-0.3-1.3-0.4-2c0-0.4-0.1-0.8-0.1-1.2c0-0.4-0.1-0.8-0.2-1.2c-0.1,0.2-0.2,0.4-0.2,0.6
					c0,0.7-0.1,1.4,0,2.1s0.1,1.4,0.1,2.1l0.1,1c0,0.2,0,0.4,0.1,0.5s0,0.2,0,0.3s0,0.1,0.1,0.2c0.1,0.6,0.3,1.2,0.4,1.8
					c0.2,0.6,0.4,1.1,0.6,1.7c0.2,0.5,0.5,1.1,0.8,1.6s0.6,1,0.9,1.5s0.7,1,1,1.5s0.7,1,1.1,1.4l1,1.3
					c14.9,19.6,37.4,26.4,60.9,18.5c0.4-0.1,0.8-0.2,1.1-0.3c6.6-2.5,7.9-4.6,6.9-11.5c0.1-4.2-2-8.1-5.5-10.4
					c-1.2-0.8-1.4-2.1-2.1-3c0.1-5.1-0.1-10.2,4.5-14.3c-4.2-0.4-8.1-0.9-12.1-1c-16.5-0.6-32.6-3.8-48.7-6.9l-3.9-0.7l-2-0.4
					c-0.2,0-0.4-0.1-0.6-0.1c-0.5-0.1-1-0.1-1.5-0.2c-0.7-0.1-1.4-0.3-2.1-0.5c-0.2-0.1-0.5-0.1-0.6-0.4c0-0.1,0-0.2,0-0.4
					c0.2-0.5,0.6-1,1-1.4c0.1-0.1,0.1-0.1,0.1-0.2c0-0.2-0.2-0.3-0.4-0.3c-1.3-0.1-2.6-0.1-3.9,0.1c-0.8,0.1-1.5,0.4-2.2,0.7
					c-0.5,0.2-0.8,0.6-1,1.1c-0.1,0.4,0,0.8,0.2,1.2c0.3,0.7,0.6,1.5,0.9,2.2c0.2,0.4,0.4,0.8,0.7,1.1c0,0.1,0.1,0.1,0.1,0.1
					c0.1,0,0.1-0.1,0.1-0.1l0.7-1.2c0,0,0.1,0.3,0.1,0.3s0.1,0.2,0.1,0.3s0.2,0.4,0.2,0.7c0.2,0.8,0.4,1.6,0.7,2.4
					c0.1,0.5,0.3,1,0.5,1.5l0.1,0.4c0.1,0.3,0.2,0.7,0.3,1c0,0.1,0.1,0.2,0.1,0.2c0,0.1,0,0.1,0.1,0.2c0.1,0.2,0.1,0.3,0.2,0.5
					l0.4,0.9l0.4,0.9c0.1,0.3,0.3,0.6,0.4,0.9s0.3,0.6,0.5,0.9s0.3,0.6,0.5,0.9s0.3,0.6,0.5,0.9l0.5,0.9c0.2,0.3,0.3,0.6,0.5,0.8
					l0.3,0.4l0.7,1.1c0.8,1.2,1.6,2.3,2.5,3.4c1.7,2.1,3.6,4.1,5.7,5.8c2.1,1.8,4.3,3.3,6.6,4.7c2.4,1.4,4.8,2.7,7.4,3.8
					C276.4,249,289.1,249,301.9,244.6z M297.1,238.5c-0.4,0.3-0.9,0.6-1.4,0.6c-7.9,1.5-16,1.4-24.1,0.8c-1.3-0.1-2.7-0.2-4-0.4
					s-2.7-0.4-4-0.6s-2.6-0.6-3.9-0.9c-0.6-0.2-1.2-0.3-1.8-0.6c-0.5-0.2-1-0.4-1.5-0.6c-1-0.5-2-1-2.9-1.6c-1-0.6-1.9-1.3-2.8-2
					s-1.8-1.5-2.6-2.3c-0.8-0.8-1.6-1.6-2.3-2.5c-0.7-0.8-1.3-1.7-1.9-2.6c-0.5-0.8-0.9-1.7-1.3-2.6c-0.1-0.2-0.1-0.3-0.2-0.5
					c0.2-0.2,0.5-0.4,0.8-0.5c11.1-3.6,22-2.7,32.8,0.9c3.2,1.1,6.3,2.5,9.3,4c2.5,1.2,4.8,2.7,6.9,4.5c1,0.9,2,1.9,2.9,3
					c0.5,0.5,0.9,1.1,1.3,1.7l0.3,0.4c0.1,0.1,0.1,0.3,0.2,0.4l0.1,0.1c0.2,0.1,0.3,0.3,0.3,0.6
					C297.4,238.1,297.3,238.3,297.1,238.5z M301.1,243.3c-0.3-0.1-0.6-0.2-0.9-0.3c-5.2,0.1-10.2,1.4-15.4,1.4
					c-6,0.1-11.9-0.9-17.5-2.8c-0.9-0.1-1.8,0-2.6-0.2c-0.5-0.1-0.1-0.5,0-0.4c1,0.9,2.3,0.4,3.5,0.6l0.5-0.1
					c6.6,0.4,13.3,1.4,19.9,0.8c1.6-0.1,3.4,0.1,4.9-0.8c2.4-0.2,4.7-0.5,6.1-2.8c1.8-1.2,3.6-0.8,5.5-0.2
					C305.8,242,303.1,242.3,301.1,243.3L301.1,243.3z"/>
				<path class="st14" d="M267.5,240.7c8.4,0.2,16.7,1.4,25,0.2c2.3-0.2,4.4-1,6.4-2.2c0.7-0.5,1.4-1.1,2.1-1.5
					c0.7-0.5,1.6-0.7,2.5-0.5c0.8,0.3,1.5,0.9,1.8,1.7c0.2,0.4,0.3,0.8,0.3,1.2c0,0.3,0,0.7,0,1c0,0.3-0.1,0.5-0.2,0.7
					c-0.3,0.7-0.8,1.2-1.5,1.4c-0.5,0.2-1,0.4-1.5,0.5c-0.7,0.2-1.4,0.4-2.1,0.5c-1.1,0.2-2.3,0.4-3.4,0.6
					c-10.4,1.9-20.6,2.2-30.6-2.1c-0.3-0.1-0.5-0.1-0.8-0.2c-0.3-0.1-0.6-0.2-0.9-0.4c-0.3-0.1-0.5-0.3-0.8-0.5l-0.4-0.3l-0.2-0.1
					c0,0-0.1-0.1-0.2-0.1C264.5,240.7,266,240.7,267.5,240.7z"/>
				<path class="st9" d="M238.3,146.8c0.9,0.7,1.8,1.5,2.6,2.4c0.5,0.5,1,1.1,1.5,1.6c0.3,0.3,0.5,0.6,0.8,0.9l0.4,0.4l0.2,0.2
					l0.1,0.1c-0.3-1.7-0.2-2.7-0.7-3.2c-1.6-1.8-3.1-3.7-5.1-4.9c-1.1-0.7-2.2-1.2-3.5-1.6c-0.5-0.2-1.1-0.3-1.6-0.4
					c-0.2,0-0.3,0-0.4-0.1c-0.4-0.2-0.8-0.2-1.2-0.2c-1.1,0-2.2,0.2-3.2,0.5c-2.3,0.7-4.4,2-5.9,3.9c-1.5,1.9-1.9,4.5-1,6.8
					c1.7-5.4,7-8.8,12.6-8.2c0.9,0,1.7,0.2,2.5,0.5c0.6,0.3,1.1,0.6,1.7,0.9L238.3,146.8z"/>
				<path class="st9" d="M304.9,140.9c-1.6,1.5-2.8,3.4-3.5,5.5c-0.1,0.4-0.3,0.7-0.5,1c-0.1,0.1-0.2,0.2-0.4,0.2
					c-0.3,0-0.5-0.1-0.6-0.4c-0.1-0.2-0.1-0.5,0-0.7c0.1-0.6,0.3-1.2,0.5-1.8c0.2-0.5,0.6-1,0.8-1.5c0.6-1.1,1.2-2.1,2-3.1
					c1.6-2.6,4.7-3.9,7.6-3.1c3.7,0.9,7,5.6,7,9.8c-1.5-2-2.9-4.1-4.6-6c-0.4-0.5-0.9-1-1.5-1.3c-0.3-0.2-0.6-0.3-0.8-0.5
					c-0.4-0.2-0.9-0.3-1.4-0.1c-0.6,0.1-1.2,0.2-1.7,0.4c-0.2,0.1-0.4,0.1-0.6,0.2C306.5,139.7,305.6,140.2,304.9,140.9z"/>
				<path class="st9" d="M236.2,151.4c-0.1-0.8-0.3-1.5-0.5-2.2c-0.1-0.4-0.3-0.9-0.5-1.3c-0.1-0.1-0.2-0.3-0.4-0.4
					c-0.4-0.4-0.7-0.8-1.1-1.2c-0.8-0.8-1.8-1.4-2.9-1.8c-0.3-0.1-0.7-0.2-1-0.3c-2.1-0.4-4.2,0.1-5.8,1.6c-1,1.1-1.7,2.4-2.2,3.8
					c-0.4,1.2-0.7,2.4-0.8,3.7c0,0.6,0,1.3,0.1,1.9c0.1,0.6,0.3,1.1,0.4,1.6c0,0.3,0.1,0.7,0.2,1c0.2,0.5,0.4,0.9,0.7,1.2
					c0.7,0.8,1.5,1.5,2.5,2c0.7,0.3,1.4,0.6,2.1,0.8c4,0.8,7.7-1,8.9-4.6c0.2-0.8,0.3-1.5,0.4-2.3c0.1-0.6,0.1-1.3,0.1-1.9
					c0-0.2,0-0.4-0.1-0.6C236.2,152,236.2,151.7,236.2,151.4z"/>
				<circle class="st3" cx="232.4" cy="149.2" r="1.5"/>
				<path class="st9" d="M309.1,139.9c1.6,0.9,2.7,2.4,3.2,4.1c0.6,1.6,0.7,3.3,0.3,5c-0.2,1.1-0.6,2.2-1.2,3.2
					c-0.3,0.4-0.6,0.8-0.8,1.3c-0.1,0.2-0.2,0.3-0.4,0.4c-1.1,0.8-2.4,1.2-3.7,1.1c-1.5-0.1-2.8-0.6-3.9-1.6
					c-0.4-0.3-0.7-0.7-0.9-1.1c-0.1-0.4-0.2-0.8-0.4-1.1c-0.5-1.2-0.7-2.5-0.6-3.7c0.2-1.6,0.6-3.2,1.4-4.6c0.4-1,1-1.8,1.8-2.5
					c1.3-0.9,2.9-1.1,4.4-0.5C308.7,139.8,309,139.8,309.1,139.9z"/>
				<circle class="st3" cx="309.2" cy="144.1" r="1.5"/>
			</g>
		</g>
	</g>
</g>
</svg>
