<svg xmlns="http://www.w3.org/2000/svg" xmlns:xlink="http://www.w3.org/1999/xlink" viewBox="0 0 153.84 117.83"><defs><style>.cls-1{fill:#ffce00;}.cls-2{clip-path:url(#clip-path);}.cls-3{fill:#ffef4f;}.cls-4{fill:#ffb300;}.cls-5{fill:#fff;}</style><clipPath id="clip-path"><path class="cls-1" d="M135.84,58.86a58.92,58.92,0,1,0-58.87,59A59.11,59.11,0,0,0,135.84,58.86Z"/></clipPath></defs><g id="TXT"><path class="cls-1" d="M135.84,58.86a58.92,58.92,0,1,0-58.87,59A59.11,59.11,0,0,0,135.84,58.86Z"/><g class="cls-2"><path class="cls-3" d="M25.28,100.43a104.66,104.66,0,0,1-5.13-39.94,28.07,28.07,0,0,1,.93-6.19,30.64,30.64,0,0,1,3.21-6.68A227,227,0,0,1,43.65,19.83a19.7,19.7,0,0,1,4.82-4.65A20.36,20.36,0,0,1,55.11,13q8.82-1.83,17.65-3.62L100,3.81c5.35-1.09,10.81-2.19,16.23-1.51,2.69.33,5.36,1.1,8.06.86.16-4-4.14-6.61-7.85-8.21q-8.73-3.75-17.6-7.17C89.89-15.65,80.46-18.86,71-17.7c-7.65.93-14.72,4.66-21,9.19a122.61,122.61,0,0,0-20.6,19.62C17.18,25.3,6.58,41.28,1.18,59.22a13.71,13.71,0,0,0-.81,5.51C.65,67.05,2,69.07,3.34,71l5,7.33a35.51,35.51,0,0,0,4.28,5.55,24.66,24.66,0,0,1,3.18,3.44c1.42,2,2.45,4.32,3.85,6.38A44.55,44.55,0,0,0,25.28,100.43Z"/><path class="cls-4" d="M121.23,16c-2.58-1.54-5.48-3-8.44-2.54l5.5,15.27c3.51,9.77,7,19.56,9.66,29.61a14.72,14.72,0,0,1,.66,6.09A15.19,15.19,0,0,1,126,70.06c-5.87,9-11.74,18-18,26.76-2.65,3.67-5.45,7.35-9.16,9.92a37.22,37.22,0,0,1-10.07,4.5,142,142,0,0,1-19.2,4.64c-4.78.8-9.77,1.42-13.84,4,8,3.57,17.15,3.51,25.91,2.84,9.52-.72,19-2.11,28.1-5.16,6.26-2.1,12.37-5.07,17.09-9.68,4.18-4.09,7.1-9.29,9.63-14.56a142.05,142.05,0,0,0,11.41-34.58c.75-3.85,1.33-7.84.49-11.67a25.62,25.62,0,0,0-3.4-7.72c-1.49-2.46-3.15-4.82-4.5-7.36a16.07,16.07,0,0,0-3.06-4.78,71.19,71.19,0,0,0-6.92-5.3q-4-2.84-8.19-5.39Z"/></g><path class="cls-5" d="M62.28,107.61A19.69,19.69,0,0,1,43.43,93.79a1.19,1.19,0,0,0-1.43-1,8,8,0,0,1-4.17-15.06c.88-.46.9-.91.66-1.71-.76-2.58-1.36-5.22-2.22-7.76-2.05-6,1.33-10.26,7.25-10.84,1.18-.11,1.92-.43,2.24-1.73a5.5,5.5,0,0,1,3.11-3.43A17.61,17.61,0,0,1,53,51.05a1.45,1.45,0,0,1,1.93,1.05A1.53,1.53,0,0,1,53.83,54c-.94.36-1.93.57-2.9.88a3.12,3.12,0,0,0-2.35,3.49c.12,1.54-.37,2.11-1.95,2.1a15.1,15.1,0,0,0-4.29.4c-2.78.77-4,2.69-3.28,5.47.35,1.4.8,2.77,1.15,4.17.22.87.63,1.22,1.55.89s1.68-.44,2.49-.73A10.64,10.64,0,0,1,54.5,72.32a8.29,8.29,0,0,0,7.28,1.25c1.35-.35,2.69-.73,4-1.11,2.64-.74,5.28-1.51,7.93-2.21.89-.23,1.16-.61.89-1.53-1.44-5-2.79-10-4.27-15-.76-2.54-2.58-3.47-5.16-2.82-1.63.42-3.25.89-4.87,1.33a1.58,1.58,0,0,1-2.14-.94,1.46,1.46,0,0,1,1.11-2,31.86,31.86,0,0,1,6.27-1.66c3.91-.44,6.65,1.32,7.82,5.09s2.09,7.41,3.13,11.11a8.82,8.82,0,0,1,.3,1.12c.15,1.2.8,1.48,2,1.47a7.94,7.94,0,0,1,7.53,11.14,8,8,0,0,1-3.58,3.84,1.4,1.4,0,0,0-.81,1.83A20,20,0,0,1,72.45,105,18.58,18.58,0,0,1,62.28,107.61Zm17-19.73c-.08-.81-.11-1.63-.24-2.43-.61-3.77-1.95-7.35-2.8-11-.27-1.19-.78-1.41-1.92-1.07-3.64,1.09-7.32,2.06-11,3.11a12.42,12.42,0,0,1-11-1.66,6.68,6.68,0,0,0-5.14-1.47c-1.6.32-3.17.81-4.76,1.19-.87.21-1,.69-.79,1.5,1.61,5.59,3.11,11.22,4.81,16.78a16.91,16.91,0,0,0,18.3,11.54A17.14,17.14,0,0,0,79.31,87.88Zm-42.69-3.5c0,3,1.69,4.85,4.13,5.23,1,.15,1.51-.07,1.19-1.2-.66-2.31-1.32-4.62-1.92-6.94-.26-1-.77-1-1.45-.48A4.61,4.61,0,0,0,36.62,84.38Zm47.22-9.8a5,5,0,0,0-4.59-5c-.69,0-1,.21-.8.94q1,3.75,2.06,7.5c.18.67.54.7,1.06.38A4.92,4.92,0,0,0,83.84,74.58Z"/><path class="cls-5" d="M98.23,63.77a14.4,14.4,0,0,0,3.28-.37c1-.13,1.89.18,2.1,1.25s-.5,1.68-1.53,1.89A19.6,19.6,0,0,1,78.64,50.16,18.69,18.69,0,0,1,79,43a1.32,1.32,0,0,0-.73-1.74,7.54,7.54,0,0,1-4-8.46,7.68,7.68,0,0,1,6.9-6.21,1.1,1.1,0,0,1,.43,0c2.31.78,3.35-.78,4.66-2.25,5.1-5.71,11.51-8,19-6.24s12.23,6.57,14.52,13.85a12.18,12.18,0,0,1,.62,4,1.62,1.62,0,0,0,1.16,1.73,7.76,7.76,0,0,1-3.8,14.89c-.9-.07-1,.4-1.24,1a19.78,19.78,0,0,1-6.67,9.4l-.34.26c-.91.69-1.92,1.24-2.77.09s-.12-2,.84-2.63a15.75,15.75,0,0,0,5.67-7.48,45.94,45.94,0,0,0,1.62-5.4c.8-3.16,2-6.22,2.34-9.51.11-1-.12-2-.1-3s-.37-1.47-1.47-.88a18.31,18.31,0,0,1-7.85,2.18,19.08,19.08,0,0,1-16.92-7.87c-.32-.42-.61-.87-.89-1.32-1-1.62-1-1.62-2.2,0a18.17,18.17,0,0,0-2.24,4.19c-.36.92-.88,1.7-2,1.41s-1.28-1.19-1-2.18c.15-.61,0-.89-.65-1A4.57,4.57,0,0,0,77.53,33c-.6,2.08.3,4.54,1.9,5.31.43.21.73.2.92-.28.09-.22.15-.46.25-.68.39-.87,1-1.49,2-1.12a1.57,1.57,0,0,1,1,2.11c-.44,1.58-.86,3.16-1.3,4.73A16.35,16.35,0,0,0,98.23,63.77Zm1.93-43a15.8,15.8,0,0,0-7.4,2.11c-.86.49-1,1-.55,1.86a16.33,16.33,0,0,0,22.59,6.53c.89-.53,1.08-1,.58-1.94C112.68,24.2,106.44,20.22,100.16,20.81Zm23,23.25a4.62,4.62,0,0,0-2-3.1c-.55-.42-1-.34-1.17.38-.64,2.35-1.27,4.71-1.92,7.07-.24.88.25,1,.92,1C121.29,49.3,123.19,47.22,123.19,44.06Z"/><path class="cls-5" d="M108.89,75.77c0,2.2-1.24,3.81-3.5,3.72-3.64-.14-7.28-.43-10.91-.77a3.24,3.24,0,0,1-3.1-3.36c0-.43-.07-.86-.12-1.29A3.35,3.35,0,0,1,94,70c3.46-.79,6.94-1.51,10.44-2.13,2.3-.41,3.82.85,4.06,3.17C108.69,72.53,108.76,74,108.89,75.77Zm-3.29-1.49c-.09-.76-.23-1.52-.26-2.28s-.42-1-1.12-.81c-2.91.61-5.82,1.22-8.73,1.8-.92.18-1.08.75-1,1.57s.62,1,1.36,1.08c2.58.16,5.16.35,7.74.54C105.49,76.32,105.59,76.24,105.6,74.28Z"/><path class="cls-5" d="M76,22.55c0,2.84-1.93,3.73-3.56,4.73-1.35.84-2.7.33-3.8-.74-2.57-2.47-5.16-4.91-7.68-7.42a3.07,3.07,0,0,1,.11-4.82,42.18,42.18,0,0,1,4.43-3.46c1.74-1.18,3.49-.65,4.76,1.37,1.15,1.84,2.2,3.73,3.3,5.6.58,1,1.17,2,1.75,3A4.07,4.07,0,0,1,76,22.55Zm-3.29.19c-.16-.27-.31-.57-.48-.86-1-1.69-2-3.38-3-5.07C67.13,13.29,67.12,13.29,64,16l-.12.08c-.61.42-.67.86-.11,1.4q3.39,3.22,6.73,6.49c.37.35.72.48,1.12.1S72.67,23.49,72.69,22.74Z"/><path class="cls-5" d="M89.77,90.66a4.23,4.23,0,0,1,2.28.62c2.89,1.55,5.78,3.07,8.65,4.65,2.37,1.31,2.81,3.19,1.3,5.4q-1.25,1.86-2.63,3.63c-1.52,2-3.55,2.08-5.35.37-2.44-2.32-4.89-4.64-7.3-7-1.71-1.65-1.84-3-.49-5C87.12,92.05,87.92,90.56,89.77,90.66Zm.41,3.26c-.76,0-.87.69-1.21,1.11s-.14,1,.28,1.37q3.36,3.18,6.69,6.38c.55.54.88.36,1.24-.19a24.34,24.34,0,0,1,1.67-2.35c.73-.87.55-1.38-.41-1.88-2.51-1.33-5-2.71-7.49-4.06C90.7,94.16,90.43,94.05,90.18,93.92Z"/><path class="cls-5" d="M60.09,45.72c-3.12-.26-6.57-.47-10-.84A3,3,0,0,1,47.24,41c.29-1.65.65-3.3,1.06-4.93.54-2.2,2.1-3.22,4.21-2.54C56,34.7,59.51,36,63,37.3c1.74.67,2.22,1.76,2,3.68,0,.43-.1.86-.18,1.28C64.25,45,63.21,45.81,60.09,45.72Zm-1-3.27a6.27,6.27,0,0,1,1,0c.83.11,1.41.12,1.66-1s-.36-1.41-1.18-1.7c-1.82-.64-3.62-1.31-5.43-2-4.1-1.47-4.1-1.47-4.61,2.92a.71.71,0,0,1,0,.14c-.17.68.09.94.8,1C53.85,42,56.39,42.24,59.12,42.45Z"/><path class="cls-5" d="M110.39,86.29a26.47,26.47,0,0,1-1.92,6.6,2.83,2.83,0,0,1-3.69,1.4q-5.32-2.22-10.56-4.62a3,3,0,0,1-1.74-3.33,11.82,11.82,0,0,1,.48-2.1c.72-2.28,2-3.09,4.34-2.77,2.86.39,5.7.83,8.55,1.27a8.76,8.76,0,0,1,2.53.51A3,3,0,0,1,110.39,86.29Zm-3.33.7c.11-.78-.29-.91-.66-1-3.13-.45-6.27-.86-9.39-1.32-.92-.13-1,.52-1.19,1.1s-.16,1.1.52,1.4c2.86,1.23,5.72,2.49,8.58,3.73.35.15.78.34,1-.19C106.32,89.42,106.72,88.09,107.06,87Z"/><path class="cls-5" d="M61.59,34.19a4.53,4.53,0,0,1-2-.53l-8.68-3.95c-2.5-1.14-3.1-3-1.69-5.38.76-1.29,1.54-2.56,2.36-3.81a3.19,3.19,0,0,1,5-.93c2.85,2.3,5.64,4.67,8.39,7.08a3,3,0,0,1,.9,3.88C64.7,33.16,63.49,34.22,61.59,34.19Zm1.3-5c0-.37-.4-.55-.69-.79-2.28-1.91-4.6-3.77-6.84-5.73-.83-.73-1.2-.42-1.63.33s-.95,1.68-1.5,2.47-.4,1.12.45,1.5c2.73,1.19,5.42,2.46,8.13,3.69A1.6,1.6,0,0,0,62.89,29.22Z"/><path class="cls-5" d="M96.06,57a8,8,0,0,1-7.83-9.55c.32-1.47,1-2,2.48-1.59,3.9,1.06,7.77,2.19,11.65,3.31,1.31.38,1.55,1.3,1.19,2.49A8,8,0,0,1,96.06,57ZM96,53.81a5.13,5.13,0,0,0,3.06-1.06c.7-.5.81-1-.18-1.24l-6.49-1.88c-.33-.1-.69-.22-.94.1s0,.64.12.94A4.69,4.69,0,0,0,96,53.81Z"/><path class="cls-5" d="M105.53,40.94a4.17,4.17,0,0,1,4.18,4.5c-.13,1-.52,1.8-1.69,1.79s-1.49-.75-1.56-1.72c0-.54,0-1.12-.65-1.32s-1,.4-1.3.86a1.47,1.47,0,0,1-2.1.61,1.57,1.57,0,0,1-.61-2.24A4,4,0,0,1,105.53,40.94Z"/><path class="cls-5" d="M88.91,36.33a4.26,4.26,0,0,1,4.59,4.06c0,1-.29,2.11-1.58,2.22s-1.66-.73-1.68-1.84c0-.51-.08-1-.62-1.19s-1,.26-1.24.71c-.58.9-1.33,1.31-2.3.69s-.85-1.52-.38-2.42A3.83,3.83,0,0,1,88.91,36.33Z"/><path class="cls-5" d="M73.37,89A8.08,8.08,0,0,1,57.8,92c-.71-1.76-.32-2.56,1.53-3.09L69.6,86C72.69,85.19,73.36,85.72,73.37,89Zm-8.83,4.89c3,0,5-1.58,5.57-3.72.17-.69,0-.91-.67-.72l-7.37,2c-.71.19-.68.51-.22,1A4.29,4.29,0,0,0,64.54,93.85Z"/><path class="cls-5" d="M75.51,80.19a1.41,1.41,0,0,1-.82,1.29A1.5,1.5,0,0,1,73,81.25a3.16,3.16,0,0,1-.51-.69c-.27-.45-.6-.78-1.16-.64s-.78.62-.82,1.2a3.22,3.22,0,0,1-.21,1.11A1.3,1.3,0,0,1,69,83a1.46,1.46,0,0,1-1.42-.8,3.89,3.89,0,0,1,.66-4,4.14,4.14,0,0,1,4.54-1.32A3.93,3.93,0,0,1,75.51,80.19Z"/><path class="cls-5" d="M50.63,85.45a4.08,4.08,0,0,1,3.27-4,4.19,4.19,0,0,1,4.73,2.45A1.55,1.55,0,0,1,58,86.1a1.47,1.47,0,0,1-2.09-.67c-.36-.54-.7-1.12-1.47-.85a1.06,1.06,0,0,0-.69,1.15c.07,1.15-.36,1.9-1.6,1.91C51.18,87.65,50.64,86.85,50.63,85.45Z"/><path class="cls-4" d="M15.89,103a3.58,3.58,0,0,1-3-1.6,76.4,76.4,0,0,1,0-84.95,3.59,3.59,0,0,1,6,4,69.22,69.22,0,0,0,0,77,3.61,3.61,0,0,1-1,5A3.54,3.54,0,0,1,15.89,103Z"/><path class="cls-4" d="M138,103a3.59,3.59,0,0,1-3-5.59,69.22,69.22,0,0,0,0-77,3.6,3.6,0,0,1,6-4,76.43,76.43,0,0,1,0,85A3.58,3.58,0,0,1,138,103Z"/></g></svg>