<svg xmlns="http://www.w3.org/2000/svg" xmlns:xlink="http://www.w3.org/1999/xlink" viewBox="0 0 153.84 117.83"><defs><style>.cls-1{fill:#3bc7ed;}.cls-2{clip-path:url(#clip-path);}.cls-3{fill:#2fddfa;}.cls-4{fill:#3493bf;}.cls-5{fill:#fff;}</style><clipPath id="clip-path"><path class="cls-1" d="M135.84,58.86a58.92,58.92,0,1,0-58.87,59A59.11,59.11,0,0,0,135.84,58.86Z"/></clipPath></defs><g id="TXT"><path class="cls-1" d="M135.84,58.86a58.92,58.92,0,1,0-58.87,59A59.11,59.11,0,0,0,135.84,58.86Z"/><g class="cls-2"><path class="cls-3" d="M28.32,101.16a104.66,104.66,0,0,1-5.14-39.94A28,28,0,0,1,24.12,55a30.23,30.23,0,0,1,3.2-6.69A226.63,226.63,0,0,1,46.69,20.56,19.71,19.71,0,0,1,51.5,15.9a20.66,20.66,0,0,1,6.64-2.18Q67,11.89,75.8,10.1L103,4.54c5.35-1.09,10.81-2.19,16.23-1.52,2.69.34,5.36,1.11,8.06.87.17-4-4.14-6.61-7.84-8.21q-8.73-3.77-17.61-7.17C92.92-14.92,83.49-18.13,74-17c-7.66.93-14.72,4.67-21,9.19a123.85,123.85,0,0,0-20.6,19.63C20.21,26,9.61,42,4.21,60a13.69,13.69,0,0,0-.81,5.5c.29,2.32,1.65,4.35,3,6.28l5,7.33a36.68,36.68,0,0,0,4.29,5.55A25.81,25.81,0,0,1,18.87,88c1.42,2,2.44,4.32,3.84,6.38A43.63,43.63,0,0,0,28.32,101.16Z"/><path class="cls-4" d="M124.26,16.71c-2.58-1.54-5.48-3.05-8.44-2.54l5.5,15.27c3.52,9.77,7,19.56,9.66,29.61a14.69,14.69,0,0,1,.67,6.08A15.43,15.43,0,0,1,129,70.78c-5.88,9-11.75,18-18.06,26.77-2.65,3.67-5.44,7.34-9.16,9.92A37.25,37.25,0,0,1,91.7,112a142,142,0,0,1-19.2,4.64c-4.77.8-9.77,1.42-13.84,4,8,3.56,17.16,3.51,25.91,2.84,9.52-.73,19.06-2.12,28.11-5.16,6.26-2.1,12.36-5.07,17.08-9.68,4.19-4.09,7.11-9.29,9.64-14.57a142.26,142.26,0,0,0,11.41-34.57c.74-3.85,1.32-7.84.48-11.67a25.65,25.65,0,0,0-3.39-7.73c-1.5-2.45-3.16-4.81-4.5-7.35-.9-1.7-1.62-3.47-3.07-4.79a72.71,72.71,0,0,0-6.92-5.29q-4-2.85-8.18-5.39Z"/></g><path class="cls-5" d="M90.56,57a21.89,21.89,0,0,1,27,19.26A21.62,21.62,0,0,1,97.61,99.43a20.91,20.91,0,0,1-18.1-7.72c-4.69-5.56-5.9-12-4.37-19.26A29.57,29.57,0,0,1,69,74.2C59.73,75.53,51.67,73,45,66.59A27.53,27.53,0,0,1,40.44,32C45.76,23.34,53.7,18.69,64,18.37a28.19,28.19,0,0,1,9.13,1.3c1.7.52,2.54,1.53,2.47,2.83s-1,2.19-2.83,2.44a14.65,14.65,0,0,0-11.18,7.64c-4.11,7.12-.83,17.24,6.7,20.55s14.85,1,19.21-5.79a5.42,5.42,0,0,1,1-1.2,2.37,2.37,0,0,1,2.6-.35A2.26,2.26,0,0,1,92.47,48,26.07,26.07,0,0,1,91,55.75C90.88,56.13,90.74,56.49,90.56,57Zm22,21A16.52,16.52,0,1,0,96,94.48,16.51,16.51,0,0,0,112.54,78ZM62.75,23.63c-8.58,0-19.27,7.36-21,19.21A22.86,22.86,0,0,0,60,69.06c11.35,2.3,21.39-4.4,24.86-12.2a20,20,0,0,1-27.23-6.77C53.07,42.78,53.34,31.3,62.75,23.63Z"/><path class="cls-5" d="M86.58,39.7c-1.47,0-2.64,0-3.8,0a2.54,2.54,0,0,1-2.23-4c1.25-2,2.61-4,3.91-6.06.19-.3.57-.59.42-.94s-.65-.18-1-.21-.8,0-1.2,0A2.51,2.51,0,0,1,80.3,26a2.35,2.35,0,0,1,2.13-2.49,75.35,75.35,0,0,1,7.81,0c1.86.11,2.66,2.24,1.58,4-1.28,2.08-2.66,4.1-4,6.16-.18.28-.6.56-.36.93s.6.12.91.13c.56,0,1.12,0,1.68,0a2.43,2.43,0,0,1,.39,4.82A23.77,23.77,0,0,1,86.58,39.7Z"/><path class="cls-5" d="M70.21,32.34c.84,0,1.68,0,2.53,0,2.31.06,3.4,2,2.21,4-.77,1.31-1.63,2.57-2.48,3.84-.38.57-.33.82.41.9a3,3,0,0,1,1.7.53,2.45,2.45,0,0,1,1,2.33,2.19,2.19,0,0,1-1.82,2,20.26,20.26,0,0,1-7.16,0c-1.66-.31-2.28-2.16-1.38-3.76.77-1.36,1.68-2.64,2.54-3.94.41-.61.51-.91-.44-1A2.48,2.48,0,0,1,65,34.7a2.63,2.63,0,0,1,2.61-2.35C68.44,32.32,69.33,32.35,70.21,32.34Z"/><path class="cls-5" d="M105.47,71.74a2.33,2.33,0,0,1-1,1.88q-3.33,3-6.68,6a2.47,2.47,0,0,1-3.58,0q-2-1.74-3.87-3.6a2.4,2.4,0,0,1-.33-3.53c1-1.16,2.27-1.22,3.62-.18.13.1.24.21.37.3.7.53,1.18,1.68,2,1.58s1.38-1,2-1.57c1.12-1,2.2-2,3.33-3a2.42,2.42,0,0,1,2.71-.37A2.38,2.38,0,0,1,105.47,71.74Z"/><path class="cls-4" d="M15.89,103a3.58,3.58,0,0,1-3-1.6,76.4,76.4,0,0,1,0-84.95,3.59,3.59,0,0,1,6,4,69.22,69.22,0,0,0,0,77,3.61,3.61,0,0,1-1,5A3.54,3.54,0,0,1,15.89,103Z"/><path class="cls-4" d="M138,103a3.59,3.59,0,0,1-3-5.59,69.22,69.22,0,0,0,0-77,3.6,3.6,0,0,1,6-4,76.43,76.43,0,0,1,0,85A3.58,3.58,0,0,1,138,103Z"/></g></svg>