<svg xmlns="http://www.w3.org/2000/svg" xmlns:xlink="http://www.w3.org/1999/xlink" viewBox="0 0 117.83 117.83"><defs><style>.cls-1{fill:#3bc7ed;}.cls-2{clip-path:url(#clip-path);}.cls-3{fill:#2fddfa;}.cls-4{fill:#3493bf;}.cls-5{fill:#fff;}</style><clipPath id="clip-path"><path class="cls-1" d="M117.83,58.86a58.92,58.92,0,1,0-58.86,59A59.09,59.09,0,0,0,117.83,58.86Z"/></clipPath></defs><g id="TXT"><path class="cls-1" d="M117.83,58.86a58.92,58.92,0,1,0-58.86,59A59.09,59.09,0,0,0,117.83,58.86Z"/><g class="cls-2"><path class="cls-3" d="M10.31,101.16A104.66,104.66,0,0,1,5.18,61.22,28,28,0,0,1,6.11,55a30.72,30.72,0,0,1,3.21-6.69A226.63,226.63,0,0,1,28.69,20.56,19.71,19.71,0,0,1,33.5,15.9a20.58,20.58,0,0,1,6.64-2.18Q49,11.89,57.79,10.1L85,4.54C90.35,3.45,95.81,2.35,101.23,3c2.69.34,5.36,1.11,8.06.87.16-4-4.14-6.61-7.85-8.21q-8.73-3.77-17.6-7.17C74.92-14.92,65.49-18.13,56-17c-7.65.93-14.72,4.67-21,9.19a123.46,123.46,0,0,0-20.6,19.63C2.21,26-8.39,42-13.79,60a13.69,13.69,0,0,0-.81,5.5c.28,2.32,1.64,4.35,3,6.28l5,7.33a36,36,0,0,0,4.28,5.55A25.23,25.23,0,0,1,.87,88c1.41,2,2.44,4.32,3.84,6.38A44.14,44.14,0,0,0,10.31,101.16Z"/><path class="cls-4" d="M106.26,16.71c-2.58-1.54-5.48-3.05-8.44-2.54l5.5,15.27c3.52,9.77,7,19.56,9.66,29.61a14.69,14.69,0,0,1,.66,6.08A15.12,15.12,0,0,1,111,70.78c-5.87,9-11.74,18-18,26.77-2.65,3.67-5.45,7.34-9.16,9.92A37.53,37.53,0,0,1,73.7,112a142,142,0,0,1-19.2,4.64c-4.78.8-9.77,1.42-13.84,4,8,3.56,17.15,3.51,25.91,2.84,9.52-.73,19.05-2.12,28.1-5.16,6.26-2.1,12.37-5.07,17.09-9.68,4.19-4.09,7.1-9.29,9.63-14.57a142.29,142.29,0,0,0,11.42-34.57c.74-3.85,1.32-7.84.48-11.67a25.68,25.68,0,0,0-3.4-7.73c-1.49-2.45-3.15-4.81-4.5-7.35A16.25,16.25,0,0,0,122.33,28a72.71,72.71,0,0,0-6.92-5.29q-4-2.85-8.19-5.39Z"/></g><path class="cls-5" d="M72.56,57a21.88,21.88,0,0,1,27,19.26,21.61,21.61,0,0,1-19.9,23.16A20.94,20.94,0,0,1,61.5,91.71c-4.68-5.56-5.89-12-4.37-19.26A29.23,29.23,0,0,1,51,74.2C41.73,75.53,33.66,73,27,66.59A27.54,27.54,0,0,1,22.44,32C27.75,23.34,35.7,18.69,46,18.37a28.23,28.23,0,0,1,9.13,1.3c1.7.52,2.54,1.53,2.47,2.83s-1,2.19-2.83,2.44a14.64,14.64,0,0,0-11.18,7.64c-4.11,7.12-.83,17.24,6.7,20.55,7.38,3.24,14.84,1,19.2-5.79a5.46,5.46,0,0,1,1-1.2,2.37,2.37,0,0,1,2.6-.35A2.26,2.26,0,0,1,74.47,48,26.72,26.72,0,0,1,73,55.75C72.88,56.13,72.74,56.49,72.56,57Zm22,21A16.52,16.52,0,1,0,78,94.48,16.51,16.51,0,0,0,94.54,78ZM44.75,23.63c-8.58,0-19.28,7.36-21,19.21A22.88,22.88,0,0,0,42,69.06c11.35,2.3,21.38-4.4,24.86-12.2a20.06,20.06,0,0,1-27.24-6.77C35.07,42.78,35.33,31.3,44.75,23.63Z"/><path class="cls-5" d="M68.58,39.7c-1.48,0-2.64,0-3.8,0a2.54,2.54,0,0,1-2.23-4c1.25-2,2.61-4,3.91-6.06.19-.3.57-.59.42-.94s-.65-.18-1-.21-.8,0-1.2,0a2.53,2.53,0,0,1-2.4-2.4,2.36,2.36,0,0,1,2.13-2.49,75.35,75.35,0,0,1,7.81,0c1.86.11,2.66,2.24,1.59,4-1.28,2.08-2.66,4.1-4,6.16-.18.28-.61.56-.36.93s.6.12.91.13c.56,0,1.12,0,1.68,0a2.43,2.43,0,0,1,.39,4.82A23.8,23.8,0,0,1,68.58,39.7Z"/><path class="cls-5" d="M52.21,32.34c.84,0,1.68,0,2.52,0a2.51,2.51,0,0,1,2.22,4c-.78,1.31-1.63,2.57-2.48,3.84-.39.57-.33.82.41.9a3,3,0,0,1,1.7.53,2.45,2.45,0,0,1,1,2.33,2.19,2.19,0,0,1-1.82,2,20.26,20.26,0,0,1-7.16,0c-1.66-.31-2.29-2.16-1.38-3.76.77-1.36,1.67-2.64,2.54-3.94.4-.61.51-.91-.44-1A2.48,2.48,0,0,1,47,34.7a2.62,2.62,0,0,1,2.61-2.35C50.44,32.32,51.32,32.35,52.21,32.34Z"/><path class="cls-5" d="M87.47,71.74a2.33,2.33,0,0,1-1,1.88c-2.22,2-4.44,4-6.69,6a2.46,2.46,0,0,1-3.57,0q-2-1.74-3.88-3.6a2.4,2.4,0,0,1-.32-3.53c1-1.16,2.27-1.22,3.62-.18.12.1.24.21.37.3.69.53,1.18,1.68,2,1.58s1.39-1,2-1.57c1.12-1,2.2-2,3.33-3a2.45,2.45,0,0,1,4.07,2Z"/></g></svg>