<svg xmlns="http://www.w3.org/2000/svg" viewBox="0 0 117.83 117.83"><defs><style>.cls-1{fill:#262a58;}.cls-2{fill:#fff;}</style></defs><g id="TXT"><path class="cls-1" d="M117.83,58.86a58.92,58.92,0,1,0-58.86,59A59.09,59.09,0,0,0,117.83,58.86Z"/><path class="cls-2" d="M72.56,57a21.88,21.88,0,0,1,27,19.26,21.61,21.61,0,0,1-19.9,23.16A20.94,20.94,0,0,1,61.5,91.71c-4.68-5.56-5.89-12-4.37-19.26A29.23,29.23,0,0,1,51,74.2C41.73,75.53,33.66,73,27,66.59A27.54,27.54,0,0,1,22.44,32C27.75,23.34,35.7,18.69,46,18.37a28.23,28.23,0,0,1,9.13,1.3c1.7.52,2.54,1.53,2.47,2.83s-1,2.19-2.83,2.44a14.64,14.64,0,0,0-11.18,7.64c-4.11,7.12-.83,17.24,6.7,20.55,7.38,3.24,14.84,1,19.2-5.79a5.46,5.46,0,0,1,1-1.2,2.37,2.37,0,0,1,2.6-.35A2.26,2.26,0,0,1,74.47,48,26.72,26.72,0,0,1,73,55.75C72.88,56.13,72.74,56.49,72.56,57Zm22,21A16.52,16.52,0,1,0,78,94.48,16.51,16.51,0,0,0,94.54,78ZM44.75,23.63c-8.58,0-19.28,7.36-21,19.21A22.88,22.88,0,0,0,42,69.06c11.35,2.3,21.38-4.4,24.86-12.2a20.06,20.06,0,0,1-27.24-6.77C35.07,42.78,35.33,31.3,44.75,23.63Z"/><path class="cls-2" d="M68.58,39.7c-1.48,0-2.64,0-3.8,0a2.54,2.54,0,0,1-2.23-4c1.25-2,2.61-4,3.91-6.06.19-.3.57-.59.42-.94s-.65-.18-1-.21-.8,0-1.2,0a2.53,2.53,0,0,1-2.4-2.4,2.36,2.36,0,0,1,2.13-2.49,75.35,75.35,0,0,1,7.81,0c1.86.11,2.66,2.24,1.59,4-1.28,2.08-2.66,4.1-4,6.16-.18.28-.61.56-.36.93s.6.12.91.13c.56,0,1.12,0,1.68,0a2.43,2.43,0,0,1,.39,4.82A23.8,23.8,0,0,1,68.58,39.7Z"/><path class="cls-2" d="M52.21,32.34c.84,0,1.68,0,2.52,0a2.51,2.51,0,0,1,2.22,4c-.78,1.31-1.63,2.57-2.48,3.84-.39.57-.33.82.41.9a3,3,0,0,1,1.7.53,2.45,2.45,0,0,1,1,2.33,2.19,2.19,0,0,1-1.82,2,20.26,20.26,0,0,1-7.16,0c-1.66-.31-2.29-2.16-1.38-3.76.77-1.36,1.67-2.64,2.54-3.94.4-.61.51-.91-.44-1A2.48,2.48,0,0,1,47,34.7a2.62,2.62,0,0,1,2.61-2.35C50.44,32.32,51.32,32.35,52.21,32.34Z"/><path class="cls-2" d="M87.47,71.74a2.33,2.33,0,0,1-1,1.88c-2.22,2-4.44,4-6.69,6a2.46,2.46,0,0,1-3.57,0q-2-1.74-3.88-3.6a2.4,2.4,0,0,1-.32-3.53c1-1.16,2.27-1.22,3.62-.18.12.1.24.21.37.3.69.53,1.18,1.68,2,1.58s1.39-1,2-1.57c1.12-1,2.2-2,3.33-3a2.45,2.45,0,0,1,4.07,2Z"/></g></svg>