<svg xmlns="http://www.w3.org/2000/svg" xmlns:xlink="http://www.w3.org/1999/xlink" viewBox="0 0 153.84 117.83"><defs><style>.cls-1{fill:#e6333e;}.cls-2{clip-path:url(#clip-path);}.cls-3{fill:#ff968c;}.cls-4{fill:#b32830;}.cls-5{fill:#fff;}</style><clipPath id="clip-path"><path class="cls-1" d="M135.84,58.88a58.92,58.92,0,1,0-58.88,59A59.11,59.11,0,0,0,135.84,58.88Z"/></clipPath></defs><g id="TXT"><path class="cls-1" d="M135.84,58.88a58.92,58.92,0,1,0-58.88,59A59.11,59.11,0,0,0,135.84,58.88Z"/><g class="cls-2"><path class="cls-3" d="M26.36,99.2a104.66,104.66,0,0,1-5.14-39.94,28.08,28.08,0,0,1,.94-6.19,30.16,30.16,0,0,1,3.2-6.68A226,226,0,0,1,44.73,18.6,19.84,19.84,0,0,1,49.54,14a20.44,20.44,0,0,1,6.64-2.19Q65,9.93,73.84,8.14L101,2.58c5.35-1.09,10.82-2.19,16.23-1.51,2.69.33,5.36,1.1,8.06.86.17-4-4.13-6.61-7.84-8.21Q108.76-10,99.88-13.45C91-16.88,81.54-20.09,72.05-18.93c-7.66.93-14.72,4.66-21,9.19A123.38,123.38,0,0,0,30.48,9.88C18.25,24.07,7.66,40.05,2.25,58a13.53,13.53,0,0,0-.8,5.51c.28,2.32,1.64,4.34,3,6.27l5,7.33a36.19,36.19,0,0,0,4.29,5.55,25.28,25.28,0,0,1,3.18,3.44c1.42,2,2.45,4.32,3.84,6.38A44,44,0,0,0,26.36,99.2Z"/><path class="cls-4" d="M122.3,14.75c-2.58-1.54-5.47-3-8.43-2.54l5.49,15.27c3.52,9.77,7,19.56,9.66,29.61a14.72,14.72,0,0,1,.67,6.09A15.59,15.59,0,0,1,127,68.83c-5.87,9-11.75,18-18.06,26.76-2.65,3.67-5.44,7.35-9.16,9.92A37.25,37.25,0,0,1,89.74,110a142,142,0,0,1-19.2,4.64c-4.77.8-9.76,1.42-13.84,4,8,3.57,17.16,3.51,25.92,2.84,9.52-.72,19-2.11,28.1-5.16,6.26-2.1,12.36-5.07,17.09-9.68,4.18-4.09,7.1-9.29,9.63-14.57a142.26,142.26,0,0,0,11.41-34.57c.74-3.85,1.32-7.84.48-11.67a25.49,25.49,0,0,0-3.39-7.72c-1.49-2.46-3.15-4.82-4.5-7.36-.9-1.7-1.62-3.47-3.06-4.78a72.56,72.56,0,0,0-6.93-5.3q-4-2.84-8.18-5.39Z"/></g><path class="cls-5" d="M76.66,33.43a38.28,38.28,0,0,1,19.24,5.8,74.7,74.7,0,0,1,19.24,17.25c1.59,2,1.61,2.87.07,4.78A73.29,73.29,0,0,1,94.88,79.2a36.32,36.32,0,0,1-17.4,5.17,32.75,32.75,0,0,1-13.74-2.82c-7.31-3.12-13.44-7.9-19-13.48a76.72,76.72,0,0,1-6.08-6.79c-1.52-1.92-1.54-2.81,0-4.71A74.39,74.39,0,0,1,59,38.62C64.37,35.46,71.38,33.41,76.66,33.43ZM75.13,79.5a31.15,31.15,0,0,0,15.63-3.6C98.31,72,104.51,66.37,110,60c.61-.71.74-1.22,0-2A67.63,67.63,0,0,0,92.41,42.85a32.39,32.39,0,0,0-14.2-4.51,28.88,28.88,0,0,0-15,3.54c-7.63,4-13.87,9.6-19.43,16.08a1.24,1.24,0,0,0,0,1.94A66.9,66.9,0,0,0,61.43,75C66.22,77.71,71.29,79.4,75.13,79.5Z"/><path class="cls-5" d="M37.52,26.52c0-1.47,0-2.95,0-4.42a2.3,2.3,0,0,1,2.52-2.57q4.56,0,9.13,0a2.37,2.37,0,1,1,0,4.74c-1.87,0-3.75,0-5.62,0-1.3,0-1.3,0-1.3,1.35,0,1.83,0,3.67,0,5.51a2.4,2.4,0,0,1-2.39,2.55,2.37,2.37,0,0,1-2.36-2.56C37.51,29.59,37.52,28.05,37.52,26.52Z"/><path class="cls-5" d="M109.28,19.52c1.51,0,3,0,4.51,0A2.29,2.29,0,0,1,116.31,22c0,3.08,0,6.15,0,9.23a2.35,2.35,0,0,1-2.37,2.45,2.39,2.39,0,0,1-2.38-2.46c0-1.93,0-3.87,0-5.81,0-.86-.22-1.19-1.12-1.16-1.9.06-3.81,0-5.72,0a2.39,2.39,0,1,1,0-4.76Z"/><path class="cls-5" d="M44.58,98.31c-1.54,0-3.07,0-4.61,0a2.28,2.28,0,0,1-2.44-2.46q0-4.6,0-9.23a2.34,2.34,0,0,1,2.34-2.47,2.39,2.39,0,0,1,2.41,2.52c0,2,0,4,0,5.92,0,.75.26,1,1,1,1.94,0,3.88,0,5.82,0A2.41,2.41,0,0,1,51.69,96a2.38,2.38,0,0,1-2.6,2.33H44.58Z"/><path class="cls-5" d="M116.32,91.25c0,1.5,0,3,0,4.51a2.31,2.31,0,0,1-2.55,2.55c-3,0-6,0-9,0A2.37,2.37,0,0,1,102.15,96a2.41,2.41,0,0,1,2.62-2.41c1.94,0,3.88,0,5.82,0,.74,0,1-.25,1-1,0-1.94,0-3.88,0-5.82a2.39,2.39,0,1,1,4.76,0v4.52Z"/><path class="cls-5" d="M76.92,42.63A16.29,16.29,0,1,0,93.21,59,16.52,16.52,0,0,0,76.92,42.63ZM77,66a7.05,7.05,0,1,1,7-7.09A7.23,7.23,0,0,1,77,66Z"/><path class="cls-4" d="M15.89,103a3.58,3.58,0,0,1-3-1.6,76.4,76.4,0,0,1,0-84.95,3.59,3.59,0,0,1,6,4,69.22,69.22,0,0,0,0,77,3.61,3.61,0,0,1-1,5A3.54,3.54,0,0,1,15.89,103Z"/><path class="cls-4" d="M138,103a3.59,3.59,0,0,1-3-5.59,69.22,69.22,0,0,0,0-77,3.6,3.6,0,0,1,6-4,76.43,76.43,0,0,1,0,85A3.58,3.58,0,0,1,138,103Z"/></g></svg>