<svg xmlns="http://www.w3.org/2000/svg" xmlns:xlink="http://www.w3.org/1999/xlink" viewBox="0 0 117.83 117.83"><defs><style>.cls-1{fill:#a44cc1;}.cls-2{clip-path:url(#clip-path);}.cls-3{fill:#bf8af9;}.cls-4{fill:#7e42a8;}.cls-5{fill:#fff;}</style><clipPath id="clip-path"><path class="cls-1" d="M117.83,58.88a58.92,58.92,0,1,0-58.87,59A59.1,59.1,0,0,0,117.83,58.88Z"/></clipPath></defs><g id="TXT"><path class="cls-1" d="M117.83,58.88a58.92,58.92,0,1,0-58.87,59A59.1,59.1,0,0,0,117.83,58.88Z"/><g class="cls-2"><path class="cls-3" d="M8.66,99.33A104.94,104.94,0,0,1,3.52,59.38a28.78,28.78,0,0,1,.94-6.19,30.61,30.61,0,0,1,3.2-6.68A226,226,0,0,1,27,18.72a19.84,19.84,0,0,1,4.81-4.65,20.74,20.74,0,0,1,6.65-2.19q8.82-1.83,17.65-3.62L83.35,2.71C88.69,1.61,94.16.52,99.58,1.19c2.68.33,5.36,1.1,8,.86.17-4-4.13-6.61-7.84-8.2q-8.73-3.76-17.6-7.18C73.27-16.76,63.84-20,54.35-18.81c-7.66.93-14.72,4.66-21,9.19A122.61,122.61,0,0,0,12.79,10C.56,24.19-10,40.18-15.45,58.11a13.53,13.53,0,0,0-.8,5.51c.28,2.32,1.64,4.34,3,6.27l5,7.34A36.6,36.6,0,0,0-4,82.77,25.89,25.89,0,0,1-.79,86.21c1.42,2,2.45,4.32,3.84,6.38A44.6,44.6,0,0,0,8.66,99.33Z"/><path class="cls-4" d="M104.6,14.87c-2.57-1.54-5.47-3-8.43-2.54l5.49,15.27c3.52,9.77,7,19.56,9.67,29.61A14.72,14.72,0,0,1,112,63.3,15.35,15.35,0,0,1,109.33,69c-5.87,9-11.75,18-18,26.77-2.65,3.66-5.45,7.34-9.17,9.91A37,37,0,0,1,72,110.13a140.55,140.55,0,0,1-19.2,4.64c-4.77.8-9.76,1.42-13.83,4,8,3.57,17.15,3.51,25.91,2.85,9.52-.73,19-2.12,28.1-5.17,6.26-2.1,12.37-5.07,17.09-9.68,4.18-4.09,7.1-9.29,9.63-14.56a142.48,142.48,0,0,0,11.41-34.58c.74-3.85,1.32-7.84.49-11.67a25.62,25.62,0,0,0-3.4-7.72c-1.49-2.46-3.15-4.82-4.5-7.36-.9-1.69-1.62-3.46-3.06-4.78a71.32,71.32,0,0,0-6.93-5.3q-4-2.84-8.18-5.38Z"/></g><path class="cls-5" d="M63,17.34a6,6,0,1,1-8.55,0,6.05,6.05,0,0,1,8.55,0m2.72-2.72a9.89,9.89,0,1,0,0,14,9.88,9.88,0,0,0,0-14Z"/><path class="cls-5" d="M81.28,35.65a6,6,0,1,1-8.54,0,6,6,0,0,1,8.54,0M84,32.92a9.89,9.89,0,1,0,0,14,9.9,9.9,0,0,0,0-14Z"/><path class="cls-5" d="M99.59,54A6,6,0,1,1,91,54a6.07,6.07,0,0,1,8.55,0m2.72-2.72a9.89,9.89,0,1,0,0,14,9.9,9.9,0,0,0,0-14Z"/><path class="cls-5" d="M44,36.34a6,6,0,1,1-8.55,0,6.05,6.05,0,0,1,8.55,0m2.72-2.72a9.89,9.89,0,1,0,0,14,9.88,9.88,0,0,0,0-14Z"/><path class="cls-5" d="M62.28,54.65a6,6,0,1,1-8.54,0,6,6,0,0,1,8.54,0M65,51.92a9.89,9.89,0,1,0,0,14,9.9,9.9,0,0,0,0-14Z"/><path class="cls-5" d="M80.59,73A6,6,0,1,1,72,73a6.07,6.07,0,0,1,8.55,0m2.72-2.72a9.89,9.89,0,1,0,0,14,9.9,9.9,0,0,0,0-14Z"/><path class="cls-5" d="M25,55.34a6,6,0,1,1-8.55,0,6.05,6.05,0,0,1,8.55,0m2.72-2.72a9.89,9.89,0,1,0,0,14,9.88,9.88,0,0,0,0-14Z"/><path class="cls-5" d="M43.28,73.65a6,6,0,1,1-8.54,0,6,6,0,0,1,8.54,0M46,70.92a9.89,9.89,0,1,0,0,14,9.89,9.89,0,0,0,0-14Z"/><path class="cls-5" d="M61.59,92A6,6,0,1,1,53,92a6.05,6.05,0,0,1,8.55,0m2.72-2.72a9.89,9.89,0,1,0,0,14,9.9,9.9,0,0,0,0-14Z"/></g></svg>