<svg xmlns="http://www.w3.org/2000/svg" xmlns:xlink="http://www.w3.org/1999/xlink" viewBox="0 0 153.84 117.83"><defs><style>.cls-1{fill:#a44cc1;}.cls-2{clip-path:url(#clip-path);}.cls-3{fill:#bf8af9;}.cls-4{fill:#7e42a8;}.cls-5{fill:#fff;}</style><clipPath id="clip-path"><path class="cls-1" d="M136.75,58.88a58.92,58.92,0,1,0-58.88,59A59.11,59.11,0,0,0,136.75,58.88Z"/></clipPath></defs><g id="TXT"><path class="cls-1" d="M136.75,58.88a58.92,58.92,0,1,0-58.88,59A59.11,59.11,0,0,0,136.75,58.88Z"/><g class="cls-2"><path class="cls-3" d="M27.57,99.33a104.94,104.94,0,0,1-5.14-39.95,28.78,28.78,0,0,1,.94-6.19,30.61,30.61,0,0,1,3.2-6.68A228.18,228.18,0,0,1,45.94,18.72a19.7,19.7,0,0,1,4.82-4.65,20.6,20.6,0,0,1,6.64-2.19q8.82-1.83,17.65-3.62l27.21-5.55c5.35-1.1,10.81-2.19,16.23-1.52,2.68.33,5.36,1.1,8.05.86.17-4-4.13-6.61-7.84-8.2Q110-9.91,101.1-13.33C92.18-16.76,82.75-20,73.26-18.81c-7.65.93-14.72,4.66-21,9.19A122.61,122.61,0,0,0,31.7,10C19.47,24.19,8.87,40.18,3.47,58.11a13.54,13.54,0,0,0-.81,5.51c.28,2.32,1.64,4.34,3,6.27l5,7.34a35.91,35.91,0,0,0,4.28,5.54,25.23,25.23,0,0,1,3.18,3.44c1.42,2,2.45,4.32,3.84,6.38A45.2,45.2,0,0,0,27.57,99.33Z"/><path class="cls-4" d="M123.52,14.87c-2.58-1.54-5.48-3-8.44-2.54l5.5,15.27c3.51,9.77,7,19.56,9.66,29.61a14.72,14.72,0,0,1,.66,6.09A15.19,15.19,0,0,1,128.24,69c-5.87,9-11.75,18-18.05,26.77-2.65,3.66-5.45,7.34-9.16,9.91A37.22,37.22,0,0,1,91,110.13a140.9,140.9,0,0,1-19.2,4.64c-4.78.8-9.77,1.42-13.84,4,8,3.57,17.15,3.51,25.91,2.85,9.52-.73,19-2.12,28.1-5.17,6.26-2.1,12.37-5.07,17.09-9.68,4.18-4.09,7.1-9.29,9.63-14.56a142.05,142.05,0,0,0,11.41-34.58c.75-3.85,1.33-7.84.49-11.67a25.62,25.62,0,0,0-3.4-7.72c-1.49-2.46-3.15-4.82-4.5-7.36a16.33,16.33,0,0,0-3.06-4.78,71.19,71.19,0,0,0-6.92-5.3q-4-2.84-8.19-5.38Z"/></g><path class="cls-5" d="M81.89,17.34a6,6,0,1,1-8.55,0,6.05,6.05,0,0,1,8.55,0m2.72-2.72a9.89,9.89,0,1,0,0,14,9.88,9.88,0,0,0,0-14Z"/><path class="cls-5" d="M100.19,35.65a6,6,0,1,1-8.54,0,6,6,0,0,1,8.54,0m2.72-2.73a9.89,9.89,0,1,0,0,14,9.89,9.89,0,0,0,0-14Z"/><path class="cls-5" d="M118.5,54A6,6,0,1,1,110,54a6.07,6.07,0,0,1,8.55,0m2.72-2.72a9.89,9.89,0,1,0,0,14,9.9,9.9,0,0,0,0-14Z"/><path class="cls-5" d="M62.89,36.34a6,6,0,1,1-8.55,0,6.05,6.05,0,0,1,8.55,0m2.72-2.72a9.89,9.89,0,1,0,0,14,9.88,9.88,0,0,0,0-14Z"/><path class="cls-5" d="M81.19,54.65a6,6,0,1,1-8.54,0,6,6,0,0,1,8.54,0m2.73-2.73a9.89,9.89,0,1,0,0,14,9.9,9.9,0,0,0,0-14Z"/><path class="cls-5" d="M99.5,73A6,6,0,1,1,91,73a6.07,6.07,0,0,1,8.55,0m2.72-2.72a9.89,9.89,0,1,0,0,14,9.9,9.9,0,0,0,0-14Z"/><path class="cls-5" d="M43.89,55.34a6,6,0,1,1-8.55,0,6.05,6.05,0,0,1,8.55,0m2.72-2.72a9.89,9.89,0,1,0,0,14,9.88,9.88,0,0,0,0-14Z"/><path class="cls-5" d="M62.19,73.65a6,6,0,1,1-8.54,0,6,6,0,0,1,8.54,0m2.73-2.73a9.89,9.89,0,1,0,0,14,9.9,9.9,0,0,0,0-14Z"/><path class="cls-5" d="M80.5,92A6,6,0,1,1,72,92a6.05,6.05,0,0,1,8.55,0m2.72-2.72a9.89,9.89,0,1,0,0,14,9.9,9.9,0,0,0,0-14Z"/><path class="cls-4" d="M15.89,103a3.58,3.58,0,0,1-3-1.6,76.4,76.4,0,0,1,0-84.95,3.59,3.59,0,0,1,6,4,69.22,69.22,0,0,0,0,77,3.61,3.61,0,0,1-1,5A3.54,3.54,0,0,1,15.89,103Z"/><path class="cls-4" d="M138,103a3.59,3.59,0,0,1-3-5.59,69.22,69.22,0,0,0,0-77,3.6,3.6,0,0,1,6-4,76.43,76.43,0,0,1,0,85A3.58,3.58,0,0,1,138,103Z"/></g></svg>