<svg xmlns="http://www.w3.org/2000/svg" xmlns:xlink="http://www.w3.org/1999/xlink" viewBox="0 0 153.84 117.83"><defs><style>.cls-1{fill:#1e8e30;}.cls-2{clip-path:url(#clip-path);}.cls-3{fill:#23d638;}.cls-4{fill:#18733d;}.cls-5{fill:#fff;}</style><clipPath id="clip-path"><path class="cls-1" d="M76.9,0a58.92,58.92,0,1,0,58.94,58.9A59.11,59.11,0,0,0,76.9,0Z"/></clipPath></defs><g id="TXT"><path class="cls-1" d="M76.9,0a58.92,58.92,0,1,0,58.94,58.9A59.11,59.11,0,0,0,76.9,0Z"/><g class="cls-2"><path class="cls-3" d="M27.58,100.92A104.94,104.94,0,0,1,22.44,61a28.78,28.78,0,0,1,.94-6.19,30.19,30.19,0,0,1,3.21-6.68A227,227,0,0,1,46,20.31a19.7,19.7,0,0,1,4.82-4.65,20.6,20.6,0,0,1,6.64-2.19q8.82-1.83,17.65-3.62L102.27,4.3c5.35-1.1,10.81-2.19,16.23-1.52,2.68.33,5.36,1.1,8,.86.17-4-4.13-6.61-7.84-8.2q-8.73-3.77-17.6-7.18c-8.92-3.43-18.35-6.63-27.84-5.48-7.65.93-14.72,4.66-21,9.19a123,123,0,0,0-20.6,19.62C19.48,25.78,8.88,41.77,3.48,59.7a13.54,13.54,0,0,0-.81,5.51c.28,2.32,1.64,4.35,3,6.27l5,7.34A35.91,35.91,0,0,0,15,84.36a25.23,25.23,0,0,1,3.18,3.44c1.42,2,2.45,4.32,3.84,6.38A45.2,45.2,0,0,0,27.58,100.92Z"/><path class="cls-4" d="M123.53,16.46c-2.58-1.53-5.48-3-8.44-2.54l5.5,15.27c3.51,9.77,7,19.56,9.66,29.61a14.72,14.72,0,0,1,.66,6.09,15.19,15.19,0,0,1-2.66,5.65c-5.87,9-11.75,18-18,26.77-2.65,3.66-5.45,7.34-9.16,9.92A37.19,37.19,0,0,1,91,111.72a139.44,139.44,0,0,1-19.2,4.64c-4.78.8-9.77,1.42-13.84,4,8,3.56,17.15,3.5,25.91,2.84,9.52-.73,19-2.12,28.1-5.16C118.2,116,124.31,113,129,108.4c4.18-4.09,7.1-9.29,9.63-14.56a141.91,141.91,0,0,0,11.41-34.58c.75-3.85,1.33-7.84.49-11.67a25.62,25.62,0,0,0-3.4-7.72c-1.49-2.46-3.15-4.81-4.5-7.36a16.33,16.33,0,0,0-3.06-4.78,71.19,71.19,0,0,0-6.92-5.3q-4-2.84-8.19-5.38Z"/></g><path class="cls-4" d="M15.89,103a3.58,3.58,0,0,1-3-1.6,76.4,76.4,0,0,1,0-84.95,3.59,3.59,0,0,1,6,4,69.22,69.22,0,0,0,0,77,3.61,3.61,0,0,1-1,5A3.54,3.54,0,0,1,15.89,103Z"/><path class="cls-4" d="M138,103a3.59,3.59,0,0,1-3-5.59,69.22,69.22,0,0,0,0-77,3.6,3.6,0,0,1,6-4,76.43,76.43,0,0,1,0,85A3.58,3.58,0,0,1,138,103Z"/><path class="cls-5" d="M87.12,68.28c-1.42,0-2.84,0-4.26,0-1.24,0-2-.66-2-1.64s.76-1.68,2-1.73,1.37,0,1.37-1.41c0-.54,0-1.08,0-1.62a1.51,1.51,0,0,1,1.44-1.64,1.54,1.54,0,0,1,1.8,1.39,11.86,11.86,0,0,1,.08,2.23c0,.79.25,1.14,1.06,1a8.51,8.51,0,0,1,1,0c.45,0,.73-.17.71-.65a21.53,21.53,0,0,0-.18-4.75,6.08,6.08,0,0,0-4.52-4.62c-1.14-.32-2.31-.52-3.45-.84-.67-.2-1,0-1.23.63-.74,1.74-1.52,3.47-2.28,5.2a1.74,1.74,0,0,1-3.37,0c-.77-1.73-1.55-3.46-2.28-5.21-.26-.61-.58-.81-1.24-.62-1.21.34-2.44.55-3.65.9a6.22,6.22,0,0,0-4.5,5.87c0,1,0,2.1,0,3.14,0,.69.21,1,.93,1a3.37,3.37,0,0,1,.71,0c.9.12,1.23-.27,1.16-1.15a10.38,10.38,0,0,1,0-1.93,1.59,1.59,0,0,1,1.73-1.6c1,0,1.52.63,1.56,1.75,0,.23,0,.47,0,.71a5.41,5.41,0,0,0,.11,1.9c.29.66,1.1.21,1.67.36a1.75,1.75,0,0,1,1.42,1.73,1.67,1.67,0,0,1-1.68,1.58c-1.69,0-3.39,0-5.08,0-1.28,0-2.57,0-3.86,0s-2-.63-2.06-2,0-3.11,0-4.67c0-.74-.23-1-1-1-1.83,0-3.65,0-5.48,0-1.62,0-2.24-.59-2.25-2.18a17.76,17.76,0,0,1,.15-3.64,7.35,7.35,0,0,1,5.73-6c.55-.16,1.11-.28,1.68-.39.87-.18.8-.53.24-1a7.1,7.1,0,0,1-2.36-5.81c0-1,0-2,0-3.05a7,7,0,0,1,10.59-6.08c.82.47,1.09.28,1.52-.45A9.14,9.14,0,0,1,84.9,32c.4.69.66.78,1.37.38A7,7,0,0,1,96.9,38.54c0,1.09,0,2.17,0,3.25a6.92,6.92,0,0,1-2.28,5.44c-.21.2-.57.35-.48.72s.49.31.77.39a16.29,16.29,0,0,1,3.38,1,7.31,7.31,0,0,1,4,6.16,27.58,27.58,0,0,1,0,3.15,1.71,1.71,0,0,1-1.93,1.86c-1.93,0-3.86,0-5.79,0-.74,0-1,.24-1,1,0,1.55,0,3.11,0,4.67s-.62,2-2,2.06S88.61,68.28,87.12,68.28ZM82.77,41c-.15-.56.34-1.38-.42-1.87a10,10,0,0,0-2.47-1.36c-.71-.21-1.18.65-1.81,1a13.17,13.17,0,0,1-2.52,1,14.21,14.21,0,0,1-3.62.34c-.38,0-.76,0-.82.52a5.88,5.88,0,0,0,6.59,6.77C81,46.86,82.76,44.5,82.77,41ZM86.3,51.6a10,10,0,0,1,6.42,5.23c.18.36.53.37.88.37,1.52,0,3,0,4.56,0,.6,0,.83-.22.85-.83A4.14,4.14,0,0,0,95.92,52c-1.2-.33-2.42-.58-3.64-.88-.8-.19-1.47-.56-1.59-1.47,0-.38-.11-.67-.6-.58s-.89-.16-1,.53a1.86,1.86,0,0,1-1.59,1.51A2.11,2.11,0,0,0,86.3,51.6Zm-18.48-.07c-.34-.1-.45-.14-.56-.16-1.18-.26-2.34-.5-2.61-2-.09-.48-.65-.19-1-.27s-.47.13-.5.45c-.08,1-.81,1.41-1.68,1.62-1.22.3-2.45.54-3.65.89a4.14,4.14,0,0,0-3,4.3c0,.61.25.85.85.84,1.52,0,3,0,4.56,0a.9.9,0,0,0,.94-.46A9.9,9.9,0,0,1,67.82,51.53ZM82.46,35.09a1.19,1.19,0,0,0,0-.35,5.83,5.83,0,0,0-6.2-4,6,6,0,0,0-5.18,5.08c0,.59.13.85.77.88A7.22,7.22,0,0,0,78,34.46a1.84,1.84,0,0,1,2.46-.38A7.48,7.48,0,0,0,82.46,35.09Zm3.68,6.57c0,.2,0,.41,0,.61a3.72,3.72,0,0,0,7.37.37c.12-.85-.1-1.26-1-1.24a16.44,16.44,0,0,1-5.12-.64C86.12,40.39,86.12,40.4,86.14,41.66Zm-18.42.08c0-1.34,0-1.35-1.25-1a17.84,17.84,0,0,1-4.71.65c-1.49,0-1.8.49-1.23,1.93a3.73,3.73,0,0,0,7.19-1.61Zm24.15-3.66h.57c1.12,0,1.27-.23.8-1.23a3.77,3.77,0,0,0-6.3-.75c-.38.51-.36.79.26,1.06A14.44,14.44,0,0,0,91.87,38.08Zm-29.95,0a14.32,14.32,0,0,0,4.68-.9c.68-.28.69-.59.29-1.12a3.76,3.76,0,0,0-6.11.49C60.05,37.83,60.2,38.09,61.92,38.08ZM75.73,50.64c-.57-.07-.68.36-.49.83.42,1.1.9,2.18,1.38,3.26.14.31.39.44.57,0,.5-1.11,1-2.22,1.43-3.35.19-.51,0-.88-.67-.74A5.06,5.06,0,0,1,75.73,50.64Z"/><path class="cls-5" d="M116.81,61.19c0,3.89,0,7.79,0,11.68a14.4,14.4,0,0,1-2.64,8.49q-5.76,8.16-11.56,16.32a2.11,2.11,0,0,1-1.1,1,1.62,1.62,0,0,1-1.84-.5,1.67,1.67,0,0,1,0-2.16l4.75-6.71c2.19-3.09,4.37-6.19,6.57-9.28a13,13,0,0,0,2.49-7.88c-.07-7.62,0-15.23,0-22.85,0-1.7-.74-2.7-2-2.67s-2,1-2,2.7c0,6.1,0,12.19,0,18.28a11,11,0,0,1-3.22,8c-2.32,2.42-4.6,4.88-6.89,7.32a2.21,2.21,0,0,1-1.05.78A1.63,1.63,0,0,1,96.48,83a1.45,1.45,0,0,1,.15-2L103,74.23a8.3,8.3,0,0,0,1.4-1.73,2.41,2.41,0,0,0-.45-2.89,2.08,2.08,0,0,0-2.71-.26,64.73,64.73,0,0,0-8,5.61,19.79,19.79,0,0,0-6,10.74c-.8,3.77-1.59,7.54-2.4,11.31-.29,1.35-1,1.92-2,1.72s-1.47-1.1-1.2-2.4c.89-4.2,1.69-8.42,2.71-12.59a22.34,22.34,0,0,1,9-13.2c1.85-1.32,3.73-2.58,5.63-3.82a5.6,5.6,0,0,1,6.31-.27c.82.48.8.09.8-.52q0-8.28,0-16.56a7.56,7.56,0,0,1,.35-2.5,5.24,5.24,0,0,1,5.94-3.49,5.14,5.14,0,0,1,4.34,5c0,4.27,0,8.53,0,12.8Z"/><path class="cls-5" d="M37,61.1c0-4.16,0-8.33,0-12.49A5,5,0,0,1,40,43.86a5.18,5.18,0,0,1,5.57.5,5.49,5.49,0,0,1,2.16,4.8c0,5.49,0,11,0,16.46,0,1.2,0,1.19,1,.67a5.08,5.08,0,0,1,5.07-.09c3.79,2.29,7.63,4.54,10.62,7.92a24.09,24.09,0,0,1,5.44,11.09c.79,3.7,1.54,7.42,2.3,11.13.26,1.29-.21,2.2-1.2,2.39s-1.76-.37-2-1.73q-1.22-5.59-2.38-11.21a19.9,19.9,0,0,0-8.6-12.92c-1.63-1.1-3.26-2.19-4.91-3.27-1.32-.87-2.45-.8-3.28.17a2.43,2.43,0,0,0,.18,3.4c1.86,2.06,3.78,4.06,5.68,6.09.53.57,1.07,1.13,1.57,1.73a1.55,1.55,0,0,1,0,2.27,1.65,1.65,0,0,1-2.37,0c-1.23-1.25-2.42-2.56-3.63-3.84s-2.56-2.7-3.83-4.06a10.54,10.54,0,0,1-3-7.34q0-9.28,0-18.58c0-1-.16-2-1.27-2.56a1.9,1.9,0,0,0-2.65,1.37,3.08,3.08,0,0,0-.05.61q0,12.08,0,24.17a11,11,0,0,0,1.87,6.12c.91,1.39,1.91,2.72,2.84,4.09.75,1.1.64,2-.29,2.65s-1.69.37-2.41-.69c-1.47-2.14-3.24-4.09-4.22-6.55A15.39,15.39,0,0,1,37,72.78C37,68.89,37,65,37,61.1Z"/><path class="cls-5" d="M48.91,93.8A1.74,1.74,0,0,1,50,92.3a1.39,1.39,0,0,1,1.67.37,24.33,24.33,0,0,1,2.73,3.87A1.61,1.61,0,0,1,52,98.48a15.85,15.85,0,0,1-3-4.24A1.52,1.52,0,0,1,48.91,93.8Z"/><path class="cls-5" d="M68.49,21.94a1.67,1.67,0,0,1,1,.4,25,25,0,0,1,1.78,1.79A1.64,1.64,0,0,1,69,26.46a17,17,0,0,1-1.85-1.85,1.53,1.53,0,0,1-.14-1.8A1.67,1.67,0,0,1,68.49,21.94Z"/><path class="cls-5" d="M78.62,21.55a8.21,8.21,0,0,1-.13,1.83,1.56,1.56,0,0,1-1.58,1.19,1.49,1.49,0,0,1-1.55-1.21,7.41,7.41,0,0,1,0-3.11A1.47,1.47,0,0,1,76.88,19a1.52,1.52,0,0,1,1.62,1.25A9,9,0,0,1,78.62,21.55Z"/><path class="cls-5" d="M85.37,22a1.57,1.57,0,0,1,1.38,2.39,6.28,6.28,0,0,1-2.29,2.26,1.59,1.59,0,0,1-2.36-1.44C82.11,24.12,84.25,22,85.37,22Z"/><path class="cls-5" d="M77,65a1.69,1.69,0,0,1,1.61,1.65,1.64,1.64,0,1,1-3.28-.06A1.69,1.69,0,0,1,77,65Z"/><path class="cls-5" d="M47.31,87.67A1.61,1.61,0,0,1,49,89.23,1.65,1.65,0,0,1,47.38,91a1.73,1.73,0,0,1-1.67-1.7A1.6,1.6,0,0,1,47.31,87.67Z"/></g></svg>