<svg xmlns="http://www.w3.org/2000/svg" viewBox="0 0 117.83 117.83"><defs><style>.cls-1{fill:#262a58;}.cls-2{fill:#fff;}</style></defs><g id="TXT"><path class="cls-1" d="M117.83,58.88a58.92,58.92,0,1,0-58.87,59A59.1,59.1,0,0,0,117.83,58.88Z"/><path class="cls-2" d="M58.66,33.43a38.28,38.28,0,0,1,19.24,5.8A74.66,74.66,0,0,1,97.13,56.48c1.59,2,1.62,2.87.08,4.78A73.29,73.29,0,0,1,76.88,79.2a36.32,36.32,0,0,1-17.4,5.17,32.75,32.75,0,0,1-13.74-2.82c-7.32-3.12-13.45-7.9-19-13.48a78.45,78.45,0,0,1-6.09-6.79c-1.51-1.92-1.53-2.81,0-4.71a74.68,74.68,0,0,1,20.32-18C46.37,35.46,53.37,33.41,58.66,33.43ZM57.13,79.5a31.18,31.18,0,0,0,15.63-3.6C80.31,72,86.51,66.37,92,60a1.29,1.29,0,0,0,0-2A67.51,67.51,0,0,0,74.4,42.85a32.31,32.31,0,0,0-14.2-4.51,28.91,28.91,0,0,0-15,3.54c-7.62,4-13.86,9.6-19.42,16.08a1.24,1.24,0,0,0,0,1.94A67.1,67.1,0,0,0,43.43,75C48.22,77.71,53.29,79.4,57.13,79.5Z"/><path class="cls-2" d="M19.52,26.52c0-1.47,0-2.95,0-4.42a2.31,2.31,0,0,1,2.53-2.57q4.56,0,9.12,0a2.37,2.37,0,1,1,0,4.74c-1.87,0-3.74,0-5.61,0-1.3,0-1.3,0-1.3,1.35,0,1.83,0,3.67,0,5.51a2.38,2.38,0,1,1-4.75,0C19.51,29.59,19.52,28.05,19.52,26.52Z"/><path class="cls-2" d="M91.28,19.52c1.5,0,3,0,4.51,0A2.29,2.29,0,0,1,98.31,22c0,3.08,0,6.15,0,9.23a2.34,2.34,0,0,1-2.36,2.45,2.39,2.39,0,0,1-2.38-2.46c0-1.93,0-3.87,0-5.81,0-.86-.22-1.19-1.12-1.16-1.91.06-3.81,0-5.72,0a2.39,2.39,0,1,1,0-4.76Z"/><path class="cls-2" d="M26.58,98.31c-1.54,0-3.08,0-4.62,0a2.27,2.27,0,0,1-2.43-2.46c0-3.07,0-6.15,0-9.23a2.34,2.34,0,0,1,2.34-2.47,2.38,2.38,0,0,1,2.4,2.52c0,2,0,4,0,5.92,0,.75.25,1,1,1,1.94,0,3.88,0,5.81,0A2.41,2.41,0,0,1,33.68,96a2.37,2.37,0,0,1-2.59,2.33H26.58Z"/><path class="cls-2" d="M98.31,91.25c0,1.5,0,3,0,4.51a2.31,2.31,0,0,1-2.55,2.55c-3,0-6,0-9,0A2.36,2.36,0,0,1,84.15,96a2.41,2.41,0,0,1,2.62-2.41c1.94,0,3.88,0,5.81,0,.75,0,1-.25,1-1,0-1.94,0-3.88,0-5.82a2.38,2.38,0,1,1,4.75,0v4.52Z"/><path class="cls-2" d="M58.92,42.63A16.29,16.29,0,1,0,75.2,59,16.52,16.52,0,0,0,58.92,42.63ZM59,66a7.05,7.05,0,1,1,7-7.09A7.23,7.23,0,0,1,59,66Z"/></g></svg>