<svg xmlns="http://www.w3.org/2000/svg" viewBox="0 0 117.83 117.83"><defs><style>.cls-1{fill:#262a58;}.cls-2{fill:#fff;}</style></defs><g id="TXT"><path class="cls-1" d="M117.83,58.88a58.92,58.92,0,1,0-58.87,59A59.1,59.1,0,0,0,117.83,58.88Z"/><path class="cls-2" d="M63,17.34a6,6,0,1,1-8.55,0,6.05,6.05,0,0,1,8.55,0m2.72-2.72a9.89,9.89,0,1,0,0,14,9.88,9.88,0,0,0,0-14Z"/><path class="cls-2" d="M81.28,35.65a6,6,0,1,1-8.54,0,6,6,0,0,1,8.54,0M84,32.92a9.89,9.89,0,1,0,0,14,9.9,9.9,0,0,0,0-14Z"/><path class="cls-2" d="M99.59,54A6,6,0,1,1,91,54a6.07,6.07,0,0,1,8.55,0m2.72-2.72a9.89,9.89,0,1,0,0,14,9.9,9.9,0,0,0,0-14Z"/><path class="cls-2" d="M44,36.34a6,6,0,1,1-8.55,0,6.05,6.05,0,0,1,8.55,0m2.72-2.72a9.89,9.89,0,1,0,0,14,9.88,9.88,0,0,0,0-14Z"/><path class="cls-2" d="M62.28,54.65a6,6,0,1,1-8.54,0,6,6,0,0,1,8.54,0M65,51.92a9.89,9.89,0,1,0,0,14,9.9,9.9,0,0,0,0-14Z"/><path class="cls-2" d="M80.59,73A6,6,0,1,1,72,73a6.07,6.07,0,0,1,8.55,0m2.72-2.72a9.89,9.89,0,1,0,0,14,9.9,9.9,0,0,0,0-14Z"/><path class="cls-2" d="M25,55.34a6,6,0,1,1-8.55,0,6.05,6.05,0,0,1,8.55,0m2.72-2.72a9.89,9.89,0,1,0,0,14,9.88,9.88,0,0,0,0-14Z"/><path class="cls-2" d="M43.28,73.65a6,6,0,1,1-8.54,0,6,6,0,0,1,8.54,0M46,70.92a9.89,9.89,0,1,0,0,14,9.89,9.89,0,0,0,0-14Z"/><path class="cls-2" d="M61.59,92A6,6,0,1,1,53,92a6.05,6.05,0,0,1,8.55,0m2.72-2.72a9.89,9.89,0,1,0,0,14,9.9,9.9,0,0,0,0-14Z"/></g></svg>