<svg xmlns="http://www.w3.org/2000/svg" xmlns:xlink="http://www.w3.org/1999/xlink" viewBox="0 0 117.83 117.83"><defs><style>.cls-1{fill:#ffce00;}.cls-2{clip-path:url(#clip-path);}.cls-3{fill:#ffef4f;}.cls-4{fill:#ffb300;}.cls-5{fill:#fff;}</style><clipPath id="clip-path"><path class="cls-1" d="M117.83,58.86a58.92,58.92,0,1,0-58.86,59A59.09,59.09,0,0,0,117.83,58.86Z"/></clipPath></defs><g id="TXT"><path class="cls-1" d="M117.83,58.86a58.92,58.92,0,1,0-58.86,59A59.09,59.09,0,0,0,117.83,58.86Z"/><g class="cls-2"><path class="cls-3" d="M7.28,100.43A104.66,104.66,0,0,1,2.14,60.49a28.08,28.08,0,0,1,.94-6.19,30.61,30.61,0,0,1,3.2-6.68A226,226,0,0,1,25.65,19.83a19.84,19.84,0,0,1,4.81-4.65A20.52,20.52,0,0,1,37.1,13q8.84-1.83,17.66-3.62L82,3.81C87.31,2.72,92.78,1.62,98.19,2.3c2.69.33,5.36,1.1,8.06.86.17-4-4.13-6.61-7.84-8.21q-8.73-3.75-17.6-7.17C71.89-15.65,62.46-18.86,53-17.7c-7.66.93-14.72,4.66-21,9.19A122.93,122.93,0,0,0,11.41,11.11C-.82,25.3-11.42,41.28-16.83,59.22a13.53,13.53,0,0,0-.8,5.51c.28,2.32,1.64,4.34,3,6.27l5,7.33a36.19,36.19,0,0,0,4.29,5.55,25.28,25.28,0,0,1,3.18,3.44c1.42,2,2.45,4.32,3.84,6.38A44,44,0,0,0,7.28,100.43Z"/><path class="cls-4" d="M103.22,16c-2.57-1.54-5.47-3-8.43-2.54l5.49,15.27c3.52,9.77,7,19.56,9.67,29.61a14.88,14.88,0,0,1,.66,6.09A15.51,15.51,0,0,1,108,70.06c-5.87,9-11.75,18-18.06,26.76-2.65,3.67-5.44,7.35-9.16,9.92a37,37,0,0,1-10.07,4.5,142,142,0,0,1-19.2,4.64c-4.77.8-9.76,1.42-13.83,4,8,3.57,17.15,3.51,25.91,2.84,9.52-.72,19.05-2.11,28.1-5.16,6.26-2.1,12.36-5.07,17.09-9.68,4.18-4.09,7.1-9.29,9.63-14.56a142.48,142.48,0,0,0,11.41-34.58c.74-3.85,1.32-7.84.49-11.67a25.87,25.87,0,0,0-3.4-7.72c-1.49-2.46-3.15-4.82-4.5-7.36-.9-1.7-1.62-3.47-3.06-4.78a72.56,72.56,0,0,0-6.93-5.3q-4-2.84-8.18-5.39Z"/></g><path class="cls-5" d="M44.28,107.61A19.68,19.68,0,0,1,25.43,93.79a1.2,1.2,0,0,0-1.44-1,8,8,0,0,1-4.16-15.06c.87-.46.89-.91.66-1.71-.76-2.58-1.36-5.22-2.22-7.76-2.05-6,1.33-10.26,7.25-10.84,1.18-.11,1.92-.43,2.24-1.73a5.47,5.47,0,0,1,3.11-3.43A17.47,17.47,0,0,1,35,51.05a1.44,1.44,0,0,1,1.92,1.05A1.52,1.52,0,0,1,35.83,54c-.94.36-1.94.57-2.9.88a3.12,3.12,0,0,0-2.35,3.49c.12,1.54-.37,2.11-1.95,2.1a15.17,15.17,0,0,0-4.3.4c-2.78.77-3.95,2.69-3.27,5.47.34,1.4.79,2.77,1.15,4.17.22.87.63,1.22,1.55.89s1.67-.44,2.49-.73a10.62,10.62,0,0,1,10.24,1.63,8.3,8.3,0,0,0,7.28,1.25c1.35-.35,2.7-.73,4-1.11,2.64-.74,5.27-1.51,7.92-2.21.9-.23,1.17-.61.9-1.53-1.45-5-2.8-10-4.28-15-.75-2.54-2.58-3.47-5.15-2.82-1.63.42-3.25.89-4.88,1.33a1.57,1.57,0,0,1-2.13-.94,1.46,1.46,0,0,1,1.11-2,31.68,31.68,0,0,1,6.27-1.66c3.91-.44,6.64,1.32,7.81,5.09s2.1,7.41,3.13,11.11a7.41,7.41,0,0,1,.3,1.12c.16,1.2.81,1.48,2,1.47a7.95,7.95,0,0,1,3.94,15,1.41,1.41,0,0,0-.81,1.83A19.93,19.93,0,0,1,54.44,105,18.52,18.52,0,0,1,44.28,107.61Zm17-19.73c-.07-.81-.11-1.63-.24-2.43-.61-3.77-1.94-7.35-2.79-11-.27-1.19-.78-1.41-1.93-1.07-3.64,1.09-7.31,2.06-11,3.11a12.45,12.45,0,0,1-11-1.66,6.67,6.67,0,0,0-5.14-1.47c-1.6.32-3.16.81-4.75,1.19-.87.21-1,.69-.8,1.5,1.61,5.59,3.11,11.22,4.81,16.78A16.93,16.93,0,0,0,46.8,104.32,17.13,17.13,0,0,0,61.3,87.88Zm-42.68-3.5c0,3,1.69,4.85,4.13,5.23,1,.15,1.51-.07,1.18-1.2-.65-2.31-1.31-4.62-1.92-6.94-.26-1-.77-1-1.44-.48A4.55,4.55,0,0,0,18.62,84.38Zm47.22-9.8a5,5,0,0,0-4.59-5c-.7,0-1,.21-.8.94q1,3.75,2.06,7.5c.18.67.54.7,1.06.38A4.94,4.94,0,0,0,65.84,74.58Z"/><path class="cls-5" d="M80.23,63.77a14.26,14.26,0,0,0,3.27-.37c1.06-.13,1.9.18,2.11,1.25s-.5,1.68-1.53,1.89A19.6,19.6,0,0,1,60.64,50.16,18.5,18.5,0,0,1,61,43a1.32,1.32,0,0,0-.73-1.74,7.54,7.54,0,0,1-4-8.46,7.67,7.67,0,0,1,6.9-6.21,1.08,1.08,0,0,1,.43,0c2.31.78,3.35-.78,4.66-2.25,5.1-5.71,11.51-8,19-6.24s12.23,6.57,14.52,13.85a12.45,12.45,0,0,1,.62,4,1.62,1.62,0,0,0,1.16,1.73,7.76,7.76,0,0,1-3.8,14.89c-.9-.07-1,.4-1.25,1A19.82,19.82,0,0,1,91.89,63l-.35.26c-.9.69-1.91,1.24-2.77.09s-.11-2,.84-2.63a15.71,15.71,0,0,0,5.68-7.48,47.88,47.88,0,0,0,1.61-5.4c.8-3.16,2-6.22,2.35-9.51a30.15,30.15,0,0,0-.11-3c0-1.15-.36-1.47-1.46-.88a18.35,18.35,0,0,1-7.86,2.18,19.07,19.07,0,0,1-16.91-7.87c-.32-.42-.61-.87-.89-1.32-1-1.62-1-1.62-2.21,0a18.56,18.56,0,0,0-2.24,4.19c-.36.92-.88,1.7-2,1.41s-1.27-1.19-1-2.18c.16-.61,0-.89-.65-1A4.58,4.58,0,0,0,59.52,33c-.59,2.08.3,4.54,1.91,5.31.43.21.73.2.92-.28.09-.22.14-.46.24-.68.4-.87,1-1.49,2-1.12a1.56,1.56,0,0,1,1,2.11c-.43,1.58-.85,3.16-1.29,4.73A16.34,16.34,0,0,0,80.23,63.77Zm1.93-43a15.84,15.84,0,0,0-7.41,2.11c-.86.49-1,1-.54,1.86A16.33,16.33,0,0,0,96.8,31.31c.88-.53,1.07-1,.58-1.94C94.68,24.2,88.44,20.22,82.16,20.81Zm23,23.25a4.6,4.6,0,0,0-2-3.1c-.55-.42-1-.34-1.16.38-.64,2.35-1.27,4.71-1.92,7.07-.25.88.24,1,.92,1C103.28,49.3,105.19,47.22,105.19,44.06Z"/><path class="cls-5" d="M90.88,75.77c.05,2.2-1.24,3.81-3.5,3.72-3.64-.14-7.28-.43-10.91-.77a3.24,3.24,0,0,1-3.1-3.36c0-.43-.06-.86-.11-1.29A3.35,3.35,0,0,1,76,70c3.46-.79,6.94-1.51,10.44-2.13,2.3-.41,3.81.85,4,3.17C90.68,72.53,90.76,74,90.88,75.77Zm-3.29-1.49c-.09-.76-.22-1.52-.25-2.28s-.42-1-1.12-.81c-2.91.61-5.82,1.22-8.73,1.8-.92.18-1.09.75-1,1.57s.62,1,1.35,1.08c2.59.16,5.17.35,7.75.54C87.49,76.32,87.59,76.24,87.59,74.28Z"/><path class="cls-5" d="M58,22.55c0,2.84-1.94,3.73-3.57,4.73-1.34.84-2.69.33-3.8-.74-2.56-2.47-5.16-4.91-7.67-7.42a3.07,3.07,0,0,1,.11-4.82,41.17,41.17,0,0,1,4.43-3.46c1.74-1.18,3.48-.65,4.75,1.37,1.15,1.84,2.21,3.73,3.3,5.6.59,1,1.18,2,1.76,3A4.2,4.2,0,0,1,58,22.55Zm-3.3.19c-.15-.27-.3-.57-.47-.86l-3-5.07C49.12,13.29,49.12,13.29,46,16l-.11.08c-.61.42-.67.86-.11,1.4q3.38,3.22,6.73,6.49c.36.35.71.48,1.12.1S54.67,23.49,54.68,22.74Z"/><path class="cls-5" d="M71.77,90.66a4.23,4.23,0,0,1,2.28.62c2.88,1.55,5.78,3.07,8.65,4.65,2.37,1.31,2.81,3.19,1.3,5.4-.84,1.24-1.71,2.45-2.63,3.63-1.52,2-3.55,2.08-5.35.37-2.45-2.32-4.89-4.64-7.31-7-1.7-1.65-1.84-3-.48-5C69.12,92.05,69.91,90.56,71.77,90.66Zm.41,3.26c-.77,0-.88.69-1.22,1.11s-.13,1,.29,1.37c2.23,2.12,4.47,4.24,6.68,6.38.56.54.88.36,1.25-.19a26.12,26.12,0,0,1,1.66-2.35c.73-.87.56-1.38-.4-1.88-2.52-1.33-5-2.71-7.49-4.06C72.69,94.16,72.43,94.05,72.18,93.92Z"/><path class="cls-5" d="M42.09,45.72c-3.12-.26-6.58-.47-10-.84A3,3,0,0,1,29.24,41c.29-1.65.65-3.3,1.05-4.93.55-2.2,2.1-3.22,4.21-2.54C38,34.7,41.5,36,45,37.3c1.73.67,2.22,1.76,2,3.68-.05.43-.1.86-.19,1.28C46.25,45,45.2,45.81,42.09,45.72Zm-1-3.27a6.4,6.4,0,0,1,1,0c.83.11,1.41.12,1.66-1s-.36-1.41-1.18-1.7c-1.82-.64-3.62-1.31-5.43-2-4.1-1.47-4.1-1.47-4.61,2.92,0,0,0,.09,0,.14-.16.68.1.94.81,1C35.85,42,38.39,42.24,41.11,42.45Z"/><path class="cls-5" d="M92.39,86.29a26.49,26.49,0,0,1-1.93,6.6,2.82,2.82,0,0,1-3.68,1.4q-5.32-2.22-10.57-4.62a3,3,0,0,1-1.73-3.33,12.73,12.73,0,0,1,.47-2.1c.72-2.28,2-3.09,4.35-2.77,2.85.39,5.7.83,8.55,1.27a8.82,8.82,0,0,1,2.53.51A3,3,0,0,1,92.39,86.29Zm-3.33.7c.11-.78-.29-.91-.66-1-3.13-.45-6.27-.86-9.4-1.32-.92-.13-1,.52-1.18,1.1s-.16,1.1.52,1.4c2.86,1.23,5.71,2.49,8.57,3.73.36.15.79.34,1-.19C88.32,89.42,88.72,88.09,89.06,87Z"/><path class="cls-5" d="M43.59,34.19a4.49,4.49,0,0,1-2-.53l-8.68-3.95c-2.51-1.14-3.1-3-1.69-5.38q1.14-1.93,2.35-3.81a3.2,3.2,0,0,1,5-.93c2.84,2.3,5.64,4.67,8.39,7.08a3,3,0,0,1,.9,3.88C46.7,33.16,45.48,34.22,43.59,34.19Zm1.29-5c0-.37-.4-.55-.68-.79-2.28-1.91-4.61-3.77-6.85-5.73-.83-.73-1.2-.42-1.62.33s-.95,1.68-1.5,2.47-.4,1.12.45,1.5c2.72,1.19,5.42,2.46,8.13,3.69A1.59,1.59,0,0,0,44.88,29.22Z"/><path class="cls-5" d="M78.06,57a8,8,0,0,1-7.83-9.55c.32-1.47,1-2,2.48-1.59,3.89,1.06,7.77,2.19,11.65,3.31,1.31.38,1.54,1.3,1.19,2.49A8.06,8.06,0,0,1,78.06,57ZM78,53.81a5.18,5.18,0,0,0,3.07-1.06c.7-.5.81-1-.18-1.24l-6.5-1.88c-.32-.1-.68-.22-.93.1s0,.64.12.94A4.69,4.69,0,0,0,78,53.81Z"/><path class="cls-5" d="M87.53,40.94a4.16,4.16,0,0,1,4.17,4.5c-.13,1-.52,1.8-1.68,1.79s-1.49-.75-1.56-1.72c0-.54,0-1.12-.65-1.32s-1,.4-1.3.86a1.48,1.48,0,0,1-2.11.61,1.57,1.57,0,0,1-.6-2.24A4,4,0,0,1,87.53,40.94Z"/><path class="cls-5" d="M70.91,36.33a4.26,4.26,0,0,1,4.59,4.06c0,1-.29,2.11-1.58,2.22s-1.67-.73-1.68-1.84c0-.51-.09-1-.62-1.19s-1,.26-1.25.71c-.57.9-1.32,1.31-2.29.69s-.85-1.52-.39-2.42A3.86,3.86,0,0,1,70.91,36.33Z"/><path class="cls-5" d="M55.36,89A8.08,8.08,0,0,1,39.8,92c-.71-1.76-.33-2.56,1.53-3.09L51.59,86C54.68,85.19,55.35,85.72,55.36,89Zm-8.82,4.89c3,0,5-1.58,5.56-3.72.18-.69,0-.91-.67-.72l-7.36,2c-.72.19-.69.51-.23,1A4.33,4.33,0,0,0,46.54,93.85Z"/><path class="cls-5" d="M57.51,80.19a1.42,1.42,0,0,1-.83,1.29,1.5,1.5,0,0,1-1.74-.23,3.12,3.12,0,0,1-.5-.69c-.27-.45-.6-.78-1.16-.64s-.78.62-.82,1.2a3.47,3.47,0,0,1-.21,1.11A1.31,1.31,0,0,1,51,83a1.45,1.45,0,0,1-1.42-.8,3.89,3.89,0,0,1,.66-4,4.12,4.12,0,0,1,4.53-1.32A3.94,3.94,0,0,1,57.51,80.19Z"/><path class="cls-5" d="M32.63,85.45a4.07,4.07,0,0,1,3.27-4,4.19,4.19,0,0,1,4.73,2.45c.38.92.33,1.74-.6,2.24a1.48,1.48,0,0,1-2.1-.67c-.35-.54-.69-1.12-1.46-.85a1.05,1.05,0,0,0-.69,1.15c.07,1.15-.37,1.9-1.6,1.91C33.17,87.65,32.63,86.85,32.63,85.45Z"/></g></svg>