<svg xmlns="http://www.w3.org/2000/svg" xmlns:xlink="http://www.w3.org/1999/xlink" viewBox="0 0 117.83 117.83"><defs><style>.cls-1{fill:#1e8e30;}.cls-2{clip-path:url(#clip-path);}.cls-3{fill:#23d638;}.cls-4{fill:#18733d;}.cls-5{fill:#fff;}</style><clipPath id="clip-path"><path class="cls-1" d="M58.9,0a58.92,58.92,0,1,0,58.93,58.9A59.1,59.1,0,0,0,58.9,0Z"/></clipPath></defs><g id="TXT"><path class="cls-1" d="M58.9,0a58.92,58.92,0,1,0,58.93,58.9A59.1,59.1,0,0,0,58.9,0Z"/><g class="cls-2"><path class="cls-3" d="M9.58,100.92A104.74,104.74,0,0,1,4.44,61a28.17,28.17,0,0,1,.94-6.19,30.61,30.61,0,0,1,3.2-6.68A226,226,0,0,1,28,20.31a19.84,19.84,0,0,1,4.81-4.65,20.68,20.68,0,0,1,6.64-2.19q8.84-1.83,17.66-3.62L84.26,4.3c5.35-1.1,10.82-2.19,16.23-1.52,2.69.33,5.36,1.1,8.06.86.17-4-4.13-6.61-7.84-8.2Q92-8.33,83.11-11.74c-8.92-3.43-18.35-6.63-27.84-5.48-7.66.93-14.72,4.66-21,9.19A123.79,123.79,0,0,0,13.7,11.59C1.47,25.78-9.12,41.77-14.53,59.7a13.53,13.53,0,0,0-.8,5.51c.28,2.32,1.64,4.35,3,6.27l5,7.34A36.6,36.6,0,0,0-3,84.36,25.89,25.89,0,0,1,.13,87.8c1.42,2,2.45,4.32,3.84,6.38A44.6,44.6,0,0,0,9.58,100.92Z"/><path class="cls-4" d="M105.52,16.46c-2.58-1.53-5.47-3-8.43-2.54l5.49,15.27c3.52,9.77,7,19.56,9.66,29.61a14.72,14.72,0,0,1,.67,6.09,15.51,15.51,0,0,1-2.66,5.65c-5.87,9-11.75,18-18.06,26.77-2.65,3.66-5.44,7.34-9.16,9.92A36.92,36.92,0,0,1,73,111.72a139.09,139.09,0,0,1-19.2,4.64c-4.77.8-9.76,1.42-13.84,4,8,3.56,17.16,3.5,25.92,2.84,9.52-.73,19-2.12,28.1-5.16C100.2,116,106.3,113,111,108.4c4.18-4.09,7.1-9.29,9.63-14.56a142.34,142.34,0,0,0,11.41-34.58c.74-3.85,1.32-7.84.49-11.67a25.87,25.87,0,0,0-3.4-7.72c-1.49-2.46-3.15-4.81-4.5-7.36-.9-1.69-1.62-3.46-3.06-4.78a72.56,72.56,0,0,0-6.93-5.3q-4-2.84-8.18-5.38Z"/></g><path class="cls-5" d="M69.12,68.28c-1.42,0-2.84,0-4.26,0-1.24,0-2-.66-2-1.64s.76-1.68,2-1.73c1.37,0,1.37,0,1.38-1.41,0-.54,0-1.08,0-1.62a1.52,1.52,0,0,1,1.45-1.64,1.55,1.55,0,0,1,1.8,1.39,11.86,11.86,0,0,1,.08,2.23c0,.79.25,1.14,1.05,1a8.68,8.68,0,0,1,1,0c.44,0,.72-.17.71-.65a22.16,22.16,0,0,0-.18-4.75,6.09,6.09,0,0,0-4.53-4.62c-1.13-.32-2.31-.52-3.44-.84-.67-.2-1,0-1.24.63-.73,1.74-1.52,3.47-2.28,5.2a1.76,1.76,0,0,1-1.74,1.3,1.79,1.79,0,0,1-1.63-1.31c-.76-1.73-1.54-3.46-2.28-5.21A.88.88,0,0,0,53.71,54c-1.2.34-2.44.55-3.64.9a6.24,6.24,0,0,0-4.51,5.87c0,1,0,2.1,0,3.14,0,.69.21,1,.93,1a3.37,3.37,0,0,1,.71,0c.89.12,1.23-.27,1.16-1.15a10.37,10.37,0,0,1,0-1.93,1.6,1.6,0,0,1,1.74-1.6c1,0,1.51.63,1.55,1.75,0,.23,0,.47,0,.71a5.41,5.41,0,0,0,.11,1.9c.29.66,1.1.21,1.66.36a1.76,1.76,0,0,1,1.43,1.73,1.68,1.68,0,0,1-1.69,1.58c-1.69,0-3.38,0-5.07,0-1.29,0-2.57,0-3.86,0s-2-.63-2.06-2,0-3.11,0-4.67c0-.74-.23-1-1-1-1.83,0-3.66,0-5.49,0-1.62,0-2.24-.59-2.24-2.18a18.49,18.49,0,0,1,.14-3.64,7.37,7.37,0,0,1,5.74-6c.55-.16,1.11-.28,1.67-.39.88-.18.81-.53.25-1a7.1,7.1,0,0,1-2.36-5.81c0-1,0-2,0-3.05a7,7,0,0,1,10.58-6.08c.83.47,1.1.28,1.53-.45A9.14,9.14,0,0,1,66.9,32c.4.69.65.78,1.36.38A7,7,0,0,1,78.9,38.54c0,1.09,0,2.17,0,3.25a7,7,0,0,1-2.28,5.44c-.21.2-.57.35-.48.72s.49.31.76.39a16.2,16.2,0,0,1,3.39,1,7.28,7.28,0,0,1,4,6.16,25.46,25.46,0,0,1,0,3.15,1.72,1.72,0,0,1-1.93,1.86c-1.93,0-3.86,0-5.79,0-.74,0-1,.24-1,1,0,1.55,0,3.11,0,4.67s-.62,2-2,2.06S70.61,68.28,69.12,68.28ZM64.77,41c-.15-.56.33-1.38-.42-1.87a10.15,10.15,0,0,0-2.47-1.36c-.71-.21-1.19.65-1.81,1a13.53,13.53,0,0,1-2.53,1,14.13,14.13,0,0,1-3.61.34c-.38,0-.77,0-.83.52a5.89,5.89,0,0,0,6.59,6.77C63,46.86,64.76,44.5,64.77,41ZM68.3,51.6a10,10,0,0,1,6.41,5.23c.18.36.54.37.88.37,1.53,0,3,0,4.57,0,.59,0,.82-.22.85-.83A4.14,4.14,0,0,0,77.92,52c-1.2-.33-2.43-.58-3.64-.88-.81-.19-1.47-.56-1.6-1.47-.05-.38-.1-.67-.59-.58s-.89-.16-1,.53a1.88,1.88,0,0,1-1.59,1.51A2.11,2.11,0,0,0,68.3,51.6Zm-18.49-.07a5.4,5.4,0,0,0-.56-.16c-1.17-.26-2.33-.5-2.6-2-.09-.48-.65-.19-1-.27s-.47.13-.5.45c-.08,1-.81,1.41-1.69,1.62-1.21.3-2.44.54-3.64.89a4.14,4.14,0,0,0-3,4.3c0,.61.24.85.84.84,1.53,0,3,0,4.57,0a.91.91,0,0,0,.94-.46A9.86,9.86,0,0,1,49.81,51.53ZM64.46,35.09a1.68,1.68,0,0,0,0-.35,5.83,5.83,0,0,0-6.2-4,6,6,0,0,0-5.18,5.08c-.06.59.13.85.76.88A7.24,7.24,0,0,0,60,34.46a1.84,1.84,0,0,1,2.46-.38A7.48,7.48,0,0,0,64.46,35.09Zm3.68,6.57c0,.2,0,.41,0,.61a3.72,3.72,0,0,0,7.38.37c.11-.85-.11-1.26-1.06-1.24a16.37,16.37,0,0,1-5.11-.64C68.12,40.39,68.11,40.4,68.14,41.66Zm-18.43.08c0-1.34,0-1.35-1.25-1a17.77,17.77,0,0,1-4.7.65c-1.5,0-1.81.49-1.23,1.93a3.73,3.73,0,0,0,7.18-1.61Zm24.15-3.66h.58c1.12,0,1.26-.23.8-1.23a3.78,3.78,0,0,0-6.31-.75c-.37.51-.35.79.27,1.06A14.38,14.38,0,0,0,73.86,38.08Zm-29.95,0a14.38,14.38,0,0,0,4.69-.9c.67-.28.69-.59.28-1.12a3.75,3.75,0,0,0-6.1.49C42.05,37.83,42.19,38.09,43.91,38.08ZM57.73,50.64c-.57-.07-.68.36-.5.83.43,1.1.91,2.18,1.39,3.26.14.31.39.44.57,0,.5-1.11,1-2.22,1.42-3.35.19-.51,0-.88-.66-.74A5.06,5.06,0,0,1,57.73,50.64Z"/><path class="cls-5" d="M98.81,61.19V72.87a14.47,14.47,0,0,1-2.64,8.49q-5.76,8.16-11.56,16.32a2.13,2.13,0,0,1-1.11,1,1.61,1.61,0,0,1-1.83-.5,1.67,1.67,0,0,1,0-2.16l4.76-6.71C88.63,86.22,90.81,83.12,93,80a13,13,0,0,0,2.48-7.88c-.06-7.62,0-15.23,0-22.85,0-1.7-.74-2.7-2-2.67s-2,1-2,2.7c0,6.1,0,12.19,0,18.28a11,11,0,0,1-3.23,8C86,78,83.69,80.45,81.39,82.89a2.23,2.23,0,0,1-1,.78A1.62,1.62,0,0,1,78.48,83a1.45,1.45,0,0,1,.15-2q3.18-3.42,6.38-6.82a8.3,8.3,0,0,0,1.4-1.73A2.41,2.41,0,0,0,86,69.61a2.08,2.08,0,0,0-2.71-.26,63.24,63.24,0,0,0-8,5.61,19.75,19.75,0,0,0-6,10.74c-.8,3.77-1.58,7.54-2.39,11.31-.29,1.35-1,1.92-2.06,1.72s-1.46-1.1-1.19-2.4c.89-4.2,1.69-8.42,2.71-12.59a22.3,22.3,0,0,1,9-13.2c1.84-1.32,3.73-2.58,5.62-3.82a5.61,5.61,0,0,1,6.32-.27c.81.48.79.09.79-.52,0-5.52,0-11,0-16.56a7.56,7.56,0,0,1,.35-2.5,5.23,5.23,0,0,1,5.93-3.49,5.15,5.15,0,0,1,4.35,5c0,4.27,0,8.53,0,12.8Z"/><path class="cls-5" d="M19,61.1c0-4.16,0-8.33,0-12.49A5,5,0,0,1,22,43.86a5.18,5.18,0,0,1,5.57.5,5.46,5.46,0,0,1,2.15,4.8q0,8.24,0,16.46c0,1.2,0,1.19,1,.67a5.08,5.08,0,0,1,5.07-.09c3.79,2.29,7.63,4.54,10.61,7.92a24,24,0,0,1,5.44,11.09c.8,3.7,1.55,7.42,2.31,11.13.26,1.29-.21,2.2-1.21,2.39s-1.75-.37-2-1.73q-1.2-5.59-2.37-11.21a19.91,19.91,0,0,0-8.61-12.92c-1.62-1.1-3.26-2.19-4.9-3.27-1.32-.87-2.46-.8-3.28.17a2.44,2.44,0,0,0,.17,3.4c1.87,2.06,3.79,4.06,5.69,6.09.53.57,1.06,1.13,1.56,1.73a1.55,1.55,0,0,1,0,2.27,1.65,1.65,0,0,1-2.37,0c-1.24-1.25-2.42-2.56-3.63-3.84s-2.56-2.7-3.83-4.06a10.49,10.49,0,0,1-3-7.34q0-9.28,0-18.58a2.44,2.44,0,0,0-1.26-2.56,1.9,1.9,0,0,0-2.65,1.37,3.08,3.08,0,0,0-.05.61q0,12.08,0,24.17a11,11,0,0,0,1.88,6.12c.9,1.39,1.9,2.72,2.84,4.09.74,1.1.63,2-.29,2.65s-1.7.37-2.42-.69c-1.46-2.14-3.24-4.09-4.22-6.55A15.57,15.57,0,0,1,19,72.78C19,68.89,19,65,19,61.1Z"/><path class="cls-5" d="M30.9,93.8A1.77,1.77,0,0,1,32,92.3a1.38,1.38,0,0,1,1.66.37,24.39,24.39,0,0,1,2.74,3.87A1.42,1.42,0,0,1,36,98.36a1.4,1.4,0,0,1-2,.12A15.85,15.85,0,0,1,31,94.24,1.28,1.28,0,0,1,30.9,93.8Z"/><path class="cls-5" d="M50.48,21.94a1.69,1.69,0,0,1,1.05.4,24.89,24.89,0,0,1,1.77,1.79A1.64,1.64,0,0,1,51,26.46a16.16,16.16,0,0,1-1.85-1.85,1.5,1.5,0,0,1-.14-1.8A1.67,1.67,0,0,1,50.48,21.94Z"/><path class="cls-5" d="M60.62,21.55a8.21,8.21,0,0,1-.13,1.83,1.57,1.57,0,0,1-1.58,1.19,1.49,1.49,0,0,1-1.55-1.21,7.58,7.58,0,0,1,0-3.11A1.49,1.49,0,0,1,58.87,19a1.51,1.51,0,0,1,1.62,1.25A8,8,0,0,1,60.62,21.55Z"/><path class="cls-5" d="M67.37,22a1.57,1.57,0,0,1,1.37,2.39,6.18,6.18,0,0,1-2.28,2.26,1.59,1.59,0,0,1-2.36-1.44C64.1,24.12,66.25,22,67.37,22Z"/><path class="cls-5" d="M59,65a1.7,1.7,0,0,1,1.61,1.65,1.64,1.64,0,1,1-3.28-.06A1.68,1.68,0,0,1,59,65Z"/><path class="cls-5" d="M29.3,87.67A1.59,1.59,0,0,1,31,89.23,1.65,1.65,0,0,1,29.38,91a1.73,1.73,0,0,1-1.68-1.7A1.6,1.6,0,0,1,29.3,87.67Z"/></g></svg>