<svg xmlns="http://www.w3.org/2000/svg" xmlns:xlink="http://www.w3.org/1999/xlink" viewBox="0 0 81.93 81.93"><defs><style>.cls-1{fill:#3bc7ed;}.cls-2{clip-path:url(#clip-path);}.cls-3{fill:#2fddfa;}.cls-4{fill:#3493bf;}.cls-5{fill:#fff;}</style><clipPath id="clip-path"><path class="cls-1" d="M81.93,40.93A41,41,0,1,0,41,81.93,41.09,41.09,0,0,0,81.93,40.93Z"/></clipPath></defs><g id="TXT"><path class="cls-1" d="M81.93,40.93A41,41,0,1,0,41,81.93,41.09,41.09,0,0,0,81.93,40.93Z"/><g class="cls-2"><path class="cls-3" d="M7.17,70.34A72.88,72.88,0,0,1,3.6,42.57a19.61,19.61,0,0,1,.65-4.31,20.86,20.86,0,0,1,2.23-4.64A157.17,157.17,0,0,1,20,14.29a13.84,13.84,0,0,1,3.34-3.23,14.2,14.2,0,0,1,4.62-1.52C32,8.69,36.09,7.86,40.19,7L59.1,3.16c3.72-.76,7.52-1.52,11.29-1.06a25.94,25.94,0,0,0,5.6.6c.12-2.8-2.88-4.59-5.45-5.7Q64.46-5.62,58.3-8c-6.21-2.38-12.76-4.62-19.36-3.81-5.32.64-10.24,3.24-14.58,6.39A86,86,0,0,0,10,8.23c-8.5,9.87-15.87,21-19.63,33.45a9.35,9.35,0,0,0-.56,3.83,10.26,10.26,0,0,0,2.06,4.36l3.5,5.1a24.82,24.82,0,0,0,3,3.86A17.25,17.25,0,0,1,.6,61.22c1,1.42,1.7,3,2.67,4.44A31.14,31.14,0,0,0,7.17,70.34Z"/><path class="cls-4" d="M73.88,11.62C72.09,10.55,70.08,9.5,68,9.85l3.82,10.62c2.45,6.79,4.9,13.6,6.72,20.59A10.17,10.17,0,0,1,79,45.29a10.59,10.59,0,0,1-1.85,3.93C73.09,55.49,69,61.77,64.62,67.83a28.14,28.14,0,0,1-6.37,6.9,25.68,25.68,0,0,1-7,3.12,96.87,96.87,0,0,1-13.35,3.23c-3.32.56-6.79,1-9.62,2.81,5.58,2.48,11.93,2.44,18,2a80.86,80.86,0,0,0,19.54-3.59,30.85,30.85,0,0,0,11.88-6.74,34.91,34.91,0,0,0,6.7-10.12,98.87,98.87,0,0,0,7.93-24,20.25,20.25,0,0,0,.34-8.12,17.77,17.77,0,0,0-2.36-5.37c-1-1.71-2.19-3.34-3.13-5.11a11.4,11.4,0,0,0-2.13-3.33,50.56,50.56,0,0,0-4.81-3.68c-1.86-1.32-3.75-2.57-5.7-3.75Z"/></g><path class="cls-5" d="M50.45,39.64A15.21,15.21,0,0,1,69.19,53a15,15,0,0,1-13.84,16.1,14.59,14.59,0,0,1-12.59-5.37c-3.25-3.87-4.09-8.37-3-13.4a19.82,19.82,0,0,1-4.3,1.22A19,19,0,0,1,18.76,46.3,19.16,19.16,0,0,1,15.6,22.22,19,19,0,0,1,32,12.77a19.8,19.8,0,0,1,6.35.91c1.18.36,1.76,1.06,1.72,2s-.7,1.52-2,1.69a10.2,10.2,0,0,0-7.78,5.31A10.45,10.45,0,0,0,35,36.94a10.28,10.28,0,0,0,13.36-4,3.69,3.69,0,0,1,.68-.84,1.63,1.63,0,0,1,1.81-.24,1.58,1.58,0,0,1,1,1.52,18.37,18.37,0,0,1-1,5.4C50.68,39,50.58,39.28,50.45,39.64ZM65.73,54.22A11.48,11.48,0,1,0,54.2,65.69,11.48,11.48,0,0,0,65.73,54.22ZM31.12,16.43c-6,0-13.41,5.12-14.63,13.36a16,16,0,0,0,30,9.75,13.93,13.93,0,0,1-18.93-4.71C24.38,29.75,24.57,21.77,31.12,16.43Z"/><path class="cls-5" d="M47.68,27.6c-1,0-1.83,0-2.64,0a1.77,1.77,0,0,1-1.55-2.82c.87-1.43,1.81-2.81,2.72-4.21.13-.21.4-.41.29-.66s-.45-.12-.68-.14-.56,0-.84,0a1.75,1.75,0,0,1-1.67-1.66,1.66,1.66,0,0,1,1.49-1.74c1.8-.07,3.62-.1,5.43,0,1.29.08,1.84,1.56,1.1,2.78-.89,1.44-1.85,2.85-2.77,4.28-.12.19-.42.39-.25.65s.42.08.63.09c.39,0,.78,0,1.17,0a1.69,1.69,0,0,1,.27,3.35A15.77,15.77,0,0,1,47.68,27.6Z"/><path class="cls-5" d="M36.3,22.49c.59,0,1.17,0,1.76,0A1.75,1.75,0,0,1,39.6,25.3c-.54.91-1.14,1.78-1.73,2.66-.26.4-.23.58.29.63a2,2,0,0,1,1.18.37A1.7,1.7,0,0,1,40,30.58,1.53,1.53,0,0,1,38.75,32a14.12,14.12,0,0,1-5,0,1.68,1.68,0,0,1-1-2.62c.53-.94,1.16-1.83,1.77-2.74.28-.42.35-.63-.31-.7a1.72,1.72,0,0,1-1.62-1.79,1.81,1.81,0,0,1,1.81-1.63C35.07,22.47,35.69,22.49,36.3,22.49Z"/><path class="cls-5" d="M60.82,49.89a1.61,1.61,0,0,1-.67,1.3c-1.54,1.41-3.08,2.82-4.65,4.2a1.7,1.7,0,0,1-2.48,0c-.93-.81-1.82-1.64-2.7-2.5a1.73,1.73,0,1,1,2.29-2.58c.09.06.17.14.26.21.48.36.82,1.17,1.38,1.09s1-.69,1.42-1.09c.78-.67,1.53-1.38,2.32-2a1.7,1.7,0,0,1,2.83,1.37Z"/></g></svg>