<svg xmlns="http://www.w3.org/2000/svg" xmlns:xlink="http://www.w3.org/1999/xlink" viewBox="0 0 81.93 81.93"><defs><style>.cls-1{fill:#ffce00;}.cls-2{clip-path:url(#clip-path);}.cls-3{fill:#ffef4f;}.cls-4{fill:#ffb300;}.cls-5{fill:#fff;}</style><clipPath id="clip-path"><path class="cls-1" d="M81.93,40.93A41,41,0,1,0,41,81.93,41.09,41.09,0,0,0,81.93,40.93Z"/></clipPath></defs><g id="TXT"><path class="cls-1" d="M81.93,40.93A41,41,0,1,0,41,81.93,41.09,41.09,0,0,0,81.93,40.93Z"/><g class="cls-2"><path class="cls-3" d="M5.06,69.84A73,73,0,0,1,1.49,42.06a20,20,0,0,1,.65-4.3,20.93,20.93,0,0,1,2.23-4.65A157.06,157.06,0,0,1,17.84,13.79a13.7,13.7,0,0,1,3.34-3.24A14.44,14.44,0,0,1,25.8,9C29.89,8.18,34,7.35,38.08,6.51L57,2.65c3.72-.76,7.52-1.52,11.29-1a27.26,27.26,0,0,0,5.6.6C74-.61,71-2.4,68.43-3.51q-6.08-2.61-12.24-5C50-10.88,43.43-13.11,36.83-12.31c-5.32.65-10.23,3.24-14.58,6.39A85.63,85.63,0,0,0,7.93,7.73c-8.5,9.86-15.87,21-19.63,33.45A9.32,9.32,0,0,0-12.26,45a10.26,10.26,0,0,0,2.06,4.36l3.5,5.1a25.22,25.22,0,0,0,3,3.85,17.84,17.84,0,0,1,2.21,2.39c1,1.42,1.7,3,2.67,4.44A31.22,31.22,0,0,0,5.06,69.84Z"/><path class="cls-4" d="M71.77,11.11C70,10,68,9,65.91,9.35L69.73,20c2.45,6.8,4.9,13.6,6.72,20.59a10.19,10.19,0,0,1,.46,4.23,10.59,10.59,0,0,1-1.85,3.93C71,55,66.89,61.26,62.51,67.32a28.14,28.14,0,0,1-6.37,6.9,26,26,0,0,1-7,3.13,98.31,98.31,0,0,1-13.35,3.22c-3.32.56-6.79,1-9.62,2.82,5.58,2.47,11.93,2.44,18,2a79.9,79.9,0,0,0,19.54-3.59A30.7,30.7,0,0,0,75.6,75a35,35,0,0,0,6.7-10.13,98.87,98.87,0,0,0,7.93-24,20.2,20.2,0,0,0,.34-8.11,17.66,17.66,0,0,0-2.36-5.37c-1-1.71-2.19-3.35-3.13-5.12A11.23,11.23,0,0,0,83,19a49.05,49.05,0,0,0-4.81-3.69c-1.86-1.31-3.75-2.56-5.69-3.74Z"/></g><path class="cls-5" d="M30.79,74.82a13.67,13.67,0,0,1-13.11-9.61c-.18-.55-.43-.69-1-.68a5.53,5.53,0,0,1-2.89-10.47c.6-.32.62-.63.46-1.18-.53-1.8-.95-3.63-1.55-5.41-1.42-4.19.93-7.13,5-7.53.82-.08,1.34-.3,1.56-1.2a3.82,3.82,0,0,1,2.16-2.39,12.07,12.07,0,0,1,2.88-.85,1,1,0,0,1,1.34.73,1.06,1.06,0,0,1-.77,1.33c-.65.25-1.34.4-2,.61a2.17,2.17,0,0,0-1.64,2.43c.09,1.07-.25,1.47-1.35,1.46a10.73,10.73,0,0,0-3,.28,2.88,2.88,0,0,0-2.28,3.8c.24,1,.56,1.93.8,2.9.16.61.44.85,1.08.62s1.16-.31,1.73-.5a7.37,7.37,0,0,1,7.12,1.13,5.77,5.77,0,0,0,5.07.86c.94-.24,1.87-.5,2.8-.77,1.84-.51,3.67-1,5.51-1.53.62-.17.81-.43.63-1.07-1-3.47-2-7-3-10.42a2.65,2.65,0,0,0-3.58-2c-1.14.29-2.26.62-3.39.92a1.1,1.1,0,0,1-1.49-.65,1,1,0,0,1,.77-1.4,22.25,22.25,0,0,1,4.36-1.15,4.67,4.67,0,0,1,5.44,3.54c.79,2.55,1.46,5.15,2.18,7.72a5.58,5.58,0,0,1,.2.78c.11.83.56,1,1.38,1A5.53,5.53,0,0,1,45,56.6a1,1,0,0,0-.57,1.28A13.87,13.87,0,0,1,37.86,73,12.94,12.94,0,0,1,30.79,74.82ZM42.63,61.11c-.06-.57-.08-1.14-.17-1.7-.42-2.61-1.35-5.1-1.94-7.68-.19-.83-.55-1-1.34-.74-2.53.76-5.09,1.43-7.63,2.16A8.65,8.65,0,0,1,23.9,52a4.63,4.63,0,0,0-3.57-1c-1.12.23-2.21.57-3.31.84-.6.14-.71.47-.55,1,1.12,3.89,2.16,7.8,3.34,11.68a11.78,11.78,0,0,0,12.73,8A11.94,11.94,0,0,0,42.63,61.11ZM13,58.67a3.38,3.38,0,0,0,2.87,3.64c.7.11,1.05-.05.82-.84-.45-1.6-.91-3.21-1.33-4.82-.19-.7-.54-.68-1-.33A3.14,3.14,0,0,0,13,58.67Zm32.83-6.81a3.46,3.46,0,0,0-3.19-3.48c-.49,0-.7.15-.56.65q.72,2.61,1.43,5.22c.13.47.38.48.74.26A3.41,3.41,0,0,0,45.78,51.86Z"/><path class="cls-5" d="M55.78,44.34a10.32,10.32,0,0,0,2.28-.25c.74-.1,1.32.12,1.46.86s-.34,1.17-1.06,1.32a13.64,13.64,0,0,1-16.3-11.39,13,13,0,0,1,.28-5,.91.91,0,0,0-.5-1.21,5.26,5.26,0,0,1-2.79-5.89A5.34,5.34,0,0,1,44,18.5a.63.63,0,0,1,.3,0c1.6.54,2.33-.55,3.24-1.57A12.91,12.91,0,0,1,60.7,12.56c5.21,1.19,8.5,4.57,10.1,9.63A8.71,8.71,0,0,1,71.23,25a1.12,1.12,0,0,0,.8,1.2,5.4,5.4,0,0,1-2.64,10.36c-.62-.05-.72.28-.86.71a13.76,13.76,0,0,1-4.64,6.54,2.15,2.15,0,0,1-.24.18c-.63.48-1.33.86-1.92.07s-.09-1.37.58-1.83a11,11,0,0,0,4-5.21,31.76,31.76,0,0,0,1.12-3.75A46.7,46.7,0,0,0,69,26.61c.07-.71-.08-1.39-.07-2.09s-.25-1-1-.62a12.69,12.69,0,0,1-5.46,1.52A13.27,13.27,0,0,1,50.7,20a9.26,9.26,0,0,1-.62-.92c-.72-1.13-.71-1.13-1.54,0A12.33,12.33,0,0,0,47,21.94c-.25.64-.62,1.18-1.41,1s-.89-.83-.71-1.52c.11-.42,0-.61-.45-.67a3.16,3.16,0,0,0-3,2.19,3.25,3.25,0,0,0,1.32,3.69c.3.15.51.14.64-.19.07-.16.1-.32.17-.47.28-.61.69-1,1.41-.78a1.08,1.08,0,0,1,.69,1.46c-.31,1.1-.6,2.2-.91,3.29A11.37,11.37,0,0,0,55.78,44.34Zm1.35-29.87A10.92,10.92,0,0,0,52,15.94c-.6.34-.71.68-.38,1.29a11.36,11.36,0,0,0,15.71,4.54c.61-.37.74-.68.4-1.35A11.33,11.33,0,0,0,57.13,14.47Zm16,16.17a3.22,3.22,0,0,0-1.41-2.16c-.39-.29-.68-.24-.81.26-.45,1.64-.89,3.28-1.34,4.92-.17.61.17.67.64.66C71.82,34.28,73.14,32.83,73.14,30.64Z"/><path class="cls-5" d="M63.19,52.68a2.28,2.28,0,0,1-2.43,2.59c-2.53-.1-5.06-.29-7.59-.54A2.23,2.23,0,0,1,51,52.4c0-.3-.05-.6-.08-.89a2.33,2.33,0,0,1,1.93-2.83c2.41-.55,4.83-1,7.26-1.48A2.24,2.24,0,0,1,63,49.4C63.06,50.43,63.11,51.47,63.19,52.68Zm-2.28-1c-.07-.53-.16-1.06-.18-1.59s-.3-.66-.78-.56c-2,.43-4.05.85-6.07,1.25-.64.13-.75.52-.73,1.1s.43.71.94.74c1.8.11,3.59.25,5.39.38C60.83,53.07,60.9,53,60.91,51.65Z"/><path class="cls-5" d="M40.32,15.68c0,2-1.35,2.59-2.48,3.29a2.08,2.08,0,0,1-2.65-.51c-1.78-1.72-3.58-3.42-5.33-5.17a2.13,2.13,0,0,1,.07-3.35A29.69,29.69,0,0,1,33,7.53c1.21-.82,2.43-.44,3.31,1s1.53,2.59,2.29,3.89c.41.69.82,1.38,1.22,2.08A2.87,2.87,0,0,1,40.32,15.68Zm-2.3.13c-.1-.19-.21-.39-.33-.59C37,14,36.31,12.86,35.61,11.69c-1.45-2.45-1.46-2.45-3.64-.6l-.08.06c-.42.29-.46.59-.07,1,1.57,1.49,3.12,3,4.68,4.51.25.24.49.33.78.07S38,16.33,38,15.81Z"/><path class="cls-5" d="M49.9,63a2.91,2.91,0,0,1,1.59.43c2,1.08,4,2.13,6,3.23,1.65.91,2,2.22.91,3.76q-.87,1.29-1.83,2.52a2.29,2.29,0,0,1-3.72.26c-1.7-1.62-3.4-3.23-5.08-4.86a2.29,2.29,0,0,1-.34-3.47C48.06,64,48.61,63,49.9,63Zm.29,2.27c-.53,0-.61.48-.85.77s-.09.67.2,1c1.55,1.48,3.11,3,4.65,4.44.38.37.61.25.86-.14a18.52,18.52,0,0,1,1.16-1.63c.51-.6.39-1-.28-1.31-1.75-.92-3.47-1.88-5.21-2.82C50.55,65.47,50.36,65.39,50.19,65.31Z"/><path class="cls-5" d="M29.26,31.79c-2.17-.18-4.57-.32-7-.58a2.09,2.09,0,0,1-2-2.68c.2-1.15.45-2.3.73-3.43A2.14,2.14,0,0,1,24,23.34c2.45.79,4.87,1.67,7.27,2.6a2.07,2.07,0,0,1,1.41,2.55,8.67,8.67,0,0,1-.13.89C32.16,31.28,31.43,31.85,29.26,31.79Zm-.67-2.27a4.9,4.9,0,0,1,.67,0c.57.08,1,.09,1.15-.68s-.25-1-.82-1.19c-1.26-.44-2.52-.91-3.77-1.36-2.85-1-2.85-1-3.21,2a.38.38,0,0,1,0,.1c-.11.47.07.65.56.68C24.93,29.22,26.69,29.37,28.59,29.52Z"/><path class="cls-5" d="M64.24,60a18.33,18.33,0,0,1-1.34,4.59,2,2,0,0,1-2.56,1c-2.47-1-4.92-2.1-7.35-3.21A2.06,2.06,0,0,1,51.78,60a8.86,8.86,0,0,1,.34-1.46,2.39,2.39,0,0,1,3-1.93c2,.27,4,.58,5.94.88a6.25,6.25,0,0,1,1.76.35A2.07,2.07,0,0,1,64.24,60Zm-2.31.48c.07-.53-.21-.63-.47-.67l-6.53-.91c-.64-.1-.67.36-.82.76s-.11.77.36,1l6,2.59c.25.11.55.24.67-.13C61.41,62.18,61.69,61.25,61.93,60.48Z"/><path class="cls-5" d="M30.31,23.77a3,3,0,0,1-1.39-.37l-6-2.74c-1.74-.79-2.15-2.08-1.17-3.75.52-.89,1.07-1.77,1.63-2.64a2.23,2.23,0,0,1,3.46-.65c2,1.6,3.92,3.25,5.83,4.92a2.08,2.08,0,0,1,.63,2.7C32.47,23.06,31.63,23.8,30.31,23.77Zm.9-3.45c0-.26-.28-.39-.48-.55-1.58-1.33-3.2-2.63-4.76-4-.57-.5-.83-.29-1.13.24s-.66,1.16-1,1.71-.28.78.31,1c1.9.83,3.77,1.72,5.66,2.57A1.11,1.11,0,0,0,31.21,20.32Z"/><path class="cls-5" d="M54.28,39.64A5.56,5.56,0,0,1,48.83,33c.22-1,.72-1.38,1.73-1.11,2.7.74,5.4,1.53,8.1,2.31.91.26,1.07.9.83,1.73A5.6,5.6,0,0,1,54.28,39.64Zm-.06-2.23a3.53,3.53,0,0,0,2.14-.73c.48-.35.56-.67-.13-.87l-4.52-1.3c-.22-.07-.47-.16-.64.07s0,.44.08.65A3.24,3.24,0,0,0,54.22,37.41Z"/><path class="cls-5" d="M60.86,28.47a2.89,2.89,0,0,1,2.9,3.12c-.09.68-.36,1.26-1.17,1.25s-1-.52-1.08-1.19c0-.38,0-.78-.45-.92s-.68.27-.91.6a1,1,0,0,1-1.46.42,1.09,1.09,0,0,1-.42-1.56A2.8,2.8,0,0,1,60.86,28.47Z"/><path class="cls-5" d="M49.31,25.26a3,3,0,0,1,3.19,2.82c0,.73-.21,1.47-1.1,1.55s-1.16-.51-1.17-1.28c0-.36-.06-.7-.43-.83s-.67.18-.87.49c-.4.63-.92.91-1.59.48s-.59-1-.27-1.68A2.68,2.68,0,0,1,49.31,25.26Z"/><path class="cls-5" d="M38.5,61.86A5.62,5.62,0,0,1,27.67,64c-.49-1.22-.22-1.78,1.07-2.15,2.37-.67,4.75-1.34,7.13-2C38,59.24,38.49,59.61,38.5,61.86Zm-6.14,3.39a3.68,3.68,0,0,0,3.87-2.58c.12-.48,0-.63-.47-.5l-5.12,1.41c-.5.13-.48.35-.16.69A3,3,0,0,0,32.36,65.25Z"/><path class="cls-5" d="M40,55.76a1,1,0,0,1-.58.9,1,1,0,0,1-1.21-.17,2.12,2.12,0,0,1-.35-.48c-.18-.31-.42-.54-.8-.44s-.54.43-.57.83a2.57,2.57,0,0,1-.15.78.92.92,0,0,1-.88.55,1,1,0,0,1-1-.56,2.7,2.7,0,0,1,.45-2.8,2.87,2.87,0,0,1,3.16-.92A2.75,2.75,0,0,1,40,55.76Z"/><path class="cls-5" d="M22.69,59.42A2.83,2.83,0,0,1,25,56.61a2.91,2.91,0,0,1,3.29,1.7,1.08,1.08,0,0,1-.42,1.56,1,1,0,0,1-1.45-.46c-.25-.38-.49-.78-1-.6a.72.72,0,0,0-.48.8c0,.8-.26,1.32-1.11,1.33C23.07,61,22.69,60.39,22.69,59.42Z"/></g></svg>