<svg xmlns="http://www.w3.org/2000/svg" xmlns:xlink="http://www.w3.org/1999/xlink" viewBox="0 0 81.93 81.93"><defs><style>.cls-1{fill:#e6333e;}.cls-2{clip-path:url(#clip-path);}.cls-3{fill:#ff968c;}.cls-4{fill:#b32830;}.cls-5{fill:#fff;}</style><clipPath id="clip-path"><path class="cls-1" d="M81.93,40.94A41,41,0,1,0,41,81.93,41.09,41.09,0,0,0,81.93,40.94Z"/></clipPath></defs><g id="TXT"><path class="cls-1" d="M81.93,40.94A41,41,0,1,0,41,81.93,41.09,41.09,0,0,0,81.93,40.94Z"/><g class="cls-2"><path class="cls-3" d="M5.81,69A72.88,72.88,0,0,1,2.24,41.21a19,19,0,0,1,.65-4.31,21.14,21.14,0,0,1,2.23-4.65A157,157,0,0,1,18.58,12.93,13.87,13.87,0,0,1,21.93,9.7a14.2,14.2,0,0,1,4.62-1.52q6.14-1.27,12.27-2.52L57.74,1.8C61.46,1,65.26.27,69,.74a26.68,26.68,0,0,0,5.61.6c.11-2.8-2.88-4.59-5.46-5.7Q63.11-7,56.93-9.35c-6.2-2.39-12.75-4.62-19.35-3.82C32.25-12.52,27.34-9.92,23-6.78A85.65,85.65,0,0,0,8.68,6.87c-8.51,9.87-15.87,21-19.63,33.45a9.32,9.32,0,0,0-.56,3.83,10.14,10.14,0,0,0,2.06,4.36l3.5,5.1a24.82,24.82,0,0,0,3,3.86A17.25,17.25,0,0,1-.76,59.86c1,1.41,1.7,3,2.67,4.43A30.73,30.73,0,0,0,5.81,69Z"/><path class="cls-4" d="M72.52,10.26c-1.79-1.07-3.81-2.12-5.86-1.77l3.82,10.62c2.44,6.79,4.89,13.6,6.72,20.59a10.34,10.34,0,0,1,.46,4.23,10.82,10.82,0,0,1-1.85,3.93c-4.09,6.27-8.17,12.54-12.56,18.61a27.93,27.93,0,0,1-6.37,6.9,25.61,25.61,0,0,1-7,3.12,97.23,97.23,0,0,1-13.35,3.23c-3.32.56-6.79,1-9.62,2.81,5.58,2.48,11.93,2.44,18,2a80.45,80.45,0,0,0,19.54-3.58,30.92,30.92,0,0,0,11.88-6.74,35,35,0,0,0,6.7-10.12A98.87,98.87,0,0,0,91,40a20.25,20.25,0,0,0,.34-8.12A17.77,17.77,0,0,0,89,26.53c-1-1.71-2.2-3.35-3.13-5.12a11.7,11.7,0,0,0-2.13-3.32,50.69,50.69,0,0,0-4.82-3.68q-2.77-2-5.69-3.75Z"/></g><path class="cls-5" d="M40.79,23.24a26.61,26.61,0,0,1,13.37,4,51.91,51.91,0,0,1,13.38,12c1.11,1.36,1.12,2,0,3.33A51.08,51.08,0,0,1,53.46,55.07a25.18,25.18,0,0,1-12.1,3.59,22.69,22.69,0,0,1-9.56-2,42,42,0,0,1-13.22-9.37,54,54,0,0,1-4.23-4.72c-1.06-1.33-1.07-2,0-3.27A51.73,51.73,0,0,1,28.47,26.86,26.47,26.47,0,0,1,40.79,23.24Zm-1.07,32a21.79,21.79,0,0,0,10.87-2.5A45.76,45.76,0,0,0,64,41.69c.42-.5.51-.85,0-1.41A47,47,0,0,0,51.73,29.8a22.26,22.26,0,0,0-9.87-3.14A20.1,20.1,0,0,0,31.4,29.12,45.62,45.62,0,0,0,17.9,40.3a.86.86,0,0,0,0,1.35A46.68,46.68,0,0,0,30.2,52.14,22.13,22.13,0,0,0,39.72,55.28Z"/><path class="cls-5" d="M13.57,18.44c0-1,0-2.05,0-3.07a1.61,1.61,0,0,1,1.76-1.79c2.11,0,4.23,0,6.34,0a1.63,1.63,0,0,1,1.75,1.67,1.65,1.65,0,0,1-1.73,1.63c-1.3,0-2.6,0-3.9,0-.91,0-.91,0-.91.94,0,1.28,0,2.55,0,3.83a1.66,1.66,0,1,1-3.31,0C13.56,20.58,13.57,19.51,13.57,18.44Z"/><path class="cls-5" d="M63.47,13.57c1,0,2.09,0,3.14,0a1.58,1.58,0,0,1,1.74,1.72q0,3.21,0,6.42a1.61,1.61,0,0,1-1.64,1.7,1.64,1.64,0,0,1-1.65-1.7c0-1.35,0-2.7,0-4,0-.6-.15-.82-.78-.8-1.32,0-2.65,0-4,0a1.66,1.66,0,1,1,0-3.3Z"/><path class="cls-5" d="M18.48,68.36c-1.07,0-2.14,0-3.21,0a1.59,1.59,0,0,1-1.69-1.71q0-3.21,0-6.42a1.62,1.62,0,0,1,1.63-1.72,1.66,1.66,0,0,1,1.67,1.76c0,1.37,0,2.74,0,4.11,0,.53.18.69.69.68,1.35,0,2.7,0,4.05,0a1.68,1.68,0,0,1,1.81,1.69,1.66,1.66,0,0,1-1.8,1.62H18.48Z"/><path class="cls-5" d="M68.36,63.45c0,1,0,2.09,0,3.14a1.61,1.61,0,0,1-1.78,1.77q-3.14,0-6.27,0a1.65,1.65,0,0,1-1.8-1.63,1.68,1.68,0,0,1,1.82-1.68c1.35,0,2.7,0,4,0,.51,0,.69-.17.68-.69,0-1.34,0-2.69,0-4a1.66,1.66,0,1,1,3.31,0v3.14Z"/><path class="cls-5" d="M41,29.64A11.33,11.33,0,1,0,52.29,41,11.49,11.49,0,0,0,41,29.64Zm0,16.23a4.9,4.9,0,1,1,4.88-4.93A5,5,0,0,1,41,45.87Z"/></g></svg>