<svg xmlns="http://www.w3.org/2000/svg" xmlns:xlink="http://www.w3.org/1999/xlink" viewBox="0 0 798.4 954.1"><defs><style>.cls-1{fill:#262a58;}.cls-2{fill:#08aff9;}.cls-3{clip-path:url(#clip-path);}.cls-4{fill:#4d5999;}.cls-5{fill:#13041e;}.cls-6{fill:#4f3c7a;}.cls-7{fill:#fff;}</style><clipPath id="clip-path"><circle class="cls-1" cx="395.95" cy="33.54" r="16.05"/></clipPath></defs><g id="GRAFICA"><path class="cls-2" d="M794.91,236.55a3.5,3.5,0,0,0,3.49-3.5v-68.5a3.5,3.5,0,0,0-3.49-3.5h-3V41.9A41.9,41.9,0,0,0,750,0H41.9A41.9,41.9,0,0,0,0,41.9V954.1H791.9V319h3a3.49,3.49,0,0,0,3.49-3.49V247a3.49,3.49,0,0,0-3.49-3.49h-3v-7Zm-20,717.55H17V73a39.89,39.89,0,0,1,40.1-39.69H734.83A39.9,39.9,0,0,1,774.94,73Z"/><circle class="cls-2" cx="395.95" cy="33.54" r="26.71"/><circle class="cls-1" cx="395.95" cy="33.54" r="16.05"/><g class="cls-3"><polygon class="cls-4" points="404.8 14.11 375.34 43.02 380.69 47.49 412 19.78 390.4 50.98 392.25 52.29 419.2 23.71 410.03 14.55 404.8 14.11"/></g><circle class="cls-5" cx="395.95" cy="33.54" r="9.94"/><circle class="cls-6" cx="395.95" cy="33.54" r="6.5"/><circle class="cls-7" cx="393.64" cy="31.67" r="3.27"/></g></svg>