<svg xmlns="http://www.w3.org/2000/svg" xmlns:xlink="http://www.w3.org/1999/xlink" viewBox="0 0 757.98 837.9"><defs><style>.cls-1,.cls-3{fill:none;}.cls-2{clip-path:url(#clip-path);}.cls-3,.cls-5{stroke:#b1d678;stroke-miterlimit:10;}.cls-3{stroke-width:4px;}.cls-4{fill:#b1d678;}.cls-5{fill:#fff;stroke-width:2px;}</style><clipPath id="clip-path"><rect class="cls-1" y="0.39" width="757.98" height="837.12"/></clipPath></defs><g id="GRAFICA"><g class="cls-2"><circle class="cls-3" cx="378.99" cy="397.89" r="356.13"/><circle class="cls-4" cx="630.4" cy="847.59" r="185.42"/><path class="cls-5" d="M734.17-18.5C632.24,113.24,683.23,253.88,716,326.72c8.24,18.3,16.48,36.62,23.89,55.28,3.26,8.22,7.3,16.43,10.35,24.6,3.45,9.24,3.22,21.44,3.83,31.21A317.37,317.37,0,0,1,736,564.59a308.18,308.18,0,0,1-20.8,45.73c-15.86,28.41-35.47,54.15-50.54,83.09a663.18,663.18,0,0,0-38,88,677,677,0,0,0-36.8,187.66,656.68,656.68,0,0,0,5.84,128.19l-216.06,12a604.1,604.1,0,0,0,156.46-206c17.71-38.32,31.44-78.35,49.29-116.61a421.26,421.26,0,0,1,63.06-97.52C681.06,651,707.74,607.41,724,559.93a317.14,317.14,0,0,0,16.93-86.48c1.1-21.61.9-44.9-5-65.81a482,482,0,0,0-22.73-62.24c-17.72-40.38-39-79.21-54.59-120.5-16-42.16-25.94-87.25-23.09-132.25s19.32-90,50.67-122.41Z"/><path class="cls-5" d="M639.71,938.22c-11.27-1.3-25.75-4.68-35.14-11.24-6-4.2-8-7.09-9.45-10.84A152.78,152.78,0,0,1,607,892.9c21.22-32.65,53.63-57.23,89.15-72.53,44-19,89.91-22.3,137-24.47-16.22,28.89-39.94,57.05-63.24,80.59-24.16,24.41-52.79,45.14-85.41,55.92C670.08,937.17,654.78,940,639.71,938.22Z"/><path class="cls-5" d="M643.42,692.31c-3.26,7.16-8.56,16-14.89,20.79-31.47-15-48.32-56.36-50.87-83-3.15-33,4.41-64,13-95.58,15.61,16.84,29.14,38.47,39.71,58.84,11,21.13,18.56,44.42,18.74,68.22C649.18,672.05,647.76,682.74,643.42,692.31Z"/><path class="cls-5" d="M776,403.83c-7.1,3.36-16.86,6.68-24.79,6.25-14.33-31.79-.49-74.23,14.8-96.24,18.92-27.25,44.72-46,71.64-64.59,1,22.94-2.6,48.19-7.68,70.57-5.28,23.21-14.52,45.9-29.76,64.19C793.51,392.08,785.53,399.33,776,403.83Z"/><path class="cls-5" d="M71.8-29.76c31.35,32.41,47.82,77.41,50.67,122.41s-7.12,90.09-23.09,132.25C83.74,266.19,62.51,305,44.79,345.4a480.53,480.53,0,0,0-22.73,62.24c-5.92,20.91-6.12,44.2-5,65.81A317.14,317.14,0,0,0,34,559.93c16.27,47.48,43,91.05,75.59,129.18a421.92,421.92,0,0,1,63.06,97.52c17.85,38.26,31.57,78.29,49.29,116.61a604,604,0,0,0,156.46,206l-216.06-12a657.46,657.46,0,0,0,5.84-128.19,676.62,676.62,0,0,0-36.81-187.66,661.82,661.82,0,0,0-38-88c-15.07-28.94-34.68-54.68-50.54-83.09A308.18,308.18,0,0,1,22,564.59,317.37,317.37,0,0,1,3.88,437.81c.61-9.77.38-22,3.83-31.21,3.05-8.17,7.08-16.38,10.35-24.6,7.41-18.66,15.65-37,23.89-55.28C74.74,253.88,125.74,113.24,23.81-18.5Z"/><path class="cls-5" d="M118.27,938.22c11.26-1.3,25.75-4.68,35.14-11.24,6-4.2,8-7.09,9.45-10.84A152.87,152.87,0,0,0,151,892.9c-21.21-32.65-53.62-57.23-89.14-72.53-44-19-89.91-22.3-137-24.47,16.22,28.89,39.93,57.05,63.24,80.59,24.16,24.41,52.79,45.14,85.41,55.92C87.9,937.17,103.2,940,118.27,938.22Z"/><path class="cls-5" d="M114.56,692.31c3.25,7.16,8.56,16,14.89,20.79,31.47-15,48.32-56.36,50.86-83,3.16-33-4.4-64-13-95.58-15.61,16.84-29.14,38.47-39.71,58.84-11,21.13-18.56,44.42-18.74,68.22C108.8,672.05,110.21,682.74,114.56,692.31Z"/><path class="cls-5" d="M-18,403.83c7.1,3.36,16.86,6.68,24.79,6.25,14.33-31.79.49-74.23-14.8-96.24-18.92-27.25-44.72-46-71.64-64.59-1,22.94,2.59,48.19,7.68,70.57C-66.75,343-57.5,365.72-42.26,384-35.53,392.08-27.56,399.33-18,403.83Z"/><circle class="cls-4" cx="230.65" cy="26.57" r="85.69"/><circle class="cls-4" cx="637.56" cy="310.53" r="20.79"/><circle class="cls-4" cx="3.83" cy="697.62" r="20.79"/></g></g></svg>